<svg version="1.1" viewBox="0.0 0.0 600.0 371.0" fill="none" stroke="none" stroke-linecap="square" stroke-miterlimit="10" width="600" height="371" xmlns:xlink="http://www.w3.org/1999/xlink" xmlns="http://www.w3.org/2000/svg"><path fill="#ffffff" d="M0 0L600.0 0L600.0 371.0L0 371.0L0 0Z" fill-rule="nonzero"/><path fill="#2e5dab" d="M300.0 140.4575C314.71164 140.4575 329.0929 143.51126 341.32516 149.23259L341.32516 171.54759C329.0929 165.82625 314.71164 162.7725 300.0 162.7725Z" fill-rule="nonzero"/><path fill="#4285f4" d="M300.0 88.38917C329.42328 88.38917 358.1858 94.49667 382.65033 105.93936L341.32516 149.23259C329.0929 143.51126 314.71164 140.4575 300.0 140.4575Z" fill-rule="nonzero"/><path fill="#a42f25" d="M341.32516 149.23259C354.9399 155.60056 365.17245 164.93529 370.43582 175.78902L370.43582 198.10402C365.17245 187.25027 354.9399 177.91556 341.32516 171.54759Z" fill-rule="nonzero"/><path fill="#ea4335" d="M382.65033 105.93936C409.87982 118.67528 430.34494 137.34473 440.87164 159.0522L370.43582 175.78902C365.17245 164.93529 354.9399 155.60056 341.32516 149.23259Z" fill-rule="nonzero"/><path fill="#b08403" d="M448.76666 214.84084C448.76666 217.11295 448.66043 219.38445 448.44815 221.6517L448.44815 199.3367C448.66043 197.06944 448.76666 194.79794 448.76666 192.52583Z" fill-rule="nonzero"/><path fill="#b08403" d="M370.43582 175.78902C373.0498 181.1794 374.38333 186.83336 374.38333 192.52583L374.38333 214.84084C374.38333 209.14835 373.0498 203.4944 370.43582 198.10402Z" fill-rule="nonzero"/><path fill="#fbbc04" d="M440.87164 159.0522C447.15137 172.00186 449.7259 185.69055 448.44815 199.3367L374.22406 195.93126C374.86295 189.1082 373.57568 182.26385 370.43582 175.78902Z" fill-rule="nonzero"/><path fill="#24763a" d="M448.44815 221.6517C444.27982 266.1691 400.06476 303.88245 338.50363 315.42914L338.50363 293.11414C400.06476 281.56744 444.27982 243.8541 448.44815 199.3367Z" fill-rule="nonzero"/><path fill="#34a853" d="M448.44815 199.3367C444.27982 243.8541 400.06476 281.56744 338.50363 293.11414L319.25183 242.81998C350.03238 237.04665 372.13992 218.18997 374.22406 195.93126Z" fill-rule="nonzero"/><path fill="#31848b" d="M225.61667 305.02582C179.5881 286.4236 151.23334 252.04529 151.23334 214.84084L151.23334 192.52583C151.23334 229.73029 179.5881 264.1086 225.61667 282.71085Z" fill-rule="nonzero"/><path fill="#31848b" d="M225.61667 192.52583C225.61667 163.76929 258.91922 140.4575 300.0 140.4575L300.0 162.7725C258.91922 162.7725 225.61667 186.08429 225.61667 214.84084Z" fill-rule="nonzero"/><path fill="#46bdc6" d="M225.61667 282.71085C167.30489 259.1444 138.87547 211.10011 156.30243 165.57329C173.7294 120.04645 232.66736 88.38917 300.0 88.38917L300.0 140.4575C266.33368 140.4575 236.8647 156.28613 228.15121 179.04956C219.43773 201.81297 233.65245 225.83511 262.80832 237.61833Z" fill-rule="nonzero"/><path fill="#b34c01" d="M338.50363 315.42914C300.39267 322.5774 259.786 318.8352 225.61667 305.02582L225.61667 282.71085C259.786 296.5202 300.39267 300.2624 338.50363 293.11414Z" fill-rule="nonzero"/><path fill="#ff6d01" d="M338.50363 293.11414C300.39267 300.2624 259.786 296.5202 225.61667 282.71085L262.80832 237.61833C279.893 244.52303 300.19635 246.39412 319.25183 242.81998Z" fill-rule="nonzero"/><path fill="#1a1a1a" d="M21.925 162.42091L18.596874 153.82716L19.83125 153.82716L22.065624 160.07716Q22.33125 160.82716 22.51875 161.48341Q22.721874 160.78029 22.9875 160.07716L25.3 153.82716L26.45625 153.82716L23.096874 162.42091L21.925 162.42091ZM30.596874 160.42091L31.690624 160.54591Q31.440624 161.49904 30.7375 162.03029Q30.034374 162.56154 28.95625 162.56154Q27.596874 162.56154 26.784374 161.71779Q25.9875 160.87404 25.9875 159.35841Q25.9875 157.79591 26.8 156.93654Q27.6125 156.06154 28.89375 156.06154Q30.14375 156.06154 30.925 156.90529Q31.721874 157.74904 31.721874 159.29591Q31.721874 159.38966 31.721874 159.57716L27.08125 159.57716Q27.14375 160.60841 27.659374 161.15529Q28.175 161.68654 28.95625 161.68654Q29.534374 161.68654 29.940624 161.38966Q30.3625 161.07716 30.596874 160.42091ZM27.14375 158.71779L30.6125 158.71779Q30.55 157.92091 30.221874 157.53029Q29.70625 156.92091 28.909374 156.92091Q28.175 156.92091 27.675 157.40529Q27.190624 157.88966 27.14375 158.71779ZM33.33125 162.42091L33.33125 156.20216L34.284374 156.20216L34.284374 157.13966Q34.64375 156.48341 34.940624 156.28029Q35.253124 156.06154 35.628124 156.06154Q36.159374 156.06154 36.70625 156.38966L36.346874 157.37404Q35.95625 157.13966 35.58125 157.13966Q35.221874 157.13966 34.940624 157.35841Q34.675 157.56154 34.565624 157.93654Q34.378124 158.49904 34.378124 159.15529L34.378124 162.42091L33.33125 162.42091ZM37.346874 155.04591L37.346874 153.82716L38.409374 153.82716L38.409374 155.04591L37.346874 155.04591ZM37.346874 162.42091L37.346874 156.20216L38.409374 156.20216L38.409374 162.42091L37.346874 162.42091ZM40.596874 162.42091L40.596874 157.01466L39.659374 157.01466L39.659374 156.20216L40.596874 156.20216L40.596874 155.53029Q40.596874 154.90529 40.70625 154.60841Q40.8625 154.18654 41.2375 153.93654Q41.628124 153.68654 42.315624 153.68654Q42.76875 153.68654 43.3 153.79591L43.14375 154.70216Q42.815624 154.65529 42.51875 154.65529Q42.034374 154.65529 41.83125 154.85841Q41.64375 155.06154 41.64375 155.62404L41.64375 156.20216L42.8625 156.20216L42.8625 157.01466L41.64375 157.01466L41.64375 162.42091L40.596874 162.42091ZM43.346874 155.04591L43.346874 153.82716L44.409374 153.82716L44.409374 155.04591L43.346874 155.04591ZM43.346874 162.42091L43.346874 156.20216L44.409374 156.20216L44.409374 162.42091L43.346874 162.42091ZM50.409374 160.13966L51.440624 160.28029Q51.26875 161.34279 50.565624 161.95216Q49.8625 162.56154 48.846874 162.56154Q47.565624 162.56154 46.784374 161.73341Q46.01875 160.88966 46.01875 159.32716Q46.01875 158.32716 46.346874 157.57716Q46.690624 156.81154 47.3625 156.43654Q48.05 156.06154 48.8625 156.06154Q49.8625 156.06154 50.503124 156.57716Q51.159374 157.07716 51.346874 158.03029L50.315624 158.18654Q50.175 157.56154 49.8 157.24904Q49.425 156.92091 48.89375 156.92091Q48.096874 156.92091 47.596874 157.49904Q47.096874 158.06154 47.096874 159.29591Q47.096874 160.56154 47.58125 161.12404Q48.065624 161.68654 48.83125 161.68654Q49.45625 161.68654 49.8625 161.31154Q50.284374 160.93654 50.409374 160.13966ZM56.409374 161.65529Q55.815624 162.15529 55.26875 162.35841Q54.7375 162.56154 54.1125 162.56154Q53.08125 162.56154 52.534374 162.06154Q51.9875 161.56154 51.9875 160.78029Q51.9875 160.32716 52.190624 159.95216Q52.39375 159.56154 52.7375 159.34279Q53.08125 159.10841 53.503124 158.99904Q53.8 158.90529 54.440624 158.82716Q55.70625 158.68654 56.315624 158.46779Q56.315624 158.24904 56.315624 158.20216Q56.315624 157.54591 56.01875 157.28029Q55.6125 156.93654 54.815624 156.93654Q54.08125 156.93654 53.721874 157.20216Q53.3625 157.45216 53.190624 158.10841L52.159374 157.96779Q52.3 157.31154 52.628124 156.90529Q52.95625 156.49904 53.565624 156.28029Q54.175 156.06154 54.971874 156.06154Q55.76875 156.06154 56.26875 156.24904Q56.76875 156.43654 57.003124 156.71779Q57.2375 156.99904 57.33125 157.43654Q57.378124 157.70216 57.378124 158.40529L57.378124 159.81154Q57.378124 161.28029 57.440624 161.67091Q57.51875 162.06154 57.721874 162.42091L56.6125 162.42091Q56.45625 162.09279 56.409374 161.65529ZM56.315624 159.29591Q55.7375 159.53029 54.596874 159.70216Q53.940624 159.79591 53.675 159.92091Q53.409374 160.03029 53.253124 160.24904Q53.1125 160.46779 53.1125 160.74904Q53.1125 161.17091 53.425 161.45216Q53.753124 161.73341 54.3625 161.73341Q54.971874 161.73341 55.440624 161.46779Q55.925 161.20216 56.14375 160.73341Q56.315624 160.37404 56.315624 159.68654L56.315624 159.29591ZM61.64375 161.48341L61.8 162.40529Q61.346874 162.49904 61.003124 162.49904Q60.425 162.49904 60.1125 162.32716Q59.8 162.13966 59.659374 161.84279Q59.534374 161.54591 59.534374 160.59279L59.534374 157.01466L58.76875 157.01466L58.76875 156.20216L59.534374 156.20216L59.534374 154.65529L60.58125 154.03029L60.58125 156.20216L61.64375 156.20216L61.64375 157.01466L60.58125 157.01466L60.58125 160.65529Q60.58125 161.10841 60.628124 161.23341Q60.690624 161.35841 60.815624 161.43654Q60.940624 161.51466 61.175 161.51466Q61.3625 161.51466 61.64375 161.48341ZM61.95625 159.31154Q61.95625 157.57716 62.909374 156.74904Q63.70625 156.06154 64.8625 156.06154Q66.14375 156.06154 66.95625 156.90529Q67.78438 157.73341 67.78438 159.21779Q67.78438 160.42091 67.425 161.10841Q67.06563 161.79591 66.3625 162.18654Q65.675 162.56154 64.8625 162.56154Q63.565624 162.56154 62.753124 161.73341Q61.95625 160.88966 61.95625 159.31154ZM63.034374 159.31154Q63.034374 160.49904 63.55 161.09279Q64.08125 161.68654 64.8625 161.68654Q65.65938 161.68654 66.175 161.09279Q66.69063 160.49904 66.69063 159.28029Q66.69063 158.12404 66.15938 157.53029Q65.64375 156.93654 64.8625 156.93654Q64.08125 156.93654 63.55 157.53029Q63.034374 158.10841 63.034374 159.31154ZM69.33125 162.42091L69.33125 156.20216L70.28438 156.20216L70.28438 157.13966Q70.64375 156.48341 70.94063 156.28029Q71.25313 156.06154 71.62813 156.06154Q72.15938 156.06154 72.70625 156.38966L72.34688 157.37404Q71.95625 157.13966 71.58125 157.13966Q71.22188 157.13966 70.94063 157.35841Q70.675 157.56154 70.56563 157.93654Q70.37813 158.49904 70.37813 159.15529L70.37813 162.42091L69.33125 162.42091ZM77.59688 160.42091L78.69063 160.54591Q78.44063 161.49904 77.7375 162.03029Q77.03438 162.56154 75.95625 162.56154Q74.59688 162.56154 73.78438 161.71779Q72.9875 160.87404 72.9875 159.35841Q72.9875 157.79591 73.8 156.93654Q74.6125 156.06154 75.89375 156.06154Q77.14375 156.06154 77.925 156.90529Q78.72188 157.74904 78.72188 159.29591Q78.72188 159.38966 78.72188 159.57716L74.08125 159.57716Q74.14375 160.60841 74.65938 161.15529Q75.175 161.68654 75.95625 161.68654Q76.53438 161.68654 76.94063 161.38966Q77.3625 161.07716 77.59688 160.42091ZM74.14375 158.71779L77.6125 158.71779Q77.55 157.92091 77.22188 157.53029Q76.70625 156.92091 75.90938 156.92091Q75.175 156.92091 74.675 157.40529Q74.19063 157.88966 74.14375 158.71779Z" fill-rule="nonzero"/><path fill="#9e9e9e" d="M22.425 179.42091L22.425 177.35841L18.70625 177.35841L18.70625 176.38966L22.628124 170.82716L23.4875 170.82716L23.4875 176.38966L24.64375 176.38966L24.64375 177.35841L23.4875 177.35841L23.4875 179.42091L22.425 179.42091ZM22.425 176.38966L22.425 172.53029L19.7375 176.38966L22.425 176.38966ZM30.01875 179.42091L28.971874 179.42091L28.971874 172.70216Q28.58125 173.06154 27.95625 173.43654Q27.346874 173.79591 26.8625 173.96779L26.8625 172.95216Q27.7375 172.53029 28.39375 171.95216Q29.065624 171.35841 29.346874 170.79591L30.01875 170.79591L30.01875 179.42091ZM33.6125 179.42091L33.6125 178.21779L34.815624 178.21779L34.815624 179.42091Q34.815624 180.07716 34.58125 180.48341Q34.346874 180.90529 33.846874 181.12404L33.55 180.67091Q33.878124 180.53029 34.034374 180.23341Q34.190624 179.95216 34.221874 179.42091L33.6125 179.42091ZM36.1125 171.95216L36.1125 170.93654L41.675 170.93654L41.675 171.76466Q40.8625 172.63966 40.05 174.09279Q39.253124 175.53029 38.815624 177.06154Q38.4875 178.13966 38.409374 179.42091L37.315624 179.42091Q37.33125 178.40529 37.70625 176.96779Q38.096874 175.53029 38.8 174.20216Q39.51875 172.87404 40.33125 171.95216L36.1125 171.95216ZM43.253124 172.88966Q43.253124 171.96779 43.70625 171.32716Q44.175 170.68654 45.05 170.68654Q45.8625 170.68654 46.39375 171.26466Q46.925 171.84279 46.925 172.95216Q46.925 174.04591 46.378124 174.63966Q45.846874 175.21779 45.065624 175.21779Q44.284374 175.21779 43.76875 174.63966Q43.253124 174.06154 43.253124 172.88966ZM45.08125 171.40529Q44.690624 171.40529 44.425 171.74904Q44.175 172.09279 44.175 172.99904Q44.175 173.82716 44.425 174.17091Q44.690624 174.49904 45.08125 174.49904Q45.4875 174.49904 45.7375 174.15529Q46.003124 173.81154 46.003124 172.92091Q46.003124 172.07716 45.7375 171.74904Q45.471874 171.40529 45.08125 171.40529ZM45.08125 179.73341L49.784374 170.68654L50.64375 170.68654L45.95625 179.73341L45.08125 179.73341ZM48.8 177.40529Q48.8 176.48341 49.253124 175.84279Q49.721874 175.20216 50.6125 175.20216Q51.425 175.20216 51.95625 175.78029Q52.4875 176.34279 52.4875 177.46779Q52.4875 178.56154 51.940624 179.15529Q51.409374 179.73341 50.6125 179.73341Q49.846874 179.73341 49.315624 179.15529Q48.8 178.57716 48.8 177.40529ZM50.64375 175.92091Q50.2375 175.92091 49.971874 176.26466Q49.721874 176.60841 49.721874 177.51466Q49.721874 178.32716 49.9875 178.67091Q50.253124 179.01466 50.64375 179.01466Q51.034374 179.01466 51.3 178.67091Q51.565624 178.32716 51.565624 177.42091Q51.565624 176.59279 51.3 176.26466Q51.034374 175.92091 50.64375 175.92091Z" fill-rule="nonzero"/><path stroke="#757575" stroke-width="1.0" stroke-linecap="butt" d="M18.55 166.92091L145.23334 166.92091L163.48732 166.92091" fill-rule="nonzero"/><path fill="#9e9e9e" d="M165.48732 166.92091C165.48732 165.81635 164.59189 164.92091 163.48732 164.92091C162.38274 164.92091 161.48732 165.81635 161.48732 166.92091C161.48732 168.02548 162.38274 168.92091 163.48732 168.92091C164.59189 168.92091 165.48732 168.02548 165.48732 166.92091" fill-rule="nonzero"/><path fill="#1a1a1a" d="M19.471874 286.1093L19.471874 277.51556L22.721874 277.51556Q23.565624 277.51556 24.01875 277.5937Q24.659374 277.70306 25.08125 277.99994Q25.51875 278.2968 25.76875 278.82806Q26.034374 279.3593 26.034374 279.99994Q26.034374 281.0937 25.33125 281.8593Q24.64375 282.6093 22.815624 282.6093L20.6125 282.6093L20.6125 286.1093L19.471874 286.1093ZM20.6125 281.6093L22.83125 281.6093Q23.940624 281.6093 24.39375 281.20306Q24.8625 280.7812 24.8625 280.0312Q24.8625 279.49994 24.58125 279.12494Q24.315624 278.7343 23.878124 278.6093Q23.58125 278.5312 22.815624 278.5312L20.6125 278.5312L20.6125 281.6093ZM27.33125 286.1093L27.33125 279.89056L28.284374 279.89056L28.284374 280.82806Q28.64375 280.1718 28.940624 279.9687Q29.253124 279.74994 29.628124 279.74994Q30.159374 279.74994 30.70625 280.07806L30.346874 281.06244Q29.95625 280.82806 29.58125 280.82806Q29.221874 280.82806 28.940624 281.0468Q28.675 281.24994 28.565624 281.62494Q28.378124 282.18744 28.378124 282.8437L28.378124 286.1093L27.33125 286.1093ZM30.95625 282.99994Q30.95625 281.26556 31.909374 280.43744Q32.70625 279.74994 33.8625 279.74994Q35.14375 279.74994 35.95625 280.5937Q36.784374 281.4218 36.784374 282.9062Q36.784374 284.1093 36.425 284.7968Q36.065624 285.4843 35.3625 285.87494Q34.675 286.24994 33.8625 286.24994Q32.565624 286.24994 31.753124 285.4218Q30.95625 284.57806 30.95625 282.99994ZM32.034374 282.99994Q32.034374 284.18744 32.55 284.7812Q33.08125 285.37494 33.8625 285.37494Q34.659374 285.37494 35.175 284.7812Q35.690624 284.18744 35.690624 282.9687Q35.690624 281.81244 35.159374 281.2187Q34.64375 280.62494 33.8625 280.62494Q33.08125 280.62494 32.55 281.2187Q32.034374 281.7968 32.034374 282.99994ZM38.14375 286.62494L39.175 286.7812Q39.2375 287.24994 39.534374 287.4687Q39.925 287.76556 40.596874 287.76556Q41.33125 287.76556 41.721874 287.4687Q42.128124 287.1718 42.26875 286.6562Q42.3625 286.32806 42.346874 285.2968Q41.659374 286.1093 40.628124 286.1093Q39.346874 286.1093 38.64375 285.18744Q37.940624 284.24994 37.940624 282.9687Q37.940624 282.07806 38.253124 281.32806Q38.58125 280.56244 39.190624 280.1562Q39.8 279.74994 40.628124 279.74994Q41.7375 279.74994 42.45625 280.64056L42.45625 279.89056L43.425 279.89056L43.425 285.26556Q43.425 286.7187 43.128124 287.32806Q42.83125 287.93744 42.190624 288.2812Q41.55 288.64056 40.6125 288.64056Q39.503124 288.64056 38.815624 288.14056Q38.128124 287.64056 38.14375 286.62494ZM39.01875 282.89056Q39.01875 284.1093 39.503124 284.6718Q39.9875 285.2343 40.721874 285.2343Q41.45625 285.2343 41.940624 284.6718Q42.440624 284.1093 42.440624 282.9218Q42.440624 281.7812 41.925 281.20306Q41.425 280.62494 40.70625 280.62494Q40.003124 280.62494 39.503124 281.20306Q39.01875 281.76556 39.01875 282.89056ZM45.33125 286.1093L45.33125 279.89056L46.284374 279.89056L46.284374 280.82806Q46.64375 280.1718 46.940624 279.9687Q47.253124 279.74994 47.628124 279.74994Q48.159374 279.74994 48.70625 280.07806L48.346874 281.06244Q47.95625 280.82806 47.58125 280.82806Q47.221874 280.82806 46.940624 281.0468Q46.675 281.24994 46.565624 281.62494Q46.378124 282.18744 46.378124 282.8437L46.378124 286.1093L45.33125 286.1093ZM53.409374 285.3437Q52.815624 285.8437 52.26875 286.0468Q51.7375 286.24994 51.1125 286.24994Q50.08125 286.24994 49.534374 285.74994Q48.9875 285.24994 48.9875 284.4687Q48.9875 284.01556 49.190624 283.64056Q49.39375 283.24994 49.7375 283.0312Q50.08125 282.7968 50.503124 282.68744Q50.8 282.5937 51.440624 282.51556Q52.70625 282.37494 53.315624 282.1562Q53.315624 281.93744 53.315624 281.89056Q53.315624 281.2343 53.01875 280.9687Q52.6125 280.62494 51.815624 280.62494Q51.08125 280.62494 50.721874 280.89056Q50.3625 281.14056 50.190624 281.7968L49.159374 281.6562Q49.3 280.99994 49.628124 280.5937Q49.95625 280.18744 50.565624 279.9687Q51.175 279.74994 51.971874 279.74994Q52.76875 279.74994 53.26875 279.93744Q53.76875 280.12494 54.003124 280.4062Q54.2375 280.68744 54.33125 281.12494Q54.378124 281.39056 54.378124 282.0937L54.378124 283.49994Q54.378124 284.9687 54.440624 285.3593Q54.51875 285.74994 54.721874 286.1093L53.6125 286.1093Q53.45625 285.7812 53.409374 285.3437ZM53.315624 282.9843Q52.7375 283.2187 51.596874 283.39056Q50.940624 283.4843 50.675 283.6093Q50.409374 283.7187 50.253124 283.93744Q50.1125 284.1562 50.1125 284.43744Q50.1125 284.8593 50.425 285.14056Q50.753124 285.4218 51.3625 285.4218Q51.971874 285.4218 52.440624 285.1562Q52.925 284.89056 53.14375 284.4218Q53.315624 284.06244 53.315624 283.37494L53.315624 282.9843ZM56.346874 286.1093L56.346874 279.89056L57.284374 279.89056L57.284374 280.76556Q57.58125 280.2968 58.065624 280.0312Q58.55 279.74994 59.175 279.74994Q59.8625 279.74994 60.3 280.0312Q60.753124 280.31244 60.925 280.82806Q61.675 279.74994 62.846874 279.74994Q63.784374 279.74994 64.26875 280.26556Q64.76875 280.76556 64.76875 281.8437L64.76875 286.1093L63.721874 286.1093L63.721874 282.18744Q63.721874 281.56244 63.6125 281.2812Q63.51875 280.99994 63.253124 280.82806Q62.9875 280.6562 62.6125 280.6562Q61.95625 280.6562 61.51875 281.0937Q61.096874 281.5312 61.096874 282.49994L61.096874 286.1093L60.034374 286.1093L60.034374 282.06244Q60.034374 281.3593 59.76875 281.01556Q59.51875 280.6562 58.940624 280.6562Q58.4875 280.6562 58.1125 280.89056Q57.7375 281.12494 57.565624 281.57806Q57.39375 282.0312 57.39375 282.87494L57.39375 286.1093L56.346874 286.1093ZM67.34688 286.1093L67.34688 279.89056L68.28438 279.89056L68.28438 280.76556Q68.58125 280.2968 69.06563 280.0312Q69.55 279.74994 70.175 279.74994Q70.8625 279.74994 71.3 280.0312Q71.75313 280.31244 71.925 280.82806Q72.675 279.74994 73.84688 279.74994Q74.78438 279.74994 75.26875 280.26556Q75.76875 280.76556 75.76875 281.8437L75.76875 286.1093L74.72188 286.1093L74.72188 282.18744Q74.72188 281.56244 74.6125 281.2812Q74.51875 280.99994 74.25313 280.82806Q73.9875 280.6562 73.6125 280.6562Q72.95625 280.6562 72.51875 281.0937Q72.09688 281.5312 72.09688 282.49994L72.09688 286.1093L71.03438 286.1093L71.03438 282.06244Q71.03438 281.3593 70.76875 281.01556Q70.51875 280.6562 69.94063 280.6562Q69.4875 280.6562 69.1125 280.89056Q68.7375 281.12494 68.56563 281.57806Q68.39375 282.0312 68.39375 282.87494L68.39375 286.1093L67.34688 286.1093ZM82.40938 285.3437Q81.81563 285.8437 81.26875 286.0468Q80.7375 286.24994 80.1125 286.24994Q79.08125 286.24994 78.53438 285.74994Q77.9875 285.24994 77.9875 284.4687Q77.9875 284.01556 78.19063 283.64056Q78.39375 283.24994 78.7375 283.0312Q79.08125 282.7968 79.50313 282.68744Q79.8 282.5937 80.44063 282.51556Q81.70625 282.37494 82.31563 282.1562Q82.31563 281.93744 82.31563 281.89056Q82.31563 281.2343 82.01875 280.9687Q81.6125 280.62494 80.81563 280.62494Q80.08125 280.62494 79.72188 280.89056Q79.3625 281.14056 79.19063 281.7968L78.15938 281.6562Q78.3 280.99994 78.62813 280.5937Q78.95625 280.18744 79.56563 279.9687Q80.175 279.74994 80.97188 279.74994Q81.76875 279.74994 82.26875 279.93744Q82.76875 280.12494 83.00313 280.4062Q83.2375 280.68744 83.33125 281.12494Q83.37813 281.39056 83.37813 282.0937L83.37813 283.49994Q83.37813 284.9687 83.44063 285.3593Q83.51875 285.74994 83.72188 286.1093L82.6125 286.1093Q82.45625 285.7812 82.40938 285.3437ZM82.31563 282.9843Q81.7375 283.2187 80.59688 283.39056Q79.94063 283.4843 79.675 283.6093Q79.40938 283.7187 79.25313 283.93744Q79.1125 284.1562 79.1125 284.43744Q79.1125 284.8593 79.425 285.14056Q79.75313 285.4218 80.3625 285.4218Q80.97188 285.4218 81.44063 285.1562Q81.925 284.89056 82.14375 284.4218Q82.31563 284.06244 82.31563 283.37494L82.31563 282.9843ZM87.64375 285.1718L87.8 286.0937Q87.34688 286.18744 87.00313 286.18744Q86.425 286.18744 86.1125 286.01556Q85.8 285.82806 85.65938 285.5312Q85.53438 285.2343 85.53438 284.2812L85.53438 280.70306L84.76875 280.70306L84.76875 279.89056L85.53438 279.89056L85.53438 278.3437L86.58125 277.7187L86.58125 279.89056L87.64375 279.89056L87.64375 280.70306L86.58125 280.70306L86.58125 284.3437Q86.58125 284.7968 86.62813 284.9218Q86.69063 285.0468 86.81563 285.12494Q86.94063 285.20306 87.175 285.20306Q87.3625 285.20306 87.64375 285.1718ZM87.95625 282.99994Q87.95625 281.26556 88.90938 280.43744Q89.70625 279.74994 90.8625 279.74994Q92.14375 279.74994 92.95625 280.5937Q93.78438 281.4218 93.78438 282.9062Q93.78438 284.1093 93.425 284.7968Q93.06563 285.4843 92.3625 285.87494Q91.675 286.24994 90.8625 286.24994Q89.56563 286.24994 88.75313 285.4218Q87.95625 284.57806 87.95625 282.99994ZM89.03438 282.99994Q89.03438 284.18744 89.55 284.7812Q90.08125 285.37494 90.8625 285.37494Q91.65938 285.37494 92.175 284.7812Q92.69063 284.18744 92.69063 282.9687Q92.69063 281.81244 92.15938 281.2187Q91.64375 280.62494 90.8625 280.62494Q90.08125 280.62494 89.55 281.2187Q89.03438 281.7968 89.03438 282.99994ZM95.33125 286.1093L95.33125 279.89056L96.28438 279.89056L96.28438 280.82806Q96.64375 280.1718 96.94063 279.9687Q97.25313 279.74994 97.62813 279.74994Q98.15938 279.74994 98.70625 280.07806L98.34688 281.06244Q97.95625 280.82806 97.58125 280.82806Q97.22188 280.82806 96.94063 281.0468Q96.675 281.24994 96.56563 281.62494Q96.37813 282.18744 96.37813 282.8437L96.37813 286.1093L95.33125 286.1093ZM103.59688 284.1093L104.69063 284.2343Q104.44063 285.18744 103.7375 285.7187Q103.03438 286.24994 101.95625 286.24994Q100.59688 286.24994 99.78438 285.4062Q98.9875 284.56244 98.9875 283.0468Q98.9875 281.4843 99.8 280.62494Q100.6125 279.74994 101.89375 279.74994Q103.14375 279.74994 103.925 280.5937Q104.72188 281.43744 104.72188 282.9843Q104.72188 283.07806 104.72188 283.26556L100.08125 283.26556Q100.14375 284.2968 100.65938 284.8437Q101.175 285.37494 101.95625 285.37494Q102.53438 285.37494 102.94063 285.07806Q103.3625 284.76556 103.59688 284.1093ZM100.14375 282.4062L103.6125 282.4062Q103.55 281.6093 103.22188 281.2187Q102.70625 280.6093 101.90938 280.6093Q101.175 280.6093 100.675 281.0937Q100.19063 281.57806 100.14375 282.4062Z" fill-rule="nonzero"/><path fill="#9e9e9e" d="M23.01875 303.1093L21.971874 303.1093L21.971874 296.39056Q21.58125 296.74994 20.95625 297.12494Q20.346874 297.4843 19.8625 297.6562L19.8625 296.64056Q20.7375 296.2187 21.39375 295.64056Q22.065624 295.0468 22.346874 294.4843L23.01875 294.4843L23.01875 303.1093ZM31.596874 302.0937L31.596874 303.1093L25.909374 303.1093Q25.909374 302.7343 26.034374 302.37494Q26.253124 301.7968 26.721874 301.2343Q27.20625 300.6718 28.1125 299.93744Q29.51875 298.7812 30.003124 298.1093Q30.503124 297.43744 30.503124 296.8437Q30.503124 296.2187 30.05 295.7968Q29.596874 295.3593 28.878124 295.3593Q28.1125 295.3593 27.659374 295.81244Q27.20625 296.26556 27.190624 297.07806L26.1125 296.9687Q26.221874 295.74994 26.940624 295.12494Q27.675 294.4843 28.909374 294.4843Q30.14375 294.4843 30.8625 295.1718Q31.58125 295.8593 31.58125 296.87494Q31.58125 297.39056 31.3625 297.89056Q31.159374 298.37494 30.659374 298.93744Q30.175 299.4843 29.05 300.43744Q28.096874 301.2343 27.815624 301.5312Q27.55 301.81244 27.378124 302.0937L31.596874 302.0937ZM33.6125 303.1093L33.6125 301.9062L34.815624 301.9062L34.815624 303.1093Q34.815624 303.76556 34.58125 304.1718Q34.346874 304.5937 33.846874 304.81244L33.55 304.3593Q33.878124 304.2187 34.034374 303.9218Q34.190624 303.64056 34.221874 303.1093L33.6125 303.1093ZM36.05 300.8593L37.159374 300.76556Q37.284374 301.57806 37.721874 301.9843Q38.175 302.39056 38.815624 302.39056Q39.565624 302.39056 40.096874 301.81244Q40.628124 301.2343 40.628124 300.2968Q40.628124 299.39056 40.1125 298.87494Q39.6125 298.3437 38.784374 298.3437Q38.284374 298.3437 37.8625 298.57806Q37.45625 298.81244 37.221874 299.1718L36.2375 299.0468L37.065624 294.64056L41.346874 294.64056L41.346874 295.64056L37.909374 295.64056L37.45625 297.95306Q38.221874 297.4062 39.065624 297.4062Q40.190624 297.4062 40.95625 298.18744Q41.7375 298.9687 41.7375 300.20306Q41.7375 301.3593 41.065624 302.2187Q40.2375 303.24994 38.815624 303.24994Q37.64375 303.24994 36.89375 302.5937Q36.159374 301.93744 36.05 300.8593ZM43.253124 296.57806Q43.253124 295.6562 43.70625 295.01556Q44.175 294.37494 45.05 294.37494Q45.8625 294.37494 46.39375 294.95306Q46.925 295.5312 46.925 296.64056Q46.925 297.7343 46.378124 298.32806Q45.846874 298.9062 45.065624 298.9062Q44.284374 298.9062 43.76875 298.32806Q43.253124 297.74994 43.253124 296.57806ZM45.08125 295.0937Q44.690624 295.0937 44.425 295.43744Q44.175 295.7812 44.175 296.68744Q44.175 297.51556 44.425 297.8593Q44.690624 298.18744 45.08125 298.18744Q45.4875 298.18744 45.7375 297.8437Q46.003124 297.49994 46.003124 296.6093Q46.003124 295.76556 45.7375 295.43744Q45.471874 295.0937 45.08125 295.0937ZM45.08125 303.4218L49.784374 294.37494L50.64375 294.37494L45.95625 303.4218L45.08125 303.4218ZM48.8 301.0937Q48.8 300.1718 49.253124 299.5312Q49.721874 298.89056 50.6125 298.89056Q51.425 298.89056 51.95625 299.4687Q52.4875 300.0312 52.4875 301.1562Q52.4875 302.24994 51.940624 302.8437Q51.409374 303.4218 50.6125 303.4218Q49.846874 303.4218 49.315624 302.8437Q48.8 302.26556 48.8 301.0937ZM50.64375 299.6093Q50.2375 299.6093 49.971874 299.95306Q49.721874 300.2968 49.721874 301.20306Q49.721874 302.01556 49.9875 302.3593Q50.253124 302.70306 50.64375 302.70306Q51.034374 302.70306 51.3 302.3593Q51.565624 302.01556 51.565624 301.1093Q51.565624 300.2812 51.3 299.95306Q51.034374 299.6093 50.64375 299.6093Z" fill-rule="nonzero"/><path stroke="#757575" stroke-width="1.0" stroke-linecap="butt" d="M18.55 290.6093L145.23334 290.6093L281.55295 290.6093" fill-rule="nonzero"/><path fill="#9e9e9e" d="M283.55295 290.6093C283.55295 289.50473 282.65753 288.6093 281.55295 288.6093C280.4484 288.6093 279.55295 289.50473 279.55295 290.6093C279.55295 291.71387 280.4484 292.6093 281.55295 292.6093C282.65753 292.6093 283.55295 291.71387 283.55295 290.6093" fill-rule="nonzero"/><path fill="#1a1a1a" d="M504.3875 93.35589L504.3875 84.76214L508.2 84.76214Q509.35626 84.76214 509.95 84.99651Q510.54376 85.23089 510.90314 85.82464Q511.2625 86.40276 511.2625 87.10589Q511.2625 88.02776 510.66876 88.65276Q510.075 89.27776 508.84064 89.44964Q509.29376 89.66839 509.52814 89.87151Q510.02814 90.32464 510.46564 91.01214L511.96564 93.35589L510.52814 93.35589L509.40314 91.57464Q508.90314 90.79339 508.575 90.38714Q508.2625 89.98089 507.9969 89.82464Q507.7469 89.65276 507.48126 89.57464Q507.29376 89.54339 506.85626 89.54339L505.52814 89.54339L505.52814 93.35589L504.3875 93.35589ZM505.52814 88.55901L507.98126 88.55901Q508.7469 88.55901 509.1844 88.40276Q509.6375 88.23089 509.85626 87.88714Q510.09064 87.52776 510.09064 87.10589Q510.09064 86.49651 509.6375 86.10589Q509.2 85.71526 508.2469 85.71526L505.52814 85.71526L505.52814 88.55901ZM517.4969 91.35589L518.59064 91.48089Q518.34064 92.43401 517.6375 92.96526Q516.9344 93.49651 515.85626 93.49651Q514.4969 93.49651 513.6844 92.65276Q512.8875 91.80901 512.8875 90.29339Q512.8875 88.73089 513.7 87.87151Q514.5125 86.99651 515.79376 86.99651Q517.04376 86.99651 517.825 87.84026Q518.6219 88.68401 518.6219 90.23089Q518.6219 90.32464 518.6219 90.51214L513.98126 90.51214Q514.04376 91.54339 514.5594 92.09026Q515.075 92.62151 515.85626 92.62151Q516.4344 92.62151 516.84064 92.32464Q517.2625 92.01214 517.4969 91.35589ZM514.04376 89.65276L517.5125 89.65276Q517.45 88.85589 517.1219 88.46526Q516.60626 87.85589 515.8094 87.85589Q515.075 87.85589 514.575 88.34026Q514.09064 88.82464 514.04376 89.65276ZM519.825 91.49651L520.85626 91.34026Q520.95 91.96526 521.34064 92.29339Q521.7469 92.62151 522.48126 92.62151Q523.2 92.62151 523.54376 92.34026Q523.90314 92.04339 523.90314 91.63714Q523.90314 91.27776 523.59064 91.07464Q523.3719 90.93401 522.5125 90.71526Q521.35626 90.41839 520.90314 90.21526Q520.46564 89.99651 520.23126 89.62151Q519.9969 89.24651 519.9969 88.77776Q519.9969 88.37151 520.1844 88.01214Q520.3719 87.65276 520.7 87.41839Q520.95 87.24651 521.3719 87.12151Q521.79376 86.99651 522.29376 86.99651Q523.0125 86.99651 523.5594 87.21526Q524.1219 87.41839 524.3875 87.77776Q524.65314 88.13714 524.7469 88.73089L523.71564 88.87151Q523.65314 88.40276 523.3094 88.13714Q522.98126 87.85589 522.35626 87.85589Q521.6375 87.85589 521.325 88.10589Q521.0125 88.34026 521.0125 88.66839Q521.0125 88.87151 521.1375 89.02776Q521.27814 89.19964 521.54376 89.30901Q521.7 89.37151 522.48126 89.57464Q523.60626 89.88714 524.04376 90.07464Q524.48126 90.26214 524.73126 90.62151Q524.98126 90.98089 524.98126 91.52776Q524.98126 92.05901 524.66876 92.52776Q524.3719 92.98089 523.79376 93.24651Q523.21564 93.49651 522.48126 93.49651Q521.2625 93.49651 520.6219 92.99651Q519.9969 92.48089 519.825 91.49651ZM527.2469 95.74651L527.2469 87.13714L528.2 87.13714L528.2 87.93401Q528.54376 87.46526 528.96564 87.23089Q529.40314 86.99651 530.0125 86.99651Q530.8094 86.99651 531.41876 87.40276Q532.02814 87.80901 532.325 88.55901Q532.6375 89.30901 532.6375 90.19964Q532.6375 91.15276 532.29376 91.91839Q531.96564 92.68401 531.3094 93.09026Q530.65314 93.49651 529.9344 93.49651Q529.40314 93.49651 528.98126 93.27776Q528.5594 93.04339 528.29376 92.71526L528.29376 95.74651L527.2469 95.74651ZM528.2 90.27776Q528.2 91.48089 528.6844 92.05901Q529.16876 92.62151 529.85626 92.62151Q530.5594 92.62151 531.0594 92.02776Q531.5594 91.43401 531.5594 90.18401Q531.5594 88.99651 531.075 88.41839Q530.59064 87.82464 529.90314 87.82464Q529.23126 87.82464 528.71564 88.44964Q528.2 89.07464 528.2 90.27776ZM533.85626 90.24651Q533.85626 88.51214 534.8094 87.68401Q535.60626 86.99651 536.7625 86.99651Q538.04376 86.99651 538.85626 87.84026Q539.6844 88.66839 539.6844 90.15276Q539.6844 91.35589 539.325 92.04339Q538.96564 92.73089 538.2625 93.12151Q537.575 93.49651 536.7625 93.49651Q535.46564 93.49651 534.65314 92.66839Q533.85626 91.82464 533.85626 90.24651ZM534.9344 90.24651Q534.9344 91.43401 535.45 92.02776Q535.98126 92.62151 536.7625 92.62151Q537.5594 92.62151 538.075 92.02776Q538.59064 91.43401 538.59064 90.21526Q538.59064 89.05901 538.0594 88.46526Q537.54376 87.87151 536.7625 87.87151Q535.98126 87.87151 535.45 88.46526Q534.9344 89.04339 534.9344 90.24651ZM541.2469 93.35589L541.2469 87.13714L542.1844 87.13714L542.1844 88.01214Q542.8719 86.99651 544.16876 86.99651Q544.73126 86.99651 545.2 87.19964Q545.6844 87.40276 545.91876 87.73089Q546.15314 88.05901 546.2469 88.49651Q546.29376 88.79339 546.29376 89.52776L546.29376 93.35589L545.2469 93.35589L545.2469 89.57464Q545.2469 88.91839 545.1219 88.60589Q544.9969 88.29339 544.6844 88.10589Q544.3719 87.90276 543.95 87.90276Q543.27814 87.90276 542.77814 88.34026Q542.29376 88.76214 542.29376 89.94964L542.29376 93.35589L541.2469 93.35589ZM547.825 91.49651L548.85626 91.34026Q548.95 91.96526 549.34064 92.29339Q549.7469 92.62151 550.48126 92.62151Q551.2 92.62151 551.54376 92.34026Q551.90314 92.04339 551.90314 91.63714Q551.90314 91.27776 551.59064 91.07464Q551.3719 90.93401 550.5125 90.71526Q549.35626 90.41839 548.90314 90.21526Q548.46564 89.99651 548.23126 89.62151Q547.9969 89.24651 547.9969 88.77776Q547.9969 88.37151 548.1844 88.01214Q548.3719 87.65276 548.7 87.41839Q548.95 87.24651 549.3719 87.12151Q549.79376 86.99651 550.29376 86.99651Q551.0125 86.99651 551.5594 87.21526Q552.1219 87.41839 552.3875 87.77776Q552.65314 88.13714 552.7469 88.73089L551.71564 88.87151Q551.65314 88.40276 551.3094 88.13714Q550.98126 87.85589 550.35626 87.85589Q549.6375 87.85589 549.325 88.10589Q549.0125 88.34026 549.0125 88.66839Q549.0125 88.87151 549.1375 89.02776Q549.27814 89.19964 549.54376 89.30901Q549.7 89.37151 550.48126 89.57464Q551.60626 89.88714 552.04376 90.07464Q552.48126 90.26214 552.73126 90.62151Q552.98126 90.98089 552.98126 91.52776Q552.98126 92.05901 552.66876 92.52776Q552.3719 92.98089 551.79376 93.24651Q551.21564 93.49651 550.48126 93.49651Q549.2625 93.49651 548.6219 92.99651Q547.9969 92.48089 547.825 91.49651ZM559.3094 92.59026Q558.71564 93.09026 558.16876 93.29339Q557.6375 93.49651 557.0125 93.49651Q555.98126 93.49651 555.4344 92.99651Q554.8875 92.49651 554.8875 91.71526Q554.8875 91.26214 555.09064 90.88714Q555.29376 90.49651 555.6375 90.27776Q555.98126 90.04339 556.40314 89.93401Q556.7 89.84026 557.34064 89.76214Q558.60626 89.62151 559.21564 89.40276Q559.21564 89.18401 559.21564 89.13714Q559.21564 88.48089 558.91876 88.21526Q558.5125 87.87151 557.71564 87.87151Q556.98126 87.87151 556.6219 88.13714Q556.2625 88.38714 556.09064 89.04339L555.0594 88.90276Q555.2 88.24651 555.52814 87.84026Q555.85626 87.43401 556.46564 87.21526Q557.075 86.99651 557.8719 86.99651Q558.66876 86.99651 559.16876 87.18401Q559.66876 87.37151 559.90314 87.65276Q560.1375 87.93401 560.23126 88.37151Q560.27814 88.63714 560.27814 89.34026L560.27814 90.74651Q560.27814 92.21526 560.34064 92.60589Q560.41876 92.99651 560.6219 93.35589L559.5125 93.35589Q559.35626 93.02776 559.3094 92.59026ZM559.21564 90.23089Q558.6375 90.46526 557.4969 90.63714Q556.84064 90.73089 556.575 90.85589Q556.3094 90.96526 556.15314 91.18401Q556.0125 91.40276 556.0125 91.68401Q556.0125 92.10589 556.325 92.38714Q556.65314 92.66839 557.2625 92.66839Q557.8719 92.66839 558.34064 92.40276Q558.825 92.13714 559.04376 91.66839Q559.21564 91.30901 559.21564 90.62151L559.21564 90.23089ZM563.21564 93.35589L562.23126 93.35589L562.23126 84.76214L563.29376 84.76214L563.29376 87.82464Q563.96564 86.99651 564.9969 86.99651Q565.575 86.99651 566.075 87.23089Q566.59064 87.44964 566.91876 87.87151Q567.2625 88.29339 567.45 88.88714Q567.6375 89.48089 567.6375 90.15276Q567.6375 91.74651 566.84064 92.62151Q566.04376 93.49651 564.95 93.49651Q563.84064 93.49651 563.21564 92.57464L563.21564 93.35589ZM563.2 90.19964Q563.2 91.30901 563.5125 91.80901Q564.0125 92.62151 564.85626 92.62151Q565.54376 92.62151 566.04376 92.02776Q566.5594 91.43401 566.5594 90.23089Q566.5594 89.01214 566.075 88.43401Q565.59064 87.85589 564.90314 87.85589Q564.21564 87.85589 563.7 88.46526Q563.2 89.05901 563.2 90.19964ZM569.2469 85.98089L569.2469 84.76214L570.3094 84.76214L570.3094 85.98089L569.2469 85.98089ZM569.2469 93.35589L569.2469 87.13714L570.3094 87.13714L570.3094 93.35589L569.2469 93.35589ZM572.21564 93.35589L572.21564 84.76214L573.27814 84.76214L573.27814 93.35589L572.21564 93.35589ZM579.4969 91.35589L580.59064 91.48089Q580.34064 92.43401 579.6375 92.96526Q578.9344 93.49651 577.85626 93.49651Q576.4969 93.49651 575.6844 92.65276Q574.8875 91.80901 574.8875 90.29339Q574.8875 88.73089 575.7 87.87151Q576.5125 86.99651 577.79376 86.99651Q579.04376 86.99651 579.825 87.84026Q580.6219 88.68401 580.6219 90.23089Q580.6219 90.32464 580.6219 90.51214L575.98126 90.51214Q576.04376 91.54339 576.5594 92.09026Q577.075 92.62151 577.85626 92.62151Q578.4344 92.62151 578.84064 92.32464Q579.2625 92.01214 579.4969 91.35589ZM576.04376 89.65276L579.5125 89.65276Q579.45 88.85589 579.1219 88.46526Q578.60626 87.85589 577.8094 87.85589Q577.075 87.85589 576.575 88.34026Q576.09064 88.82464 576.04376 89.65276Z" fill-rule="nonzero"/><path fill="#9e9e9e" d="M554.10626 108.37151L555.1219 108.27776Q555.2469 108.99651 555.60626 109.32464Q555.98126 109.63714 556.54376 109.63714Q557.02814 109.63714 557.3875 109.41839Q557.7625 109.18401 557.9969 108.82464Q558.23126 108.44964 558.3875 107.82464Q558.54376 107.18401 558.54376 106.52776Q558.54376 106.44964 558.54376 106.30901Q558.23126 106.80901 557.6844 107.13714Q557.1375 107.44964 556.4969 107.44964Q555.41876 107.44964 554.6844 106.68401Q553.95 105.90276 553.95 104.63714Q553.95 103.32464 554.71564 102.52776Q555.4969 101.73089 556.65314 101.73089Q557.48126 101.73089 558.16876 102.18401Q558.8719 102.63714 559.23126 103.48089Q559.59064 104.30901 559.59064 105.88714Q559.59064 107.52776 559.23126 108.51214Q558.8875 109.48089 558.16876 109.99651Q557.46564 110.49651 556.52814 110.49651Q555.5125 110.49651 554.8719 109.94964Q554.23126 109.38714 554.10626 108.37151ZM558.41876 104.57464Q558.41876 103.66839 557.9344 103.13714Q557.46564 102.60589 556.77814 102.60589Q556.075 102.60589 555.54376 103.18401Q555.02814 103.74651 555.02814 104.66839Q555.02814 105.48089 555.52814 105.99651Q556.02814 106.51214 556.7469 106.51214Q557.48126 106.51214 557.95 105.99651Q558.41876 105.48089 558.41876 104.57464ZM561.5125 110.35589L561.5125 109.15276L562.71564 109.15276L562.71564 110.35589Q562.71564 111.01214 562.48126 111.41839Q562.2469 111.84026 561.7469 112.05901L561.45 111.60589Q561.77814 111.46526 561.9344 111.16839Q562.09064 110.88714 562.1219 110.35589L561.5125 110.35589ZM567.325 110.35589L567.325 108.29339L563.60626 108.29339L563.60626 107.32464L567.52814 101.76214L568.3875 101.76214L568.3875 107.32464L569.54376 107.32464L569.54376 108.29339L568.3875 108.29339L568.3875 110.35589L567.325 110.35589ZM567.325 107.32464L567.325 103.46526L564.6375 107.32464L567.325 107.32464ZM571.15314 103.82464Q571.15314 102.90276 571.60626 102.26214Q572.075 101.62151 572.95 101.62151Q573.7625 101.62151 574.29376 102.19964Q574.825 102.77776 574.825 103.88714Q574.825 104.98089 574.27814 105.57464Q573.7469 106.15276 572.96564 106.15276Q572.1844 106.15276 571.66876 105.57464Q571.15314 104.99651 571.15314 103.82464ZM572.98126 102.34026Q572.59064 102.34026 572.325 102.68401Q572.075 103.02776 572.075 103.93401Q572.075 104.76214 572.325 105.10589Q572.59064 105.43401 572.98126 105.43401Q573.3875 105.43401 573.6375 105.09026Q573.90314 104.74651 573.90314 103.85589Q573.90314 103.01214 573.6375 102.68401Q573.3719 102.34026 572.98126 102.34026ZM572.98126 110.66839L577.6844 101.62151L578.54376 101.62151L573.85626 110.66839L572.98126 110.66839ZM576.7 108.34026Q576.7 107.41839 577.15314 106.77776Q577.6219 106.13714 578.5125 106.13714Q579.325 106.13714 579.85626 106.71526Q580.3875 107.27776 580.3875 108.40276Q580.3875 109.49651 579.84064 110.09026Q579.3094 110.66839 578.5125 110.66839Q577.7469 110.66839 577.21564 110.09026Q576.7 109.51214 576.7 108.34026ZM578.54376 106.85589Q578.1375 106.85589 577.8719 107.19964Q577.6219 107.54339 577.6219 108.44964Q577.6219 109.26214 577.8875 109.60589Q578.15314 109.94964 578.54376 109.94964Q578.9344 109.94964 579.2 109.60589Q579.46564 109.26214 579.46564 108.35589Q579.46564 107.52776 579.2 107.19964Q578.9344 106.85589 578.54376 106.85589Z" fill-rule="nonzero"/><path stroke="#757575" stroke-width="1.0" stroke-linecap="butt" d="M581.45 97.85589L454.76666 97.85589L341.02545 97.85589" fill-rule="nonzero"/><path fill="#9e9e9e" d="M343.02545 97.85589C343.02545 96.75131 342.13 95.85589 341.02545 95.85589C339.92087 95.85589 339.02545 96.75131 339.02545 97.85589C339.02545 98.96046 339.92087 99.85589 341.02545 99.85589C342.13 99.85589 343.02545 98.96046 343.02545 97.85589" fill-rule="nonzero"/><path fill="#1a1a1a" d="M497.4344 127.80117L500.73126 119.20742L501.95 119.20742L505.46564 127.80117L504.1844 127.80117L503.16876 125.191795L499.59064 125.191795L498.6375 127.80117L497.4344 127.80117ZM499.91876 124.26992L502.825 124.26992L501.9344 121.89492Q501.5125 120.816795 501.325 120.11367Q501.15314 120.941795 500.85626 121.754295L499.91876 124.26992ZM505.2469 127.80117L505.2469 121.58242L506.1844 121.58242L506.1844 122.45742Q506.48126 121.98867 506.96564 121.723045Q507.45 121.441795 508.075 121.441795Q508.7625 121.441795 509.2 121.723045Q509.65314 122.004295 509.825 122.51992Q510.575 121.441795 511.7469 121.441795Q512.6844 121.441795 513.16876 121.95742Q513.66876 122.45742 513.66876 123.535545L513.66876 127.80117L512.6219 127.80117L512.6219 123.879295Q512.6219 123.254295 512.5125 122.973045Q512.41876 122.691795 512.15314 122.51992Q511.8875 122.348045 511.5125 122.348045Q510.85626 122.348045 510.41876 122.785545Q509.9969 123.223045 509.9969 124.191795L509.9969 127.80117L508.9344 127.80117L508.9344 123.754295Q508.9344 123.05117 508.66876 122.70742Q508.41876 122.348045 507.84064 122.348045Q507.3875 122.348045 507.0125 122.58242Q506.6375 122.816795 506.46564 123.26992Q506.29376 123.723045 506.29376 124.566795L506.29376 127.80117L505.2469 127.80117ZM516.2469 127.80117L516.2469 121.58242L517.1844 121.58242L517.1844 122.45742Q517.48126 121.98867 517.96564 121.723045Q518.45 121.441795 519.075 121.441795Q519.7625 121.441795 520.2 121.723045Q520.65314 122.004295 520.825 122.51992Q521.575 121.441795 522.7469 121.441795Q523.6844 121.441795 524.16876 121.95742Q524.66876 122.45742 524.66876 123.535545L524.66876 127.80117L523.6219 127.80117L523.6219 123.879295Q523.6219 123.254295 523.5125 122.973045Q523.41876 122.691795 523.15314 122.51992Q522.8875 122.348045 522.5125 122.348045Q521.85626 122.348045 521.41876 122.785545Q520.9969 123.223045 520.9969 124.191795L520.9969 127.80117L519.9344 127.80117L519.9344 123.754295Q519.9344 123.05117 519.66876 122.70742Q519.41876 122.348045 518.84064 122.348045Q518.3875 122.348045 518.0125 122.58242Q517.6375 122.816795 517.46564 123.26992Q517.29376 123.723045 517.29376 124.566795L517.29376 127.80117L516.2469 127.80117ZM527.2469 120.42617L527.2469 119.20742L528.3094 119.20742L528.3094 120.42617L527.2469 120.42617ZM527.2469 127.80117L527.2469 121.58242L528.3094 121.58242L528.3094 127.80117L527.2469 127.80117ZM530.2469 127.80117L530.2469 121.58242L531.1844 121.58242L531.1844 122.45742Q531.8719 121.441795 533.16876 121.441795Q533.73126 121.441795 534.2 121.64492Q534.6844 121.848045 534.91876 122.17617Q535.15314 122.504295 535.2469 122.941795Q535.29376 123.23867 535.29376 123.973045L535.29376 127.80117L534.2469 127.80117L534.2469 124.01992Q534.2469 123.36367 534.1219 123.05117Q533.9969 122.73867 533.6844 122.55117Q533.3719 122.348045 532.95 122.348045Q532.27814 122.348045 531.77814 122.785545Q531.29376 123.20742 531.29376 124.39492L531.29376 127.80117L530.2469 127.80117ZM537.2469 120.42617L537.2469 119.20742L538.3094 119.20742L538.3094 120.42617L537.2469 120.42617ZM537.2469 127.80117L537.2469 121.58242L538.3094 121.58242L538.3094 127.80117L537.2469 127.80117ZM539.825 125.941795L540.85626 125.785545Q540.95 126.410545 541.34064 126.73867Q541.7469 127.066795 542.48126 127.066795Q543.2 127.066795 543.54376 126.785545Q543.90314 126.48867 543.90314 126.08242Q543.90314 125.723045 543.59064 125.51992Q543.3719 125.379295 542.5125 125.160545Q541.35626 124.86367 540.90314 124.660545Q540.46564 124.441795 540.23126 124.066795Q539.9969 123.691795 539.9969 123.223045Q539.9969 122.816795 540.1844 122.45742Q540.3719 122.098045 540.7 121.86367Q540.95 121.691795 541.3719 121.566795Q541.79376 121.441795 542.29376 121.441795Q543.0125 121.441795 543.5594 121.660545Q544.1219 121.86367 544.3875 122.223045Q544.65314 122.58242 544.7469 123.17617L543.71564 123.316795Q543.65314 122.848045 543.3094 122.58242Q542.98126 122.30117 542.35626 122.30117Q541.6375 122.30117 541.325 122.55117Q541.0125 122.785545 541.0125 123.11367Q541.0125 123.316795 541.1375 123.473045Q541.27814 123.64492 541.54376 123.754295Q541.7 123.816795 542.48126 124.01992Q543.60626 124.33242 544.04376 124.51992Q544.48126 124.70742 544.73126 125.066795Q544.98126 125.42617 544.98126 125.973045Q544.98126 126.504295 544.66876 126.973045Q544.3719 127.42617 543.79376 127.691795Q543.21564 127.941795 542.48126 127.941795Q541.2625 127.941795 540.6219 127.441795Q539.9969 126.92617 539.825 125.941795ZM549.54376 126.86367L549.7 127.785545Q549.2469 127.879295 548.90314 127.879295Q548.325 127.879295 548.0125 127.70742Q547.7 127.51992 547.5594 127.223045Q547.4344 126.92617 547.4344 125.973045L547.4344 122.39492L546.66876 122.39492L546.66876 121.58242L547.4344 121.58242L547.4344 120.035545L548.48126 119.410545L548.48126 121.58242L549.54376 121.58242L549.54376 122.39492L548.48126 122.39492L548.48126 126.035545Q548.48126 126.48867 548.52814 126.61367Q548.59064 126.73867 548.71564 126.816795Q548.84064 126.89492 549.075 126.89492Q549.2625 126.89492 549.54376 126.86367ZM550.23126 127.80117L550.23126 121.58242L551.1844 121.58242L551.1844 122.51992Q551.54376 121.86367 551.84064 121.660545Q552.15314 121.441795 552.52814 121.441795Q553.0594 121.441795 553.60626 121.76992L553.2469 122.754295Q552.85626 122.51992 552.48126 122.51992Q552.1219 122.51992 551.84064 122.73867Q551.575 122.941795 551.46564 123.316795Q551.27814 123.879295 551.27814 124.535545L551.27814 127.80117L550.23126 127.80117ZM558.3094 127.035545Q557.71564 127.535545 557.16876 127.73867Q556.6375 127.941795 556.0125 127.941795Q554.98126 127.941795 554.4344 127.441795Q553.8875 126.941795 553.8875 126.160545Q553.8875 125.70742 554.09064 125.33242Q554.29376 124.941795 554.6375 124.723045Q554.98126 124.48867 555.40314 124.379295Q555.7 124.285545 556.34064 124.20742Q557.60626 124.066795 558.21564 123.848045Q558.21564 123.629295 558.21564 123.58242Q558.21564 122.92617 557.91876 122.660545Q557.5125 122.316795 556.71564 122.316795Q555.98126 122.316795 555.6219 122.58242Q555.2625 122.83242 555.09064 123.48867L554.0594 123.348045Q554.2 122.691795 554.52814 122.285545Q554.85626 121.879295 555.46564 121.660545Q556.075 121.441795 556.8719 121.441795Q557.66876 121.441795 558.16876 121.629295Q558.66876 121.816795 558.90314 122.098045Q559.1375 122.379295 559.23126 122.816795Q559.27814 123.08242 559.27814 123.785545L559.27814 125.191795Q559.27814 126.660545 559.34064 127.05117Q559.41876 127.441795 559.6219 127.80117L558.5125 127.80117Q558.35626 127.473045 558.3094 127.035545ZM558.21564 124.67617Q557.6375 124.910545 556.4969 125.08242Q555.84064 125.17617 555.575 125.30117Q555.3094 125.410545 555.15314 125.629295Q555.0125 125.848045 555.0125 126.129295Q555.0125 126.55117 555.325 126.83242Q555.65314 127.11367 556.2625 127.11367Q556.8719 127.11367 557.34064 126.848045Q557.825 126.58242 558.04376 126.11367Q558.21564 125.754295 558.21564 125.066795L558.21564 124.67617ZM563.54376 126.86367L563.7 127.785545Q563.2469 127.879295 562.90314 127.879295Q562.325 127.879295 562.0125 127.70742Q561.7 127.51992 561.5594 127.223045Q561.4344 126.92617 561.4344 125.973045L561.4344 122.39492L560.66876 122.39492L560.66876 121.58242L561.4344 121.58242L561.4344 120.035545L562.48126 119.410545L562.48126 121.58242L563.54376 121.58242L563.54376 122.39492L562.48126 122.39492L562.48126 126.035545Q562.48126 126.48867 562.52814 126.61367Q562.59064 126.73867 562.71564 126.816795Q562.84064 126.89492 563.075 126.89492Q563.2625 126.89492 563.54376 126.86367ZM563.85626 124.691795Q563.85626 122.95742 564.8094 122.129295Q565.60626 121.441795 566.7625 121.441795Q568.04376 121.441795 568.85626 122.285545Q569.6844 123.11367 569.6844 124.598045Q569.6844 125.80117 569.325 126.48867Q568.96564 127.17617 568.2625 127.566795Q567.575 127.941795 566.7625 127.941795Q565.46564 127.941795 564.65314 127.11367Q563.85626 126.26992 563.85626 124.691795ZM564.9344 124.691795Q564.9344 125.879295 565.45 126.473045Q565.98126 127.066795 566.7625 127.066795Q567.5594 127.066795 568.075 126.473045Q568.59064 125.879295 568.59064 124.660545Q568.59064 123.504295 568.0594 122.910545Q567.54376 122.316795 566.7625 122.316795Q565.98126 122.316795 565.45 122.910545Q564.9344 123.48867 564.9344 124.691795ZM571.23126 127.80117L571.23126 121.58242L572.1844 121.58242L572.1844 122.51992Q572.54376 121.86367 572.84064 121.660545Q573.15314 121.441795 573.52814 121.441795Q574.0594 121.441795 574.60626 121.76992L574.2469 122.754295Q573.85626 122.51992 573.48126 122.51992Q573.1219 122.51992 572.84064 122.73867Q572.575 122.941795 572.46564 123.316795Q572.27814 123.879295 572.27814 124.535545L572.27814 127.80117L571.23126 127.80117ZM579.4969 125.80117L580.59064 125.92617Q580.34064 126.879295 579.6375 127.410545Q578.9344 127.941795 577.85626 127.941795Q576.4969 127.941795 575.6844 127.098045Q574.8875 126.254295 574.8875 124.73867Q574.8875 123.17617 575.7 122.316795Q576.5125 121.441795 577.79376 121.441795Q579.04376 121.441795 579.825 122.285545Q580.6219 123.129295 580.6219 124.67617Q580.6219 124.76992 580.6219 124.95742L575.98126 124.95742Q576.04376 125.98867 576.5594 126.535545Q577.075 127.066795 577.85626 127.066795Q578.4344 127.066795 578.84064 126.76992Q579.2625 126.45742 579.4969 125.80117ZM576.04376 124.098045L579.5125 124.098045Q579.45 123.30117 579.1219 122.910545Q578.60626 122.30117 577.8094 122.30117Q577.075 122.30117 576.575 122.785545Q576.09064 123.26992 576.04376 124.098045Z" fill-rule="nonzero"/><path fill="#9e9e9e" d="M550.91876 144.80116L549.8719 144.80116L549.8719 138.08241Q549.48126 138.44179 548.85626 138.81679Q548.2469 139.17616 547.7625 139.34804L547.7625 138.33241Q548.6375 137.91054 549.29376 137.33241Q549.96564 136.73866 550.2469 136.17616L550.91876 136.17616L550.91876 144.80116ZM553.95 140.56679Q553.95 139.03554 554.2625 138.11366Q554.575 137.17616 555.1844 136.67616Q555.8094 136.17616 556.7469 136.17616Q557.4344 136.17616 557.95 136.45741Q558.48126 136.73866 558.825 137.26991Q559.16876 137.78554 559.35626 138.53554Q559.54376 139.28554 559.54376 140.56679Q559.54376 142.08241 559.23126 143.00429Q558.9344 143.92616 558.3094 144.44179Q557.7 144.94179 556.7469 144.94179Q555.5125 144.94179 554.79376 144.05116Q553.95 142.98866 553.95 140.56679ZM555.02814 140.56679Q555.02814 142.67616 555.52814 143.37929Q556.02814 144.08241 556.7469 144.08241Q557.48126 144.08241 557.96564 143.37929Q558.46564 142.67616 558.46564 140.56679Q558.46564 138.44179 557.96564 137.75429Q557.48126 137.05116 556.73126 137.05116Q556.0125 137.05116 555.575 137.66054Q555.02814 138.44179 555.02814 140.56679ZM561.5125 144.80116L561.5125 143.59804L562.71564 143.59804L562.71564 144.80116Q562.71564 145.45741 562.48126 145.86366Q562.2469 146.28554 561.7469 146.50429L561.45 146.05116Q561.77814 145.91054 561.9344 145.61366Q562.09064 145.33241 562.1219 144.80116L561.5125 144.80116ZM567.325 144.80116L567.325 142.73866L563.60626 142.73866L563.60626 141.76991L567.52814 136.20741L568.3875 136.20741L568.3875 141.76991L569.54376 141.76991L569.54376 142.73866L568.3875 142.73866L568.3875 144.80116L567.325 144.80116ZM567.325 141.76991L567.325 137.91054L564.6375 141.76991L567.325 141.76991ZM571.15314 138.26991Q571.15314 137.34804 571.60626 136.70741Q572.075 136.06679 572.95 136.06679Q573.7625 136.06679 574.29376 136.64491Q574.825 137.22304 574.825 138.33241Q574.825 139.42616 574.27814 140.01991Q573.7469 140.59804 572.96564 140.59804Q572.1844 140.59804 571.66876 140.01991Q571.15314 139.44179 571.15314 138.26991ZM572.98126 136.78554Q572.59064 136.78554 572.325 137.12929Q572.075 137.47304 572.075 138.37929Q572.075 139.20741 572.325 139.55116Q572.59064 139.87929 572.98126 139.87929Q573.3875 139.87929 573.6375 139.53554Q573.90314 139.19179 573.90314 138.30116Q573.90314 137.45741 573.6375 137.12929Q573.3719 136.78554 572.98126 136.78554ZM572.98126 145.11366L577.6844 136.06679L578.54376 136.06679L573.85626 145.11366L572.98126 145.11366ZM576.7 142.78554Q576.7 141.86366 577.15314 141.22304Q577.6219 140.58241 578.5125 140.58241Q579.325 140.58241 579.85626 141.16054Q580.3875 141.72304 580.3875 142.84804Q580.3875 143.94179 579.84064 144.53554Q579.3094 145.11366 578.5125 145.11366Q577.7469 145.11366 577.21564 144.53554Q576.7 143.95741 576.7 142.78554ZM578.54376 141.30116Q578.1375 141.30116 577.8719 141.64491Q577.6219 141.98866 577.6219 142.89491Q577.6219 143.70741 577.8875 144.05116Q578.15314 144.39491 578.54376 144.39491Q578.9344 144.39491 579.2 144.05116Q579.46564 143.70741 579.46564 142.80116Q579.46564 141.97304 579.2 141.64491Q578.9344 141.30116 578.54376 141.30116Z" fill-rule="nonzero"/><path stroke="#757575" stroke-width="1.0" stroke-linecap="butt" d="M581.45 132.30116L454.76666 132.30116L412.1233 132.30116" fill-rule="nonzero"/><path fill="#9e9e9e" d="M414.1233 132.30116C414.1233 131.1966 413.22787 130.30116 412.1233 130.30116C411.01874 130.30116 410.1233 131.1966 410.1233 132.30116C410.1233 133.40573 411.01874 134.30116 412.1233 134.30116C413.22787 134.30116 414.1233 133.40573 414.1233 132.30116" fill-rule="nonzero"/><path fill="#1a1a1a" d="M537.4344 175.1129L540.73126 166.51915L541.95 166.51915L545.46564 175.1129L544.1844 175.1129L543.16876 172.50352L539.59064 172.50352L538.6375 175.1129L537.4344 175.1129ZM539.91876 171.58165L542.825 171.58165L541.9344 169.20665Q541.5125 168.12852 541.325 167.4254Q541.15314 168.25352 540.85626 169.06602L539.91876 171.58165ZM545.2469 175.1129L545.2469 168.89415L546.1844 168.89415L546.1844 169.76915Q546.8719 168.75352 548.16876 168.75352Q548.73126 168.75352 549.2 168.95665Q549.6844 169.15977 549.91876 169.4879Q550.15314 169.81602 550.2469 170.25352Q550.29376 170.5504 550.29376 171.28477L550.29376 175.1129L549.2469 175.1129L549.2469 171.33165Q549.2469 170.6754 549.1219 170.3629Q548.9969 170.0504 548.6844 169.8629Q548.3719 169.65977 547.95 169.65977Q547.27814 169.65977 546.77814 170.09727Q546.29376 170.51915 546.29376 171.70665L546.29376 175.1129L545.2469 175.1129ZM556.3094 174.34727Q555.71564 174.84727 555.16876 175.0504Q554.6375 175.25352 554.0125 175.25352Q552.98126 175.25352 552.4344 174.75352Q551.8875 174.25352 551.8875 173.47227Q551.8875 173.01915 552.09064 172.64415Q552.29376 172.25352 552.6375 172.03477Q552.98126 171.8004 553.40314 171.69102Q553.7 171.59727 554.34064 171.51915Q555.60626 171.37852 556.21564 171.15977Q556.21564 170.94102 556.21564 170.89415Q556.21564 170.2379 555.91876 169.97227Q555.5125 169.62852 554.71564 169.62852Q553.98126 169.62852 553.6219 169.89415Q553.2625 170.14415 553.09064 170.8004L552.0594 170.65977Q552.2 170.00352 552.52814 169.59727Q552.85626 169.19102 553.46564 168.97227Q554.075 168.75352 554.8719 168.75352Q555.66876 168.75352 556.16876 168.94102Q556.66876 169.12852 556.90314 169.40977Q557.1375 169.69102 557.23126 170.12852Q557.27814 170.39415 557.27814 171.09727L557.27814 172.50352Q557.27814 173.97227 557.34064 174.3629Q557.41876 174.75352 557.6219 175.1129L556.5125 175.1129Q556.35626 174.78477 556.3094 174.34727ZM556.21564 171.9879Q555.6375 172.22227 554.4969 172.39415Q553.84064 172.4879 553.575 172.6129Q553.3094 172.72227 553.15314 172.94102Q553.0125 173.15977 553.0125 173.44102Q553.0125 173.8629 553.325 174.14415Q553.65314 174.4254 554.2625 174.4254Q554.8719 174.4254 555.34064 174.15977Q555.825 173.89415 556.04376 173.4254Q556.21564 173.06602 556.21564 172.37852L556.21564 171.9879ZM559.21564 175.1129L559.21564 166.51915L560.27814 166.51915L560.27814 175.1129L559.21564 175.1129ZM562.2469 167.7379L562.2469 166.51915L563.3094 166.51915L563.3094 167.7379L562.2469 167.7379ZM562.2469 175.1129L562.2469 168.89415L563.3094 168.89415L563.3094 175.1129L562.2469 175.1129ZM564.825 173.25352L565.85626 173.09727Q565.95 173.72227 566.34064 174.0504Q566.7469 174.37852 567.48126 174.37852Q568.2 174.37852 568.54376 174.09727Q568.90314 173.8004 568.90314 173.39415Q568.90314 173.03477 568.59064 172.83165Q568.3719 172.69102 567.5125 172.47227Q566.35626 172.1754 565.90314 171.97227Q565.46564 171.75352 565.23126 171.37852Q564.9969 171.00352 564.9969 170.53477Q564.9969 170.12852 565.1844 169.76915Q565.3719 169.40977 565.7 169.1754Q565.95 169.00352 566.3719 168.87852Q566.79376 168.75352 567.29376 168.75352Q568.0125 168.75352 568.5594 168.97227Q569.1219 169.1754 569.3875 169.53477Q569.65314 169.89415 569.7469 170.4879L568.71564 170.62852Q568.65314 170.15977 568.3094 169.89415Q567.98126 169.6129 567.35626 169.6129Q566.6375 169.6129 566.325 169.8629Q566.0125 170.09727 566.0125 170.4254Q566.0125 170.62852 566.1375 170.78477Q566.27814 170.95665 566.54376 171.06602Q566.7 171.12852 567.48126 171.33165Q568.60626 171.64415 569.04376 171.83165Q569.48126 172.01915 569.73126 172.37852Q569.98126 172.7379 569.98126 173.28477Q569.98126 173.81602 569.66876 174.28477Q569.3719 174.7379 568.79376 175.00352Q568.21564 175.25352 567.48126 175.25352Q566.2625 175.25352 565.6219 174.75352Q564.9969 174.2379 564.825 173.25352ZM574.54376 174.1754L574.7 175.09727Q574.2469 175.19102 573.90314 175.19102Q573.325 175.19102 573.0125 175.01915Q572.7 174.83165 572.5594 174.53477Q572.4344 174.2379 572.4344 173.28477L572.4344 169.70665L571.66876 169.70665L571.66876 168.89415L572.4344 168.89415L572.4344 167.34727L573.48126 166.72227L573.48126 168.89415L574.54376 168.89415L574.54376 169.70665L573.48126 169.70665L573.48126 173.34727Q573.48126 173.8004 573.52814 173.9254Q573.59064 174.0504 573.71564 174.12852Q573.84064 174.20665 574.075 174.20665Q574.2625 174.20665 574.54376 174.1754ZM579.3094 174.34727Q578.71564 174.84727 578.16876 175.0504Q577.6375 175.25352 577.0125 175.25352Q575.98126 175.25352 575.4344 174.75352Q574.8875 174.25352 574.8875 173.47227Q574.8875 173.01915 575.09064 172.64415Q575.29376 172.25352 575.6375 172.03477Q575.98126 171.8004 576.40314 171.69102Q576.7 171.59727 577.34064 171.51915Q578.60626 171.37852 579.21564 171.15977Q579.21564 170.94102 579.21564 170.89415Q579.21564 170.2379 578.91876 169.97227Q578.5125 169.62852 577.71564 169.62852Q576.98126 169.62852 576.6219 169.89415Q576.2625 170.14415 576.09064 170.8004L575.0594 170.65977Q575.2 170.00352 575.52814 169.59727Q575.85626 169.19102 576.46564 168.97227Q577.075 168.75352 577.8719 168.75352Q578.66876 168.75352 579.16876 168.94102Q579.66876 169.12852 579.90314 169.40977Q580.1375 169.69102 580.23126 170.12852Q580.27814 170.39415 580.27814 171.09727L580.27814 172.50352Q580.27814 173.97227 580.34064 174.3629Q580.41876 174.75352 580.6219 175.1129L579.5125 175.1129Q579.35626 174.78477 579.3094 174.34727ZM579.21564 171.9879Q578.6375 172.22227 577.4969 172.39415Q576.84064 172.4879 576.575 172.6129Q576.3094 172.72227 576.15314 172.94102Q576.0125 173.15977 576.0125 173.44102Q576.0125 173.8629 576.325 174.14415Q576.65314 174.4254 577.2625 174.4254Q577.8719 174.4254 578.34064 174.15977Q578.825 173.89415 579.04376 173.4254Q579.21564 173.06602 579.21564 172.37852L579.21564 171.9879Z" fill-rule="nonzero"/><path fill="#9e9e9e" d="M559.41876 185.62852L558.3719 185.70665Q558.23126 185.08165 557.98126 184.8004Q557.54376 184.34727 556.91876 184.34727Q556.41876 184.34727 556.02814 184.62852Q555.54376 185.00352 555.2469 185.70665Q554.96564 186.39415 554.95 187.6754Q555.325 187.09727 555.8719 186.81602Q556.4344 186.53477 557.04376 186.53477Q558.09064 186.53477 558.825 187.31602Q559.575 188.09727 559.575 189.31602Q559.575 190.12852 559.21564 190.83165Q558.8719 191.51915 558.2625 191.89415Q557.65314 192.25352 556.8875 192.25352Q555.5594 192.25352 554.73126 191.28477Q553.90314 190.31602 553.90314 188.09727Q553.90314 185.59727 554.825 184.47227Q555.6219 183.4879 556.98126 183.4879Q557.9969 183.4879 558.6375 184.06602Q559.29376 184.62852 559.41876 185.62852ZM555.1219 189.33165Q555.1219 189.87852 555.34064 190.37852Q555.575 190.8629 555.98126 191.12852Q556.40314 191.39415 556.8719 191.39415Q557.52814 191.39415 558.0125 190.8629Q558.4969 190.31602 558.4969 189.39415Q558.4969 188.50352 558.0125 187.9879Q557.54376 187.47227 556.825 187.47227Q556.10626 187.47227 555.60626 187.9879Q555.1219 188.50352 555.1219 189.33165ZM561.5125 192.1129L561.5125 190.90977L562.71564 190.90977L562.71564 192.1129Q562.71564 192.76915 562.48126 193.1754Q562.2469 193.59727 561.7469 193.81602L561.45 193.3629Q561.77814 193.22227 561.9344 192.9254Q562.09064 192.64415 562.1219 192.1129L561.5125 192.1129ZM563.95 189.84727L565.0125 189.70665Q565.1844 190.59727 565.6219 191.00352Q566.0594 191.39415 566.6844 191.39415Q567.4344 191.39415 567.95 190.87852Q568.46564 190.3629 568.46564 189.59727Q568.46564 188.87852 567.98126 188.40977Q567.5125 187.9254 566.77814 187.9254Q566.48126 187.9254 566.02814 188.0504L566.15314 187.1129Q566.2625 187.12852 566.325 187.12852Q566.9969 187.12852 567.52814 186.78477Q568.075 186.4254 568.075 185.69102Q568.075 185.1129 567.6844 184.7379Q567.29376 184.34727 566.66876 184.34727Q566.0594 184.34727 565.6375 184.7379Q565.23126 185.12852 565.1219 185.89415L564.0594 185.70665Q564.2469 184.65977 564.9344 184.08165Q565.6219 183.4879 566.6375 183.4879Q567.34064 183.4879 567.9344 183.8004Q568.52814 184.09727 568.84064 184.6129Q569.15314 185.12852 569.15314 185.72227Q569.15314 186.26915 568.85626 186.7379Q568.5594 187.19102 567.98126 187.45665Q568.73126 187.62852 569.15314 188.19102Q569.575 188.7379 569.575 189.58165Q569.575 190.70665 568.7469 191.4879Q567.9344 192.26915 566.6844 192.26915Q565.5594 192.26915 564.8094 191.59727Q564.0594 190.90977 563.95 189.84727ZM571.15314 185.58165Q571.15314 184.65977 571.60626 184.01915Q572.075 183.37852 572.95 183.37852Q573.7625 183.37852 574.29376 183.95665Q574.825 184.53477 574.825 185.64415Q574.825 186.7379 574.27814 187.33165Q573.7469 187.90977 572.96564 187.90977Q572.1844 187.90977 571.66876 187.33165Q571.15314 186.75352 571.15314 185.58165ZM572.98126 184.09727Q572.59064 184.09727 572.325 184.44102Q572.075 184.78477 572.075 185.69102Q572.075 186.51915 572.325 186.8629Q572.59064 187.19102 572.98126 187.19102Q573.3875 187.19102 573.6375 186.84727Q573.90314 186.50352 573.90314 185.6129Q573.90314 184.76915 573.6375 184.44102Q573.3719 184.09727 572.98126 184.09727ZM572.98126 192.4254L577.6844 183.37852L578.54376 183.37852L573.85626 192.4254L572.98126 192.4254ZM576.7 190.09727Q576.7 189.1754 577.15314 188.53477Q577.6219 187.89415 578.5125 187.89415Q579.325 187.89415 579.85626 188.47227Q580.3875 189.03477 580.3875 190.15977Q580.3875 191.25352 579.84064 191.84727Q579.3094 192.4254 578.5125 192.4254Q577.7469 192.4254 577.21564 191.84727Q576.7 191.26915 576.7 190.09727ZM578.54376 188.6129Q578.1375 188.6129 577.8719 188.95665Q577.6219 189.3004 577.6219 190.20665Q577.6219 191.01915 577.8875 191.3629Q578.15314 191.70665 578.54376 191.70665Q578.9344 191.70665 579.2 191.3629Q579.46564 191.01915 579.46564 190.1129Q579.46564 189.28477 579.2 188.95665Q578.9344 188.6129 578.54376 188.6129Z" fill-rule="nonzero"/><path stroke="#757575" stroke-width="1.0" stroke-linecap="butt" d="M581.45 179.6129L454.76666 179.6129L440.11926 179.6129" fill-rule="nonzero"/><path fill="#9e9e9e" d="M442.11926 179.6129C442.11926 178.50833 441.22382 177.6129 440.11926 177.6129C439.01468 177.6129 438.11926 178.50833 438.11926 179.6129C438.11926 180.71747 439.01468 181.6129 440.11926 181.6129C441.22382 181.6129 442.11926 180.71747 442.11926 179.6129" fill-rule="nonzero"/><path fill="#1a1a1a" d="M523.3719 250.78625L523.3719 242.1925L526.6219 242.1925Q527.46564 242.1925 527.91876 242.27063Q528.5594 242.38 528.98126 242.67688Q529.41876 242.97375 529.66876 243.505Q529.9344 244.03625 529.9344 244.67688Q529.9344 245.77063 529.23126 246.53625Q528.54376 247.28625 526.71564 247.28625L524.5125 247.28625L524.5125 250.78625L523.3719 250.78625ZM524.5125 246.28625L526.73126 246.28625Q527.84064 246.28625 528.29376 245.88Q528.7625 245.45813 528.7625 244.70813Q528.7625 244.17688 528.48126 243.80188Q528.21564 243.41125 527.77814 243.28625Q527.48126 243.20813 526.71564 243.20813L524.5125 243.20813L524.5125 246.28625ZM531.23126 250.78625L531.23126 244.5675L532.1844 244.5675L532.1844 245.505Q532.54376 244.84875 532.84064 244.64563Q533.15314 244.42688 533.52814 244.42688Q534.0594 244.42688 534.60626 244.755L534.2469 245.73938Q533.85626 245.505 533.48126 245.505Q533.1219 245.505 532.84064 245.72375Q532.575 245.92688 532.46564 246.30188Q532.27814 246.86438 532.27814 247.52063L532.27814 250.78625L531.23126 250.78625ZM534.85626 247.67688Q534.85626 245.9425 535.8094 245.11438Q536.60626 244.42688 537.7625 244.42688Q539.04376 244.42688 539.85626 245.27063Q540.6844 246.09875 540.6844 247.58313Q540.6844 248.78625 540.325 249.47375Q539.96564 250.16125 539.2625 250.55188Q538.575 250.92688 537.7625 250.92688Q536.46564 250.92688 535.65314 250.09875Q534.85626 249.255 534.85626 247.67688ZM535.9344 247.67688Q535.9344 248.86438 536.45 249.45813Q536.98126 250.05188 537.7625 250.05188Q538.5594 250.05188 539.075 249.45813Q539.59064 248.86438 539.59064 247.64563Q539.59064 246.48938 539.0594 245.89563Q538.54376 245.30188 537.7625 245.30188Q536.98126 245.30188 536.45 245.89563Q535.9344 246.47375 535.9344 247.67688ZM542.04376 251.30188L543.075 251.45813Q543.1375 251.92688 543.4344 252.14563Q543.825 252.4425 544.4969 252.4425Q545.23126 252.4425 545.6219 252.14563Q546.02814 251.84875 546.16876 251.33313Q546.2625 251.005 546.2469 249.97375Q545.5594 250.78625 544.52814 250.78625Q543.2469 250.78625 542.54376 249.86438Q541.84064 248.92688 541.84064 247.64563Q541.84064 246.755 542.15314 246.005Q542.48126 245.23938 543.09064 244.83313Q543.7 244.42688 544.52814 244.42688Q545.6375 244.42688 546.35626 245.3175L546.35626 244.5675L547.325 244.5675L547.325 249.9425Q547.325 251.39563 547.02814 252.005Q546.73126 252.61438 546.09064 252.95813Q545.45 253.3175 544.5125 253.3175Q543.40314 253.3175 542.71564 252.8175Q542.02814 252.3175 542.04376 251.30188ZM542.91876 247.5675Q542.91876 248.78625 543.40314 249.34875Q543.8875 249.91125 544.6219 249.91125Q545.35626 249.91125 545.84064 249.34875Q546.34064 248.78625 546.34064 247.59875Q546.34064 246.45813 545.825 245.88Q545.325 245.30188 544.60626 245.30188Q543.90314 245.30188 543.40314 245.88Q542.91876 246.4425 542.91876 247.5675ZM553.4969 248.78625L554.59064 248.91125Q554.34064 249.86438 553.6375 250.39563Q552.9344 250.92688 551.85626 250.92688Q550.4969 250.92688 549.6844 250.08313Q548.8875 249.23938 548.8875 247.72375Q548.8875 246.16125 549.7 245.30188Q550.5125 244.42688 551.79376 244.42688Q553.04376 244.42688 553.825 245.27063Q554.6219 246.11438 554.6219 247.66125Q554.6219 247.755 554.6219 247.9425L549.98126 247.9425Q550.04376 248.97375 550.5594 249.52063Q551.075 250.05188 551.85626 250.05188Q552.4344 250.05188 552.84064 249.755Q553.2625 249.4425 553.4969 248.78625ZM550.04376 247.08313L553.5125 247.08313Q553.45 246.28625 553.1219 245.89563Q552.60626 245.28625 551.8094 245.28625Q551.075 245.28625 550.575 245.77063Q550.09064 246.255 550.04376 247.08313ZM558.54376 249.84875L558.7 250.77063Q558.2469 250.86438 557.90314 250.86438Q557.325 250.86438 557.0125 250.6925Q556.7 250.505 556.5594 250.20813Q556.4344 249.91125 556.4344 248.95813L556.4344 245.38L555.66876 245.38L555.66876 244.5675L556.4344 244.5675L556.4344 243.02063L557.48126 242.39563L557.48126 244.5675L558.54376 244.5675L558.54376 245.38L557.48126 245.38L557.48126 249.02063Q557.48126 249.47375 557.52814 249.59875Q557.59064 249.72375 557.71564 249.80188Q557.84064 249.88 558.075 249.88Q558.2625 249.88 558.54376 249.84875ZM561.54376 249.84875L561.7 250.77063Q561.2469 250.86438 560.90314 250.86438Q560.325 250.86438 560.0125 250.6925Q559.7 250.505 559.5594 250.20813Q559.4344 249.91125 559.4344 248.95813L559.4344 245.38L558.66876 245.38L558.66876 244.5675L559.4344 244.5675L559.4344 243.02063L560.48126 242.39563L560.48126 244.5675L561.54376 244.5675L561.54376 245.38L560.48126 245.38L560.48126 249.02063Q560.48126 249.47375 560.52814 249.59875Q560.59064 249.72375 560.71564 249.80188Q560.84064 249.88 561.075 249.88Q561.2625 249.88 561.54376 249.84875ZM562.2469 243.41125L562.2469 242.1925L563.3094 242.1925L563.3094 243.41125L562.2469 243.41125ZM562.2469 250.78625L562.2469 244.5675L563.3094 244.5675L563.3094 250.78625L562.2469 250.78625ZM564.825 248.92688L565.85626 248.77063Q565.95 249.39563 566.34064 249.72375Q566.7469 250.05188 567.48126 250.05188Q568.2 250.05188 568.54376 249.77063Q568.90314 249.47375 568.90314 249.0675Q568.90314 248.70813 568.59064 248.505Q568.3719 248.36438 567.5125 248.14563Q566.35626 247.84875 565.90314 247.64563Q565.46564 247.42688 565.23126 247.05188Q564.9969 246.67688 564.9969 246.20813Q564.9969 245.80188 565.1844 245.4425Q565.3719 245.08313 565.7 244.84875Q565.95 244.67688 566.3719 244.55188Q566.79376 244.42688 567.29376 244.42688Q568.0125 244.42688 568.5594 244.64563Q569.1219 244.84875 569.3875 245.20813Q569.65314 245.5675 569.7469 246.16125L568.71564 246.30188Q568.65314 245.83313 568.3094 245.5675Q567.98126 245.28625 567.35626 245.28625Q566.6375 245.28625 566.325 245.53625Q566.0125 245.77063 566.0125 246.09875Q566.0125 246.30188 566.1375 246.45813Q566.27814 246.63 566.54376 246.73938Q566.7 246.80188 567.48126 247.005Q568.60626 247.3175 569.04376 247.505Q569.48126 247.6925 569.73126 248.05188Q569.98126 248.41125 569.98126 248.95813Q569.98126 249.48938 569.66876 249.95813Q569.3719 250.41125 568.79376 250.67688Q568.21564 250.92688 567.48126 250.92688Q566.2625 250.92688 565.6219 250.42688Q564.9969 249.91125 564.825 248.92688ZM574.54376 249.84875L574.7 250.77063Q574.2469 250.86438 573.90314 250.86438Q573.325 250.86438 573.0125 250.6925Q572.7 250.505 572.5594 250.20813Q572.4344 249.91125 572.4344 248.95813L572.4344 245.38L571.66876 245.38L571.66876 244.5675L572.4344 244.5675L572.4344 243.02063L573.48126 242.39563L573.48126 244.5675L574.54376 244.5675L574.54376 245.38L573.48126 245.38L573.48126 249.02063Q573.48126 249.47375 573.52814 249.59875Q573.59064 249.72375 573.71564 249.80188Q573.84064 249.88 574.075 249.88Q574.2625 249.88 574.54376 249.84875ZM579.3094 250.02063Q578.71564 250.52063 578.16876 250.72375Q577.6375 250.92688 577.0125 250.92688Q575.98126 250.92688 575.4344 250.42688Q574.8875 249.92688 574.8875 249.14563Q574.8875 248.6925 575.09064 248.3175Q575.29376 247.92688 575.6375 247.70813Q575.98126 247.47375 576.40314 247.36438Q576.7 247.27063 577.34064 247.1925Q578.60626 247.05188 579.21564 246.83313Q579.21564 246.61438 579.21564 246.5675Q579.21564 245.91125 578.91876 245.64563Q578.5125 245.30188 577.71564 245.30188Q576.98126 245.30188 576.6219 245.5675Q576.2625 245.8175 576.09064 246.47375L575.0594 246.33313Q575.2 245.67688 575.52814 245.27063Q575.85626 244.86438 576.46564 244.64563Q577.075 244.42688 577.8719 244.42688Q578.66876 244.42688 579.16876 244.61438Q579.66876 244.80188 579.90314 245.08313Q580.1375 245.36438 580.23126 245.80188Q580.27814 246.0675 580.27814 246.77063L580.27814 248.17688Q580.27814 249.64563 580.34064 250.03625Q580.41876 250.42688 580.6219 250.78625L579.5125 250.78625Q579.35626 250.45813 579.3094 250.02063ZM579.21564 247.66125Q578.6375 247.89563 577.4969 248.0675Q576.84064 248.16125 576.575 248.28625Q576.3094 248.39563 576.15314 248.61438Q576.0125 248.83313 576.0125 249.11438Q576.0125 249.53625 576.325 249.8175Q576.65314 250.09875 577.2625 250.09875Q577.8719 250.09875 578.34064 249.83313Q578.825 249.5675 579.04376 249.09875Q579.21564 248.73938 579.21564 248.05188L579.21564 247.66125Z" fill-rule="nonzero"/><path fill="#9e9e9e" d="M550.91876 267.78625L549.8719 267.78625L549.8719 261.0675Q549.48126 261.42688 548.85626 261.80188Q548.2469 262.16125 547.7625 262.33313L547.7625 261.3175Q548.6375 260.89563 549.29376 260.3175Q549.96564 259.72375 550.2469 259.16125L550.91876 259.16125L550.91876 267.78625ZM554.10626 265.80188L555.1219 265.70813Q555.2469 266.42688 555.60626 266.755Q555.98126 267.0675 556.54376 267.0675Q557.02814 267.0675 557.3875 266.84875Q557.7625 266.61438 557.9969 266.255Q558.23126 265.88 558.3875 265.255Q558.54376 264.61438 558.54376 263.95813Q558.54376 263.88 558.54376 263.73938Q558.23126 264.23938 557.6844 264.5675Q557.1375 264.88 556.4969 264.88Q555.41876 264.88 554.6844 264.11438Q553.95 263.33313 553.95 262.0675Q553.95 260.755 554.71564 259.95813Q555.4969 259.16125 556.65314 259.16125Q557.48126 259.16125 558.16876 259.61438Q558.8719 260.0675 559.23126 260.91125Q559.59064 261.73938 559.59064 263.3175Q559.59064 264.95813 559.23126 265.9425Q558.8875 266.91125 558.16876 267.42688Q557.46564 267.92688 556.52814 267.92688Q555.5125 267.92688 554.8719 267.38Q554.23126 266.8175 554.10626 265.80188ZM558.41876 262.005Q558.41876 261.09875 557.9344 260.5675Q557.46564 260.03625 556.77814 260.03625Q556.075 260.03625 555.54376 260.61438Q555.02814 261.17688 555.02814 262.09875Q555.02814 262.91125 555.52814 263.42688Q556.02814 263.9425 556.7469 263.9425Q557.48126 263.9425 557.95 263.42688Q558.41876 262.91125 558.41876 262.005ZM561.5125 267.78625L561.5125 266.58313L562.71564 266.58313L562.71564 267.78625Q562.71564 268.4425 562.48126 268.84875Q562.2469 269.27063 561.7469 269.48938L561.45 269.03625Q561.77814 268.89563 561.9344 268.59875Q562.09064 268.3175 562.1219 267.78625L561.5125 267.78625ZM565.575 263.13Q564.91876 262.88 564.59064 262.4425Q564.27814 261.98938 564.27814 261.38Q564.27814 260.4425 564.95 259.80188Q565.6375 259.16125 566.7469 259.16125Q567.8719 259.16125 568.5594 259.8175Q569.2469 260.47375 569.2469 261.41125Q569.2469 262.005 568.9344 262.4425Q568.6219 262.88 567.98126 263.13Q568.77814 263.38 569.1844 263.95813Q569.59064 264.53625 569.59064 265.33313Q569.59064 266.42688 568.8094 267.17688Q568.04376 267.92688 566.7625 267.92688Q565.4969 267.92688 564.71564 267.17688Q563.9344 266.42688 563.9344 265.30188Q563.9344 264.45813 564.35626 263.89563Q564.79376 263.33313 565.575 263.13ZM565.35626 261.33313Q565.35626 261.9425 565.7469 262.33313Q566.15314 262.72375 566.77814 262.72375Q567.3875 262.72375 567.77814 262.34875Q568.16876 261.95813 568.16876 261.39563Q568.16876 260.8175 567.7625 260.42688Q567.35626 260.02063 566.7625 260.02063Q566.15314 260.02063 565.7469 260.41125Q565.35626 260.80188 565.35626 261.33313ZM565.02814 265.30188Q565.02814 265.755 565.23126 266.17688Q565.45 266.59875 565.8719 266.83313Q566.29376 267.0675 566.77814 267.0675Q567.52814 267.0675 568.0125 266.58313Q568.5125 266.09875 568.5125 265.34875Q568.5125 264.58313 568.0125 264.08313Q567.5125 263.58313 566.7469 263.58313Q565.9969 263.58313 565.5125 264.08313Q565.02814 264.5675 565.02814 265.30188ZM571.15314 261.255Q571.15314 260.33313 571.60626 259.6925Q572.075 259.05188 572.95 259.05188Q573.7625 259.05188 574.29376 259.63Q574.825 260.20813 574.825 261.3175Q574.825 262.41125 574.27814 263.005Q573.7469 263.58313 572.96564 263.58313Q572.1844 263.58313 571.66876 263.005Q571.15314 262.42688 571.15314 261.255ZM572.98126 259.77063Q572.59064 259.77063 572.325 260.11438Q572.075 260.45813 572.075 261.36438Q572.075 262.1925 572.325 262.53625Q572.59064 262.86438 572.98126 262.86438Q573.3875 262.86438 573.6375 262.52063Q573.90314 262.17688 573.90314 261.28625Q573.90314 260.4425 573.6375 260.11438Q573.3719 259.77063 572.98126 259.77063ZM572.98126 268.09875L577.6844 259.05188L578.54376 259.05188L573.85626 268.09875L572.98126 268.09875ZM576.7 265.77063Q576.7 264.84875 577.15314 264.20813Q577.6219 263.5675 578.5125 263.5675Q579.325 263.5675 579.85626 264.14563Q580.3875 264.70813 580.3875 265.83313Q580.3875 266.92688 579.84064 267.52063Q579.3094 268.09875 578.5125 268.09875Q577.7469 268.09875 577.21564 267.52063Q576.7 266.9425 576.7 265.77063ZM578.54376 264.28625Q578.1375 264.28625 577.8719 264.63Q577.6219 264.97375 577.6219 265.88Q577.6219 266.6925 577.8875 267.03625Q578.15314 267.38 578.54376 267.38Q578.9344 267.38 579.2 267.03625Q579.46564 266.6925 579.46564 265.78625Q579.46564 264.95813 579.2 264.63Q578.9344 264.28625 578.54376 264.28625Z" fill-rule="nonzero"/><path stroke="#757575" stroke-width="1.0" stroke-linecap="butt" d="M581.45 255.28625L454.76666 255.28625L409.2483 255.28625" fill-rule="nonzero"/><path fill="#9e9e9e" d="M411.2483 255.28625C411.2483 254.18169 410.35284 253.28625 409.2483 253.28625C408.1437 253.28625 407.2483 254.18169 407.2483 255.28625C407.2483 256.39084 408.1437 257.28625 409.2483 257.28625C410.35284 257.28625 411.2483 256.39084 411.2483 255.28625" fill-rule="nonzero"/><path fill="#757575" d="M20.096874 37.55L20.096874 23.2375L25.4875 23.2375Q26.925 23.2375 27.675 23.3625Q28.721874 23.55 29.440624 24.05Q30.159374 24.534374 30.58125 25.425Q31.01875 26.315624 31.01875 27.378124Q31.01875 29.20625 29.846874 30.471874Q28.690624 31.721874 25.659374 31.721874L21.9875 31.721874L21.9875 37.55L20.096874 37.55ZM21.9875 30.034374L25.690624 30.034374Q27.51875 30.034374 28.284374 29.3625Q29.065624 28.675 29.065624 27.425Q29.065624 26.534374 28.6125 25.89375Q28.159374 25.253124 27.425 25.05Q26.940624 24.925 25.64375 24.925L21.9875 24.925L21.9875 30.034374ZM39.971874 34.20625L41.784374 34.440624Q41.3625 36.01875 40.190624 36.909374Q39.034374 37.784374 37.221874 37.784374Q34.95625 37.784374 33.6125 36.39375Q32.284374 34.9875 32.284374 32.45625Q32.284374 29.83125 33.628124 28.39375Q34.971874 26.940624 37.128124 26.940624Q39.20625 26.940624 40.51875 28.3625Q41.846874 29.76875 41.846874 32.346874Q41.846874 32.503124 41.83125 32.815624L34.096874 32.815624Q34.190624 34.51875 35.065624 35.425Q35.940624 36.33125 37.2375 36.33125Q38.20625 36.33125 38.878124 35.83125Q39.565624 35.315624 39.971874 34.20625ZM34.190624 31.3625L39.9875 31.3625Q39.878124 30.065624 39.33125 29.409374Q38.4875 28.39375 37.14375 28.39375Q35.940624 28.39375 35.1125 29.20625Q34.284374 30.003124 34.190624 31.3625ZM43.846874 37.55L43.846874 27.175L45.425 27.175L45.425 28.753124Q46.034374 27.64375 46.55 27.3Q47.065624 26.940624 47.675 26.940624Q48.565624 26.940624 49.4875 27.503124L48.878124 29.14375Q48.2375 28.753124 47.596874 28.753124Q47.01875 28.753124 46.55 29.1125Q46.096874 29.45625 45.89375 30.065624Q45.6125 31.003124 45.6125 32.1125L45.6125 37.55L43.846874 37.55ZM57.64375 33.753124L59.3625 33.971874Q59.08125 35.76875 57.909374 36.784374Q56.753124 37.784374 55.05 37.784374Q52.925 37.784374 51.628124 36.39375Q50.33125 35.003124 50.33125 32.409374Q50.33125 30.721874 50.878124 29.471874Q51.440624 28.20625 52.58125 27.58125Q53.721874 26.940624 55.065624 26.940624Q56.753124 26.940624 57.815624 27.8Q58.89375 28.659374 59.20625 30.221874L57.4875 30.4875Q57.253124 29.440624 56.628124 28.925Q56.003124 28.39375 55.128124 28.39375Q53.8 28.39375 52.971874 29.346874Q52.14375 30.3 52.14375 32.346874Q52.14375 34.440624 52.940624 35.39375Q53.7375 36.33125 55.034374 36.33125Q56.065624 36.33125 56.753124 35.70625Q57.45625 35.065624 57.64375 33.753124ZM67.97188 34.20625L69.78438 34.440624Q69.3625 36.01875 68.19063 36.909374Q67.03438 37.784374 65.22188 37.784374Q62.95625 37.784374 61.6125 36.39375Q60.284374 34.9875 60.284374 32.45625Q60.284374 29.83125 61.628124 28.39375Q62.971874 26.940624 65.12813 26.940624Q67.20625 26.940624 68.51875 28.3625Q69.84688 29.76875 69.84688 32.346874Q69.84688 32.503124 69.83125 32.815624L62.096874 32.815624Q62.190624 34.51875 63.065624 35.425Q63.940624 36.33125 65.2375 36.33125Q66.20625 36.33125 66.87813 35.83125Q67.56563 35.315624 67.97188 34.20625ZM62.190624 31.3625L67.9875 31.3625Q67.87813 30.065624 67.33125 29.409374Q66.4875 28.39375 65.14375 28.39375Q63.940624 28.39375 63.1125 29.20625Q62.284374 30.003124 62.190624 31.3625ZM71.8625 37.55L71.8625 27.175L73.45625 27.175L73.45625 28.659374Q74.59688 26.940624 76.75313 26.940624Q77.69063 26.940624 78.47188 27.284374Q79.26875 27.6125 79.65938 28.159374Q80.05 28.70625 80.20625 29.45625Q80.3 29.95625 80.3 31.175L80.3 37.55L78.53438 37.55L78.53438 31.2375Q78.53438 30.159374 78.33125 29.628124Q78.12813 29.096874 77.59688 28.784374Q77.08125 28.471874 76.37813 28.471874Q75.25313 28.471874 74.44063 29.190624Q73.62813 29.89375 73.62813 31.878124L73.62813 37.55L71.8625 37.55ZM85.70625 35.971874L85.95625 37.534374Q85.22188 37.690624 84.62813 37.690624Q83.675 37.690624 83.14375 37.39375Q82.62813 37.08125 82.40938 36.596874Q82.19063 36.096874 82.19063 34.51875L82.19063 28.55L80.90938 28.55L80.90938 27.175L82.19063 27.175L82.19063 24.6125L83.94063 23.55L83.94063 27.175L85.70625 27.175L85.70625 28.55L83.94063 28.55L83.94063 34.6125Q83.94063 35.3625 84.03438 35.58125Q84.12813 35.784374 84.33125 35.925Q84.55 36.05 84.94063 36.05Q85.22188 36.05 85.70625 35.971874ZM94.65938 37.55L94.65938 36.01875Q93.45625 37.784374 91.37813 37.784374Q90.45625 37.784374 89.65938 37.440624Q88.8625 37.08125 88.47188 36.55Q88.09688 36.01875 87.94063 35.2375Q87.83125 34.721874 87.83125 33.596874L87.83125 27.175L89.58125 27.175L89.58125 32.925Q89.58125 34.3 89.69063 34.784374Q89.8625 35.471874 90.39375 35.878124Q90.94063 36.26875 91.72188 36.26875Q92.51875 36.26875 93.20625 35.8625Q93.90938 35.45625 94.19063 34.76875Q94.4875 34.065624 94.4875 32.7375L94.4875 27.175L96.2375 27.175L96.2375 37.55L94.65938 37.55ZM104.64375 36.26875Q103.65938 37.096874 102.75313 37.440624Q101.84688 37.784374 100.81563 37.784374Q99.1125 37.784374 98.19063 36.95625Q97.26875 36.1125 97.26875 34.815624Q97.26875 34.05 97.6125 33.425Q97.97188 32.8 98.53438 32.425Q99.09688 32.034374 99.8 31.83125Q100.31563 31.70625 101.3625 31.565624Q103.4875 31.315624 104.4875 30.971874Q104.50313 30.6125 104.50313 30.503124Q104.50313 29.440624 104.00313 28.9875Q103.33125 28.39375 102.00313 28.39375Q100.75313 28.39375 100.15938 28.83125Q99.58125 29.26875 99.3 30.378124L97.58125 30.14375Q97.81563 29.034374 98.34688 28.3625Q98.87813 27.675 99.89375 27.315624Q100.90938 26.940624 102.25313 26.940624Q103.58125 26.940624 104.40938 27.253124Q105.2375 27.565624 105.62813 28.05Q106.01875 28.51875 106.175 29.2375Q106.26875 29.690624 106.26875 30.8625L106.26875 33.20625Q106.26875 35.659374 106.37813 36.315624Q106.4875 36.95625 106.83125 37.55L104.9875 37.55Q104.72188 37.003124 104.64375 36.26875ZM104.4875 32.346874Q103.53438 32.7375 101.6125 33.003124Q100.53438 33.159374 100.08125 33.3625Q99.64375 33.55 99.39375 33.925Q99.14375 34.3 99.14375 34.76875Q99.14375 35.471874 99.675 35.940624Q100.20625 36.409374 101.2375 36.409374Q102.25313 36.409374 103.03438 35.971874Q103.83125 35.51875 104.20625 34.753124Q104.4875 34.14375 104.4875 32.9875L104.4875 32.346874ZM108.83125 37.55L108.83125 23.2375L110.58125 23.2375L110.58125 37.55L108.83125 37.55ZM119.97188 34.20625L121.78438 34.440624Q121.3625 36.01875 120.19063 36.909374Q119.03438 37.784374 117.22188 37.784374Q114.95625 37.784374 113.6125 36.39375Q112.28438 34.9875 112.28438 32.45625Q112.28438 29.83125 113.62813 28.39375Q114.97188 26.940624 117.12813 26.940624Q119.20625 26.940624 120.51875 28.3625Q121.84688 29.76875 121.84688 32.346874Q121.84688 32.503124 121.83125 32.815624L114.09688 32.815624Q114.19063 34.51875 115.06563 35.425Q115.94063 36.33125 117.2375 36.33125Q118.20625 36.33125 118.87813 35.83125Q119.56563 35.315624 119.97188 34.20625ZM114.19063 31.3625L119.9875 31.3625Q119.87813 30.065624 119.33125 29.409374Q118.4875 28.39375 117.14375 28.39375Q115.94063 28.39375 115.1125 29.20625Q114.28438 30.003124 114.19063 31.3625ZM129.22188 32.3625Q129.22188 29.4875 130.81563 28.096874Q132.15938 26.940624 134.08125 26.940624Q136.22188 26.940624 137.56563 28.346874Q138.925 29.753124 138.925 32.221874Q138.925 34.221874 138.33125 35.378124Q137.7375 36.51875 136.58125 37.159374Q135.44063 37.784374 134.08125 37.784374Q131.89375 37.784374 130.55 36.39375Q129.22188 34.9875 129.22188 32.3625ZM131.01875 32.3625Q131.01875 34.3625 131.87813 35.346874Q132.75313 36.33125 134.08125 36.33125Q135.39375 36.33125 136.25313 35.346874Q137.12813 34.346874 137.12813 32.3Q137.12813 30.378124 136.25313 29.39375Q135.37813 28.39375 134.08125 28.39375Q132.75313 28.39375 131.87813 29.39375Q131.01875 30.378124 131.01875 32.3625ZM140.84688 37.55L140.84688 27.175L142.425 27.175L142.425 28.753124Q143.03438 27.64375 143.55 27.3Q144.06563 26.940624 144.675 26.940624Q145.56563 26.940624 146.4875 27.503124L145.87813 29.14375Q145.2375 28.753124 144.59688 28.753124Q144.01875 28.753124 143.55 29.1125Q143.09688 29.45625 142.89375 30.065624Q142.6125 31.003124 142.6125 32.1125L142.6125 37.55L140.84688 37.55ZM154.97188 34.20625L156.78438 34.440624Q156.3625 36.01875 155.19063 36.909374Q154.03438 37.784374 152.22188 37.784374Q149.95625 37.784374 148.6125 36.39375Q147.28438 34.9875 147.28438 32.45625Q147.28438 29.83125 148.62813 28.39375Q149.97188 26.940624 152.12813 26.940624Q154.20625 26.940624 155.51875 28.3625Q156.84688 29.76875 156.84688 32.346874Q156.84688 32.503124 156.83125 32.815624L149.09688 32.815624Q149.19063 34.51875 150.06563 35.425Q150.94063 36.33125 152.2375 36.33125Q153.20625 36.33125 153.87813 35.83125Q154.56563 35.315624 154.97188 34.20625ZM149.19063 31.3625L154.9875 31.3625Q154.87813 30.065624 154.33125 29.409374Q153.4875 28.39375 152.14375 28.39375Q150.94063 28.39375 150.1125 29.20625Q149.28438 30.003124 149.19063 31.3625ZM165.12813 37.55L165.12813 23.2375L171.47188 23.2375Q173.37813 23.2375 174.37813 23.628124Q175.37813 24.003124 175.97188 24.9875Q176.56563 25.95625 176.56563 27.14375Q176.56563 28.659374 175.58125 29.70625Q174.59688 30.753124 172.53438 31.034374Q173.28438 31.39375 173.675 31.753124Q174.50313 32.503124 175.25313 33.659374L177.7375 37.55L175.3625 37.55L173.45625 34.565624Q172.62813 33.284374 172.09688 32.596874Q171.56563 31.909374 171.12813 31.64375Q170.70625 31.3625 170.26875 31.253124Q169.94063 31.190624 169.22188 31.190624L167.01875 31.190624L167.01875 37.55L165.12813 37.55ZM167.01875 29.55L171.09688 29.55Q172.39375 29.55 173.1125 29.284374Q173.84688 29.01875 174.22188 28.425Q174.6125 27.83125 174.6125 27.14375Q174.6125 26.128124 173.87813 25.471874Q173.14375 24.815624 171.55 24.815624L167.01875 24.815624L167.01875 29.55ZM182.7375 37.55L182.7375 24.925L178.01875 24.925L178.01875 23.2375L189.3625 23.2375L189.3625 24.925L184.62813 24.925L184.62813 37.55L182.7375 37.55ZM191.01875 37.55L191.01875 23.2375L196.39375 23.2375Q198.03438 23.2375 199.01875 23.675Q200.00313 24.096874 200.56563 25.003124Q201.12813 25.909374 201.12813 26.89375Q201.12813 27.815624 200.62813 28.628124Q200.14375 29.440624 199.12813 29.925Q200.425 30.315624 201.12813 31.2375Q201.83125 32.14375 201.83125 33.39375Q201.83125 34.409374 201.39375 35.26875Q200.97188 36.128124 200.34688 36.596874Q199.72188 37.065624 198.78438 37.315624Q197.84688 37.55 196.47188 37.55L191.01875 37.55ZM192.90938 29.253124L196.00313 29.253124Q197.26875 29.253124 197.81563 29.08125Q198.53438 28.8625 198.89375 28.378124Q199.26875 27.878124 199.26875 27.1125Q199.26875 26.409374 198.925 25.8625Q198.58125 25.315624 197.94063 25.128124Q197.31563 24.925 195.76875 24.925L192.90938 24.925L192.90938 29.253124ZM192.90938 35.8625L196.47188 35.8625Q197.39375 35.8625 197.76875 35.784374Q198.425 35.675 198.8625 35.409374Q199.3 35.128124 199.58125 34.6125Q199.8625 34.08125 199.8625 33.39375Q199.8625 32.596874 199.45625 32.003124Q199.05 31.409374 198.31563 31.175Q197.58125 30.940624 196.22188 30.940624L192.90938 30.940624L192.90938 35.8625Z" fill-rule="nonzero"/></svg>