<svg version="1.1" viewBox="0.0 0.0 600.0 371.0" fill="none" stroke="none" stroke-linecap="square" stroke-miterlimit="10" width="600" height="371" xmlns:xlink="http://www.w3.org/1999/xlink" xmlns="http://www.w3.org/2000/svg"><path fill="#ffffff" d="M0 0L600.0 0L600.0 371.0L0 371.0L0 0Z" fill-rule="nonzero"/><path fill="#2e5dab" d="M300.0 140.4575C313.057 140.4575 325.88397 142.86339 337.19168 147.43333L337.19168 169.74834C325.88397 165.17839 313.057 162.7725 300.0 162.7725Z" fill-rule="nonzero"/><path fill="#4285f4" d="M300.0 88.38917C326.114 88.38917 351.76794 93.200935 374.38333 102.340836L337.19168 147.43333C325.88397 142.86339 313.057 140.4575 300.0 140.4575Z" fill-rule="nonzero"/><path fill="#a42f25" d="M337.19168 147.43333C347.35748 151.5418 355.9899 157.2761 362.38312 164.16739L362.38312 186.48239C355.9899 179.5911 347.35748 173.8568 337.19168 169.74834Z" fill-rule="nonzero"/><path fill="#ea4335" d="M374.38333 102.340836C394.71494 110.55776 411.97977 122.02635 424.76624 135.80894L362.38312 164.16739C355.9899 157.2761 347.35748 151.5418 337.19168 147.43333Z" fill-rule="nonzero"/><path fill="#24763a" d="M448.76666 214.84084C448.76666 231.27469 443.21036 247.47522 432.55206 262.1179L432.55206 239.80289C443.21036 225.16022 448.76666 208.95969 448.76666 192.52583Z" fill-rule="nonzero"/><path fill="#24763a" d="M362.38312 164.16739C370.21506 172.6095 374.38333 182.45976 374.38333 192.52583L374.38333 214.84084C374.38333 204.77477 370.21506 194.9245 362.38312 186.48239Z" fill-rule="nonzero"/><path fill="#34a853" d="M424.76624 135.80894C453.71335 167.01122 456.6813 206.65349 432.55206 239.80289L366.27603 216.16437C378.34067 199.58966 376.8567 179.76852 362.38312 164.16739Z" fill-rule="nonzero"/><path fill="#31848b" d="M237.61688 164.16739C251.33522 149.38031 274.81204 140.4575 300.0 140.4575L300.0 162.7725C274.81204 162.7725 251.33522 171.69531 237.61688 186.48239Z" fill-rule="nonzero"/><path fill="#46bdc6" d="M175.23378 135.80894C202.67046 106.234795 249.6241 88.38917 300.0 88.38917L300.0 140.4575C274.81204 140.4575 251.33522 149.38031 237.61688 164.16739Z" fill-rule="nonzero"/><path fill="#b34c01" d="M432.55206 262.1179C401.32492 305.01862 332.15433 327.34027 265.27112 316.1002C198.3879 304.86014 151.23334 262.98944 151.23334 214.84084L151.23334 192.52583C151.23334 240.67444 198.3879 282.54514 265.27112 293.7852C332.15433 305.02527 401.32492 282.7036 432.55206 239.80289Z" fill-rule="nonzero"/><path fill="#b34c01" d="M225.61667 192.52583C225.61667 182.45976 229.78493 172.6095 237.61688 164.16739L237.61688 186.48239C229.78493 194.9245 225.61667 204.77477 225.61667 214.84084Z" fill-rule="nonzero"/><path fill="#ff6d01" d="M432.55206 239.80289C407.57858 274.11218 357.59683 295.9746 302.59634 296.64664C247.59586 297.31866 196.55457 276.69058 169.88574 243.0123C143.21692 209.334 145.2738 168.10297 175.23378 135.80894L237.61688 164.16739C222.6369 180.31439 221.60846 200.92992 234.94287 217.76906C248.27728 234.6082 273.7979 244.92226 301.29816 244.58624C328.7984 244.25023 353.78928 233.319 366.27603 216.16437Z" fill-rule="nonzero"/><path fill="#1a1a1a" d="M21.925 101.0846L18.596874 92.49085L19.83125 92.49085L22.065624 98.74085Q22.33125 99.49085 22.51875 100.1471Q22.721874 99.44398 22.9875 98.74085L25.3 92.49085L26.45625 92.49085L23.096874 101.0846L21.925 101.0846ZM30.596874 99.0846L31.690624 99.2096Q31.440624 100.16273 30.7375 100.69398Q30.034374 101.22523 28.95625 101.22523Q27.596874 101.22523 26.784374 100.38148Q25.9875 99.53773 25.9875 98.0221Q25.9875 96.4596 26.8 95.60023Q27.6125 94.72523 28.89375 94.72523Q30.14375 94.72523 30.925 95.56898Q31.721874 96.41273 31.721874 97.9596Q31.721874 98.05335 31.721874 98.24085L27.08125 98.24085Q27.14375 99.2721 27.659374 99.81898Q28.175 100.35023 28.95625 100.35023Q29.534374 100.35023 29.940624 100.05335Q30.3625 99.74085 30.596874 99.0846ZM27.14375 97.38148L30.6125 97.38148Q30.55 96.5846 30.221874 96.19398Q29.70625 95.5846 28.909374 95.5846Q28.175 95.5846 27.675 96.06898Q27.190624 96.55335 27.14375 97.38148ZM33.33125 101.0846L33.33125 94.86585L34.284374 94.86585L34.284374 95.80335Q34.64375 95.1471 34.940624 94.94398Q35.253124 94.72523 35.628124 94.72523Q36.159374 94.72523 36.70625 95.05335L36.346874 96.03773Q35.95625 95.80335 35.58125 95.80335Q35.221874 95.80335 34.940624 96.0221Q34.675 96.22523 34.565624 96.60023Q34.378124 97.16273 34.378124 97.81898L34.378124 101.0846L33.33125 101.0846ZM37.346874 93.7096L37.346874 92.49085L38.409374 92.49085L38.409374 93.7096L37.346874 93.7096ZM37.346874 101.0846L37.346874 94.86585L38.409374 94.86585L38.409374 101.0846L37.346874 101.0846ZM40.596874 101.0846L40.596874 95.67835L39.659374 95.67835L39.659374 94.86585L40.596874 94.86585L40.596874 94.19398Q40.596874 93.56898 40.70625 93.2721Q40.8625 92.85023 41.2375 92.60023Q41.628124 92.35023 42.315624 92.35023Q42.76875 92.35023 43.3 92.4596L43.14375 93.36585Q42.815624 93.31898 42.51875 93.31898Q42.034374 93.31898 41.83125 93.5221Q41.64375 93.72523 41.64375 94.28773L41.64375 94.86585L42.8625 94.86585L42.8625 95.67835L41.64375 95.67835L41.64375 101.0846L40.596874 101.0846ZM43.346874 93.7096L43.346874 92.49085L44.409374 92.49085L44.409374 93.7096L43.346874 93.7096ZM43.346874 101.0846L43.346874 94.86585L44.409374 94.86585L44.409374 101.0846L43.346874 101.0846ZM50.409374 98.80335L51.440624 98.94398Q51.26875 100.00648 50.565624 100.61585Q49.8625 101.22523 48.846874 101.22523Q47.565624 101.22523 46.784374 100.3971Q46.01875 99.55335 46.01875 97.99085Q46.01875 96.99085 46.346874 96.24085Q46.690624 95.47523 47.3625 95.10023Q48.05 94.72523 48.8625 94.72523Q49.8625 94.72523 50.503124 95.24085Q51.159374 95.74085 51.346874 96.69398L50.315624 96.85023Q50.175 96.22523 49.8 95.91273Q49.425 95.5846 48.89375 95.5846Q48.096874 95.5846 47.596874 96.16273Q47.096874 96.72523 47.096874 97.9596Q47.096874 99.22523 47.58125 99.78773Q48.065624 100.35023 48.83125 100.35023Q49.45625 100.35023 49.8625 99.97523Q50.284374 99.60023 50.409374 98.80335ZM56.409374 100.31898Q55.815624 100.81898 55.26875 101.0221Q54.7375 101.22523 54.1125 101.22523Q53.08125 101.22523 52.534374 100.72523Q51.9875 100.22523 51.9875 99.44398Q51.9875 98.99085 52.190624 98.61585Q52.39375 98.22523 52.7375 98.00648Q53.08125 97.7721 53.503124 97.66273Q53.8 97.56898 54.440624 97.49085Q55.70625 97.35023 56.315624 97.13148Q56.315624 96.91273 56.315624 96.86585Q56.315624 96.2096 56.01875 95.94398Q55.6125 95.60023 54.815624 95.60023Q54.08125 95.60023 53.721874 95.86585Q53.3625 96.11585 53.190624 96.7721L52.159374 96.63148Q52.3 95.97523 52.628124 95.56898Q52.95625 95.16273 53.565624 94.94398Q54.175 94.72523 54.971874 94.72523Q55.76875 94.72523 56.26875 94.91273Q56.76875 95.10023 57.003124 95.38148Q57.2375 95.66273 57.33125 96.10023Q57.378124 96.36585 57.378124 97.06898L57.378124 98.47523Q57.378124 99.94398 57.440624 100.3346Q57.51875 100.72523 57.721874 101.0846L56.6125 101.0846Q56.45625 100.75648 56.409374 100.31898ZM56.315624 97.9596Q55.7375 98.19398 54.596874 98.36585Q53.940624 98.4596 53.675 98.5846Q53.409374 98.69398 53.253124 98.91273Q53.1125 99.13148 53.1125 99.41273Q53.1125 99.8346 53.425 100.11585Q53.753124 100.3971 54.3625 100.3971Q54.971874 100.3971 55.440624 100.13148Q55.925 99.86585 56.14375 99.3971Q56.315624 99.03773 56.315624 98.35023L56.315624 97.9596ZM61.64375 100.1471L61.8 101.06898Q61.346874 101.16273 61.003124 101.16273Q60.425 101.16273 60.1125 100.99085Q59.8 100.80335 59.659374 100.50648Q59.534374 100.2096 59.534374 99.25648L59.534374 95.67835L58.76875 95.67835L58.76875 94.86585L59.534374 94.86585L59.534374 93.31898L60.58125 92.69398L60.58125 94.86585L61.64375 94.86585L61.64375 95.67835L60.58125 95.67835L60.58125 99.31898Q60.58125 99.7721 60.628124 99.8971Q60.690624 100.0221 60.815624 100.10023Q60.940624 100.17835 61.175 100.17835Q61.3625 100.17835 61.64375 100.1471ZM61.95625 97.97523Q61.95625 96.24085 62.909374 95.41273Q63.70625 94.72523 64.8625 94.72523Q66.14375 94.72523 66.95625 95.56898Q67.78438 96.3971 67.78438 97.88148Q67.78438 99.0846 67.425 99.7721Q67.06563 100.4596 66.3625 100.85023Q65.675 101.22523 64.8625 101.22523Q63.565624 101.22523 62.753124 100.3971Q61.95625 99.55335 61.95625 97.97523ZM63.034374 97.97523Q63.034374 99.16273 63.55 99.75648Q64.08125 100.35023 64.8625 100.35023Q65.65938 100.35023 66.175 99.75648Q66.69063 99.16273 66.69063 97.94398Q66.69063 96.78773 66.15938 96.19398Q65.64375 95.60023 64.8625 95.60023Q64.08125 95.60023 63.55 96.19398Q63.034374 96.7721 63.034374 97.97523ZM69.33125 101.0846L69.33125 94.86585L70.28438 94.86585L70.28438 95.80335Q70.64375 95.1471 70.94063 94.94398Q71.25313 94.72523 71.62813 94.72523Q72.15938 94.72523 72.70625 95.05335L72.34688 96.03773Q71.95625 95.80335 71.58125 95.80335Q71.22188 95.80335 70.94063 96.0221Q70.675 96.22523 70.56563 96.60023Q70.37813 97.16273 70.37813 97.81898L70.37813 101.0846L69.33125 101.0846ZM77.59688 99.0846L78.69063 99.2096Q78.44063 100.16273 77.7375 100.69398Q77.03438 101.22523 75.95625 101.22523Q74.59688 101.22523 73.78438 100.38148Q72.9875 99.53773 72.9875 98.0221Q72.9875 96.4596 73.8 95.60023Q74.6125 94.72523 75.89375 94.72523Q77.14375 94.72523 77.925 95.56898Q78.72188 96.41273 78.72188 97.9596Q78.72188 98.05335 78.72188 98.24085L74.08125 98.24085Q74.14375 99.2721 74.65938 99.81898Q75.175 100.35023 75.95625 100.35023Q76.53438 100.35023 76.94063 100.05335Q77.3625 99.74085 77.59688 99.0846ZM74.14375 97.38148L77.6125 97.38148Q77.55 96.5846 77.22188 96.19398Q76.70625 95.5846 75.90938 95.5846Q75.175 95.5846 74.675 96.06898Q74.19063 96.55335 74.14375 97.38148Z" fill-rule="nonzero"/><path fill="#9e9e9e" d="M23.01875 118.0846L21.971874 118.0846L21.971874 111.36585Q21.58125 111.72523 20.95625 112.10023Q20.346874 112.4596 19.8625 112.63148L19.8625 111.61585Q20.7375 111.19398 21.39375 110.61585Q22.065624 110.0221 22.346874 109.4596L23.01875 109.4596L23.01875 118.0846ZM26.05 115.8346L27.159374 115.74085Q27.284374 116.55335 27.721874 116.9596Q28.175 117.36585 28.815624 117.36585Q29.565624 117.36585 30.096874 116.78773Q30.628124 116.2096 30.628124 115.2721Q30.628124 114.36585 30.1125 113.85023Q29.6125 113.31898 28.784374 113.31898Q28.284374 113.31898 27.8625 113.55335Q27.45625 113.78773 27.221874 114.1471L26.2375 114.0221L27.065624 109.61585L31.346874 109.61585L31.346874 110.61585L27.909374 110.61585L27.45625 112.92835Q28.221874 112.38148 29.065624 112.38148Q30.190624 112.38148 30.95625 113.16273Q31.7375 113.94398 31.7375 115.17835Q31.7375 116.3346 31.065624 117.19398Q30.2375 118.22523 28.815624 118.22523Q27.64375 118.22523 26.89375 117.56898Q26.159374 116.91273 26.05 115.8346ZM33.6125 118.0846L33.6125 116.88148L34.815624 116.88148L34.815624 118.0846Q34.815624 118.74085 34.58125 119.1471Q34.346874 119.56898 33.846874 119.78773L33.55 119.3346Q33.878124 119.19398 34.034374 118.8971Q34.190624 118.61585 34.221874 118.0846L33.6125 118.0846ZM37.675 113.42835Q37.01875 113.17835 36.690624 112.74085Q36.378124 112.28773 36.378124 111.67835Q36.378124 110.74085 37.05 110.10023Q37.7375 109.4596 38.846874 109.4596Q39.971874 109.4596 40.659374 110.11585Q41.346874 110.7721 41.346874 111.7096Q41.346874 112.30335 41.034374 112.74085Q40.721874 113.17835 40.08125 113.42835Q40.878124 113.67835 41.284374 114.25648Q41.690624 114.8346 41.690624 115.63148Q41.690624 116.72523 40.909374 117.47523Q40.14375 118.22523 38.8625 118.22523Q37.596874 118.22523 36.815624 117.47523Q36.034374 116.72523 36.034374 115.60023Q36.034374 114.75648 36.45625 114.19398Q36.89375 113.63148 37.675 113.42835ZM37.45625 111.63148Q37.45625 112.24085 37.846874 112.63148Q38.253124 113.0221 38.878124 113.0221Q39.4875 113.0221 39.878124 112.6471Q40.26875 112.25648 40.26875 111.69398Q40.26875 111.11585 39.8625 110.72523Q39.45625 110.31898 38.8625 110.31898Q38.253124 110.31898 37.846874 110.7096Q37.45625 111.10023 37.45625 111.63148ZM37.128124 115.60023Q37.128124 116.05335 37.33125 116.47523Q37.55 116.8971 37.971874 117.13148Q38.39375 117.36585 38.878124 117.36585Q39.628124 117.36585 40.1125 116.88148Q40.6125 116.3971 40.6125 115.6471Q40.6125 114.88148 40.1125 114.38148Q39.6125 113.88148 38.846874 113.88148Q38.096874 113.88148 37.6125 114.38148Q37.128124 114.86585 37.128124 115.60023ZM43.253124 111.55335Q43.253124 110.63148 43.70625 109.99085Q44.175 109.35023 45.05 109.35023Q45.8625 109.35023 46.39375 109.92835Q46.925 110.50648 46.925 111.61585Q46.925 112.7096 46.378124 113.30335Q45.846874 113.88148 45.065624 113.88148Q44.284374 113.88148 43.76875 113.30335Q43.253124 112.72523 43.253124 111.55335ZM45.08125 110.06898Q44.690624 110.06898 44.425 110.41273Q44.175 110.75648 44.175 111.66273Q44.175 112.49085 44.425 112.8346Q44.690624 113.16273 45.08125 113.16273Q45.4875 113.16273 45.7375 112.81898Q46.003124 112.47523 46.003124 111.5846Q46.003124 110.74085 45.7375 110.41273Q45.471874 110.06898 45.08125 110.06898ZM45.08125 118.3971L49.784374 109.35023L50.64375 109.35023L45.95625 118.3971L45.08125 118.3971ZM48.8 116.06898Q48.8 115.1471 49.253124 114.50648Q49.721874 113.86585 50.6125 113.86585Q51.425 113.86585 51.95625 114.44398Q52.4875 115.00648 52.4875 116.13148Q52.4875 117.22523 51.940624 117.81898Q51.409374 118.3971 50.6125 118.3971Q49.846874 118.3971 49.315624 117.81898Q48.8 117.24085 48.8 116.06898ZM50.64375 114.5846Q50.2375 114.5846 49.971874 114.92835Q49.721874 115.2721 49.721874 116.17835Q49.721874 116.99085 49.9875 117.3346Q50.253124 117.67835 50.64375 117.67835Q51.034374 117.67835 51.3 117.3346Q51.565624 116.99085 51.565624 116.0846Q51.565624 115.25648 51.3 114.92835Q51.034374 114.5846 50.64375 114.5846Z" fill-rule="nonzero"/><path stroke="#757575" stroke-width="1.0" stroke-linecap="butt" d="M18.55 105.5846L145.23334 105.5846L232.56395 105.5846" fill-rule="nonzero"/><path fill="#9e9e9e" d="M234.56395 105.5846C234.56395 104.480034 233.66852 103.5846 232.56395 103.5846C231.45938 103.5846 230.56395 104.480034 230.56395 105.5846C230.56395 106.68917 231.45938 107.5846 232.56395 107.5846C233.66852 107.5846 234.56395 106.68917 234.56395 105.5846" fill-rule="nonzero"/><path fill="#1a1a1a" d="M19.471874 273.70157L19.471874 265.10782L22.721874 265.10782Q23.565624 265.10782 24.01875 265.18594Q24.659374 265.29532 25.08125 265.5922Q25.51875 265.88907 25.76875 266.42032Q26.034374 266.95157 26.034374 267.5922Q26.034374 268.68594 25.33125 269.45157Q24.64375 270.20157 22.815624 270.20157L20.6125 270.20157L20.6125 273.70157L19.471874 273.70157ZM20.6125 269.20157L22.83125 269.20157Q23.940624 269.20157 24.39375 268.79532Q24.8625 268.37344 24.8625 267.62344Q24.8625 267.0922 24.58125 266.7172Q24.315624 266.32657 23.878124 266.20157Q23.58125 266.12344 22.815624 266.12344L20.6125 266.12344L20.6125 269.20157ZM27.33125 273.70157L27.33125 267.48282L28.284374 267.48282L28.284374 268.42032Q28.64375 267.76407 28.940624 267.56094Q29.253124 267.3422 29.628124 267.3422Q30.159374 267.3422 30.70625 267.67032L30.346874 268.6547Q29.95625 268.42032 29.58125 268.42032Q29.221874 268.42032 28.940624 268.63907Q28.675 268.8422 28.565624 269.2172Q28.378124 269.7797 28.378124 270.43594L28.378124 273.70157L27.33125 273.70157ZM30.95625 270.5922Q30.95625 268.85782 31.909374 268.0297Q32.70625 267.3422 33.8625 267.3422Q35.14375 267.3422 35.95625 268.18594Q36.784374 269.01407 36.784374 270.49844Q36.784374 271.70157 36.425 272.38907Q36.065624 273.07657 35.3625 273.4672Q34.675 273.8422 33.8625 273.8422Q32.565624 273.8422 31.753124 273.01407Q30.95625 272.17032 30.95625 270.5922ZM32.034374 270.5922Q32.034374 271.7797 32.55 272.37344Q33.08125 272.9672 33.8625 272.9672Q34.659374 272.9672 35.175 272.37344Q35.690624 271.7797 35.690624 270.56094Q35.690624 269.4047 35.159374 268.81094Q34.64375 268.2172 33.8625 268.2172Q33.08125 268.2172 32.55 268.81094Q32.034374 269.38907 32.034374 270.5922ZM38.14375 274.2172L39.175 274.37344Q39.2375 274.8422 39.534374 275.06094Q39.925 275.35782 40.596874 275.35782Q41.33125 275.35782 41.721874 275.06094Q42.128124 274.76407 42.26875 274.24844Q42.3625 273.92032 42.346874 272.88907Q41.659374 273.70157 40.628124 273.70157Q39.346874 273.70157 38.64375 272.7797Q37.940624 271.8422 37.940624 270.56094Q37.940624 269.67032 38.253124 268.92032Q38.58125 268.1547 39.190624 267.74844Q39.8 267.3422 40.628124 267.3422Q41.7375 267.3422 42.45625 268.23282L42.45625 267.48282L43.425 267.48282L43.425 272.85782Q43.425 274.31094 43.128124 274.92032Q42.83125 275.5297 42.190624 275.87344Q41.55 276.23282 40.6125 276.23282Q39.503124 276.23282 38.815624 275.73282Q38.128124 275.23282 38.14375 274.2172ZM39.01875 270.48282Q39.01875 271.70157 39.503124 272.26407Q39.9875 272.82657 40.721874 272.82657Q41.45625 272.82657 41.940624 272.26407Q42.440624 271.70157 42.440624 270.51407Q42.440624 269.37344 41.925 268.79532Q41.425 268.2172 40.70625 268.2172Q40.003124 268.2172 39.503124 268.79532Q39.01875 269.35782 39.01875 270.48282ZM45.33125 273.70157L45.33125 267.48282L46.284374 267.48282L46.284374 268.42032Q46.64375 267.76407 46.940624 267.56094Q47.253124 267.3422 47.628124 267.3422Q48.159374 267.3422 48.70625 267.67032L48.346874 268.6547Q47.95625 268.42032 47.58125 268.42032Q47.221874 268.42032 46.940624 268.63907Q46.675 268.8422 46.565624 269.2172Q46.378124 269.7797 46.378124 270.43594L46.378124 273.70157L45.33125 273.70157ZM53.409374 272.93594Q52.815624 273.43594 52.26875 273.63907Q51.7375 273.8422 51.1125 273.8422Q50.08125 273.8422 49.534374 273.3422Q48.9875 272.8422 48.9875 272.06094Q48.9875 271.60782 49.190624 271.23282Q49.39375 270.8422 49.7375 270.62344Q50.08125 270.38907 50.503124 270.2797Q50.8 270.18594 51.440624 270.10782Q52.70625 269.9672 53.315624 269.74844Q53.315624 269.5297 53.315624 269.48282Q53.315624 268.82657 53.01875 268.56094Q52.6125 268.2172 51.815624 268.2172Q51.08125 268.2172 50.721874 268.48282Q50.3625 268.73282 50.190624 269.38907L49.159374 269.24844Q49.3 268.5922 49.628124 268.18594Q49.95625 267.7797 50.565624 267.56094Q51.175 267.3422 51.971874 267.3422Q52.76875 267.3422 53.26875 267.5297Q53.76875 267.7172 54.003124 267.99844Q54.2375 268.2797 54.33125 268.7172Q54.378124 268.98282 54.378124 269.68594L54.378124 271.0922Q54.378124 272.56094 54.440624 272.95157Q54.51875 273.3422 54.721874 273.70157L53.6125 273.70157Q53.45625 273.37344 53.409374 272.93594ZM53.315624 270.57657Q52.7375 270.81094 51.596874 270.98282Q50.940624 271.07657 50.675 271.20157Q50.409374 271.31094 50.253124 271.5297Q50.1125 271.74844 50.1125 272.0297Q50.1125 272.45157 50.425 272.73282Q50.753124 273.01407 51.3625 273.01407Q51.971874 273.01407 52.440624 272.74844Q52.925 272.48282 53.14375 272.01407Q53.315624 271.6547 53.315624 270.9672L53.315624 270.57657ZM56.346874 273.70157L56.346874 267.48282L57.284374 267.48282L57.284374 268.35782Q57.58125 267.88907 58.065624 267.62344Q58.55 267.3422 59.175 267.3422Q59.8625 267.3422 60.3 267.62344Q60.753124 267.9047 60.925 268.42032Q61.675 267.3422 62.846874 267.3422Q63.784374 267.3422 64.26875 267.85782Q64.76875 268.35782 64.76875 269.43594L64.76875 273.70157L63.721874 273.70157L63.721874 269.7797Q63.721874 269.1547 63.6125 268.87344Q63.51875 268.5922 63.253124 268.42032Q62.9875 268.24844 62.6125 268.24844Q61.95625 268.24844 61.51875 268.68594Q61.096874 269.12344 61.096874 270.0922L61.096874 273.70157L60.034374 273.70157L60.034374 269.6547Q60.034374 268.95157 59.76875 268.60782Q59.51875 268.24844 58.940624 268.24844Q58.4875 268.24844 58.1125 268.48282Q57.7375 268.7172 57.565624 269.17032Q57.39375 269.62344 57.39375 270.4672L57.39375 273.70157L56.346874 273.70157ZM67.34688 273.70157L67.34688 267.48282L68.28438 267.48282L68.28438 268.35782Q68.58125 267.88907 69.06563 267.62344Q69.55 267.3422 70.175 267.3422Q70.8625 267.3422 71.3 267.62344Q71.75313 267.9047 71.925 268.42032Q72.675 267.3422 73.84688 267.3422Q74.78438 267.3422 75.26875 267.85782Q75.76875 268.35782 75.76875 269.43594L75.76875 273.70157L74.72188 273.70157L74.72188 269.7797Q74.72188 269.1547 74.6125 268.87344Q74.51875 268.5922 74.25313 268.42032Q73.9875 268.24844 73.6125 268.24844Q72.95625 268.24844 72.51875 268.68594Q72.09688 269.12344 72.09688 270.0922L72.09688 273.70157L71.03438 273.70157L71.03438 269.6547Q71.03438 268.95157 70.76875 268.60782Q70.51875 268.24844 69.94063 268.24844Q69.4875 268.24844 69.1125 268.48282Q68.7375 268.7172 68.56563 269.17032Q68.39375 269.62344 68.39375 270.4672L68.39375 273.70157L67.34688 273.70157ZM82.40938 272.93594Q81.81563 273.43594 81.26875 273.63907Q80.7375 273.8422 80.1125 273.8422Q79.08125 273.8422 78.53438 273.3422Q77.9875 272.8422 77.9875 272.06094Q77.9875 271.60782 78.19063 271.23282Q78.39375 270.8422 78.7375 270.62344Q79.08125 270.38907 79.50313 270.2797Q79.8 270.18594 80.44063 270.10782Q81.70625 269.9672 82.31563 269.74844Q82.31563 269.5297 82.31563 269.48282Q82.31563 268.82657 82.01875 268.56094Q81.6125 268.2172 80.81563 268.2172Q80.08125 268.2172 79.72188 268.48282Q79.3625 268.73282 79.19063 269.38907L78.15938 269.24844Q78.3 268.5922 78.62813 268.18594Q78.95625 267.7797 79.56563 267.56094Q80.175 267.3422 80.97188 267.3422Q81.76875 267.3422 82.26875 267.5297Q82.76875 267.7172 83.00313 267.99844Q83.2375 268.2797 83.33125 268.7172Q83.37813 268.98282 83.37813 269.68594L83.37813 271.0922Q83.37813 272.56094 83.44063 272.95157Q83.51875 273.3422 83.72188 273.70157L82.6125 273.70157Q82.45625 273.37344 82.40938 272.93594ZM82.31563 270.57657Q81.7375 270.81094 80.59688 270.98282Q79.94063 271.07657 79.675 271.20157Q79.40938 271.31094 79.25313 271.5297Q79.1125 271.74844 79.1125 272.0297Q79.1125 272.45157 79.425 272.73282Q79.75313 273.01407 80.3625 273.01407Q80.97188 273.01407 81.44063 272.74844Q81.925 272.48282 82.14375 272.01407Q82.31563 271.6547 82.31563 270.9672L82.31563 270.57657ZM87.64375 272.76407L87.8 273.68594Q87.34688 273.7797 87.00313 273.7797Q86.425 273.7797 86.1125 273.60782Q85.8 273.42032 85.65938 273.12344Q85.53438 272.82657 85.53438 271.87344L85.53438 268.29532L84.76875 268.29532L84.76875 267.48282L85.53438 267.48282L85.53438 265.93594L86.58125 265.31094L86.58125 267.48282L87.64375 267.48282L87.64375 268.29532L86.58125 268.29532L86.58125 271.93594Q86.58125 272.38907 86.62813 272.51407Q86.69063 272.63907 86.81563 272.7172Q86.94063 272.79532 87.175 272.79532Q87.3625 272.79532 87.64375 272.76407ZM87.95625 270.5922Q87.95625 268.85782 88.90938 268.0297Q89.70625 267.3422 90.8625 267.3422Q92.14375 267.3422 92.95625 268.18594Q93.78438 269.01407 93.78438 270.49844Q93.78438 271.70157 93.425 272.38907Q93.06563 273.07657 92.3625 273.4672Q91.675 273.8422 90.8625 273.8422Q89.56563 273.8422 88.75313 273.01407Q87.95625 272.17032 87.95625 270.5922ZM89.03438 270.5922Q89.03438 271.7797 89.55 272.37344Q90.08125 272.9672 90.8625 272.9672Q91.65938 272.9672 92.175 272.37344Q92.69063 271.7797 92.69063 270.56094Q92.69063 269.4047 92.15938 268.81094Q91.64375 268.2172 90.8625 268.2172Q90.08125 268.2172 89.55 268.81094Q89.03438 269.38907 89.03438 270.5922ZM95.33125 273.70157L95.33125 267.48282L96.28438 267.48282L96.28438 268.42032Q96.64375 267.76407 96.94063 267.56094Q97.25313 267.3422 97.62813 267.3422Q98.15938 267.3422 98.70625 267.67032L98.34688 268.6547Q97.95625 268.42032 97.58125 268.42032Q97.22188 268.42032 96.94063 268.63907Q96.675 268.8422 96.56563 269.2172Q96.37813 269.7797 96.37813 270.43594L96.37813 273.70157L95.33125 273.70157ZM103.59688 271.70157L104.69063 271.82657Q104.44063 272.7797 103.7375 273.31094Q103.03438 273.8422 101.95625 273.8422Q100.59688 273.8422 99.78438 272.99844Q98.9875 272.1547 98.9875 270.63907Q98.9875 269.07657 99.8 268.2172Q100.6125 267.3422 101.89375 267.3422Q103.14375 267.3422 103.925 268.18594Q104.72188 269.0297 104.72188 270.57657Q104.72188 270.67032 104.72188 270.85782L100.08125 270.85782Q100.14375 271.88907 100.65938 272.43594Q101.175 272.9672 101.95625 272.9672Q102.53438 272.9672 102.94063 272.67032Q103.3625 272.35782 103.59688 271.70157ZM100.14375 269.99844L103.6125 269.99844Q103.55 269.20157 103.22188 268.81094Q102.70625 268.20157 101.90938 268.20157Q101.175 268.20157 100.675 268.68594Q100.19063 269.17032 100.14375 269.99844Z" fill-rule="nonzero"/><path fill="#9e9e9e" d="M19.05 288.45157L20.159374 288.35782Q20.284374 289.17032 20.721874 289.57657Q21.175 289.98282 21.815624 289.98282Q22.565624 289.98282 23.096874 289.4047Q23.628124 288.82657 23.628124 287.88907Q23.628124 286.98282 23.1125 286.4672Q22.6125 285.93594 21.784374 285.93594Q21.284374 285.93594 20.8625 286.17032Q20.45625 286.4047 20.221874 286.76407L19.2375 286.63907L20.065624 282.23282L24.346874 282.23282L24.346874 283.23282L20.909374 283.23282L20.45625 285.54532Q21.221874 284.99844 22.065624 284.99844Q23.190624 284.99844 23.95625 285.7797Q24.7375 286.56094 24.7375 287.79532Q24.7375 288.95157 24.065624 289.81094Q23.2375 290.8422 21.815624 290.8422Q20.64375 290.8422 19.89375 290.18594Q19.159374 289.5297 19.05 288.45157ZM30.01875 290.70157L28.971874 290.70157L28.971874 283.98282Q28.58125 284.3422 27.95625 284.7172Q27.346874 285.07657 26.8625 285.24844L26.8625 284.23282Q27.7375 283.81094 28.39375 283.23282Q29.065624 282.63907 29.346874 282.07657L30.01875 282.07657L30.01875 290.70157ZM33.6125 290.70157L33.6125 289.49844L34.815624 289.49844L34.815624 290.70157Q34.815624 291.35782 34.58125 291.76407Q34.346874 292.18594 33.846874 292.4047L33.55 291.95157Q33.878124 291.81094 34.034374 291.51407Q34.190624 291.23282 34.221874 290.70157L33.6125 290.70157ZM36.1125 283.23282L36.1125 282.2172L41.675 282.2172L41.675 283.04532Q40.8625 283.92032 40.05 285.37344Q39.253124 286.81094 38.815624 288.3422Q38.4875 289.42032 38.409374 290.70157L37.315624 290.70157Q37.33125 289.68594 37.70625 288.24844Q38.096874 286.81094 38.8 285.48282Q39.51875 284.1547 40.33125 283.23282L36.1125 283.23282ZM43.253124 284.17032Q43.253124 283.24844 43.70625 282.60782Q44.175 281.9672 45.05 281.9672Q45.8625 281.9672 46.39375 282.54532Q46.925 283.12344 46.925 284.23282Q46.925 285.32657 46.378124 285.92032Q45.846874 286.49844 45.065624 286.49844Q44.284374 286.49844 43.76875 285.92032Q43.253124 285.3422 43.253124 284.17032ZM45.08125 282.68594Q44.690624 282.68594 44.425 283.0297Q44.175 283.37344 44.175 284.2797Q44.175 285.10782 44.425 285.45157Q44.690624 285.7797 45.08125 285.7797Q45.4875 285.7797 45.7375 285.43594Q46.003124 285.0922 46.003124 284.20157Q46.003124 283.35782 45.7375 283.0297Q45.471874 282.68594 45.08125 282.68594ZM45.08125 291.01407L49.784374 281.9672L50.64375 281.9672L45.95625 291.01407L45.08125 291.01407ZM48.8 288.68594Q48.8 287.76407 49.253124 287.12344Q49.721874 286.48282 50.6125 286.48282Q51.425 286.48282 51.95625 287.06094Q52.4875 287.62344 52.4875 288.74844Q52.4875 289.8422 51.940624 290.43594Q51.409374 291.01407 50.6125 291.01407Q49.846874 291.01407 49.315624 290.43594Q48.8 289.85782 48.8 288.68594ZM50.64375 287.20157Q50.2375 287.20157 49.971874 287.54532Q49.721874 287.88907 49.721874 288.79532Q49.721874 289.60782 49.9875 289.95157Q50.253124 290.29532 50.64375 290.29532Q51.034374 290.29532 51.3 289.95157Q51.565624 289.60782 51.565624 288.70157Q51.565624 287.87344 51.3 287.54532Q51.034374 287.20157 50.64375 287.20157Z" fill-rule="nonzero"/><path stroke="#757575" stroke-width="1.0" stroke-linecap="butt" d="M18.55 278.20157L145.23334 278.20157L229.33583 278.20157" fill-rule="nonzero"/><path fill="#9e9e9e" d="M231.33583 278.20157C231.33583 277.09702 230.4404 276.20157 229.33583 276.20157C228.23126 276.20157 227.33583 277.09702 227.33583 278.20157C227.33583 279.30615 228.23126 280.20157 229.33583 280.20157C230.4404 280.20157 231.33583 279.30615 231.33583 278.20157" fill-rule="nonzero"/><path fill="#1a1a1a" d="M504.3875 88.86581L504.3875 80.27206L508.2 80.27206Q509.35626 80.27206 509.95 80.50643Q510.54376 80.74081 510.90314 81.33456Q511.2625 81.91268 511.2625 82.61581Q511.2625 83.53768 510.66876 84.16268Q510.075 84.78768 508.84064 84.95956Q509.29376 85.17831 509.52814 85.38143Q510.02814 85.83456 510.46564 86.52206L511.96564 88.86581L510.52814 88.86581L509.40314 87.08456Q508.90314 86.30331 508.575 85.89706Q508.2625 85.49081 507.9969 85.33456Q507.7469 85.16268 507.48126 85.08456Q507.29376 85.05331 506.85626 85.05331L505.52814 85.05331L505.52814 88.86581L504.3875 88.86581ZM505.52814 84.06893L507.98126 84.06893Q508.7469 84.06893 509.1844 83.91268Q509.6375 83.74081 509.85626 83.39706Q510.09064 83.03768 510.09064 82.61581Q510.09064 82.00643 509.6375 81.61581Q509.2 81.22518 508.2469 81.22518L505.52814 81.22518L505.52814 84.06893ZM517.4969 86.86581L518.59064 86.99081Q518.34064 87.94393 517.6375 88.47518Q516.9344 89.00643 515.85626 89.00643Q514.4969 89.00643 513.6844 88.16268Q512.8875 87.31893 512.8875 85.80331Q512.8875 84.24081 513.7 83.38143Q514.5125 82.50643 515.79376 82.50643Q517.04376 82.50643 517.825 83.35018Q518.6219 84.19393 518.6219 85.74081Q518.6219 85.83456 518.6219 86.02206L513.98126 86.02206Q514.04376 87.05331 514.5594 87.60018Q515.075 88.13143 515.85626 88.13143Q516.4344 88.13143 516.84064 87.83456Q517.2625 87.52206 517.4969 86.86581ZM514.04376 85.16268L517.5125 85.16268Q517.45 84.36581 517.1219 83.97518Q516.60626 83.36581 515.8094 83.36581Q515.075 83.36581 514.575 83.85018Q514.09064 84.33456 514.04376 85.16268ZM519.825 87.00643L520.85626 86.85018Q520.95 87.47518 521.34064 87.80331Q521.7469 88.13143 522.48126 88.13143Q523.2 88.13143 523.54376 87.85018Q523.90314 87.55331 523.90314 87.14706Q523.90314 86.78768 523.59064 86.58456Q523.3719 86.44393 522.5125 86.22518Q521.35626 85.92831 520.90314 85.72518Q520.46564 85.50643 520.23126 85.13143Q519.9969 84.75643 519.9969 84.28768Q519.9969 83.88143 520.1844 83.52206Q520.3719 83.16268 520.7 82.92831Q520.95 82.75643 521.3719 82.63143Q521.79376 82.50643 522.29376 82.50643Q523.0125 82.50643 523.5594 82.72518Q524.1219 82.92831 524.3875 83.28768Q524.65314 83.64706 524.7469 84.24081L523.71564 84.38143Q523.65314 83.91268 523.3094 83.64706Q522.98126 83.36581 522.35626 83.36581Q521.6375 83.36581 521.325 83.61581Q521.0125 83.85018 521.0125 84.17831Q521.0125 84.38143 521.1375 84.53768Q521.27814 84.70956 521.54376 84.81893Q521.7 84.88143 522.48126 85.08456Q523.60626 85.39706 524.04376 85.58456Q524.48126 85.77206 524.73126 86.13143Q524.98126 86.49081 524.98126 87.03768Q524.98126 87.56893 524.66876 88.03768Q524.3719 88.49081 523.79376 88.75643Q523.21564 89.00643 522.48126 89.00643Q521.2625 89.00643 520.6219 88.50643Q519.9969 87.99081 519.825 87.00643ZM527.2469 91.25643L527.2469 82.64706L528.2 82.64706L528.2 83.44393Q528.54376 82.97518 528.96564 82.74081Q529.40314 82.50643 530.0125 82.50643Q530.8094 82.50643 531.41876 82.91268Q532.02814 83.31893 532.325 84.06893Q532.6375 84.81893 532.6375 85.70956Q532.6375 86.66268 532.29376 87.42831Q531.96564 88.19393 531.3094 88.60018Q530.65314 89.00643 529.9344 89.00643Q529.40314 89.00643 528.98126 88.78768Q528.5594 88.55331 528.29376 88.22518L528.29376 91.25643L527.2469 91.25643ZM528.2 85.78768Q528.2 86.99081 528.6844 87.56893Q529.16876 88.13143 529.85626 88.13143Q530.5594 88.13143 531.0594 87.53768Q531.5594 86.94393 531.5594 85.69393Q531.5594 84.50643 531.075 83.92831Q530.59064 83.33456 529.90314 83.33456Q529.23126 83.33456 528.71564 83.95956Q528.2 84.58456 528.2 85.78768ZM533.85626 85.75643Q533.85626 84.02206 534.8094 83.19393Q535.60626 82.50643 536.7625 82.50643Q538.04376 82.50643 538.85626 83.35018Q539.6844 84.17831 539.6844 85.66268Q539.6844 86.86581 539.325 87.55331Q538.96564 88.24081 538.2625 88.63143Q537.575 89.00643 536.7625 89.00643Q535.46564 89.00643 534.65314 88.17831Q533.85626 87.33456 533.85626 85.75643ZM534.9344 85.75643Q534.9344 86.94393 535.45 87.53768Q535.98126 88.13143 536.7625 88.13143Q537.5594 88.13143 538.075 87.53768Q538.59064 86.94393 538.59064 85.72518Q538.59064 84.56893 538.0594 83.97518Q537.54376 83.38143 536.7625 83.38143Q535.98126 83.38143 535.45 83.97518Q534.9344 84.55331 534.9344 85.75643ZM541.2469 88.86581L541.2469 82.64706L542.1844 82.64706L542.1844 83.52206Q542.8719 82.50643 544.16876 82.50643Q544.73126 82.50643 545.2 82.70956Q545.6844 82.91268 545.91876 83.24081Q546.15314 83.56893 546.2469 84.00643Q546.29376 84.30331 546.29376 85.03768L546.29376 88.86581L545.2469 88.86581L545.2469 85.08456Q545.2469 84.42831 545.1219 84.11581Q544.9969 83.80331 544.6844 83.61581Q544.3719 83.41268 543.95 83.41268Q543.27814 83.41268 542.77814 83.85018Q542.29376 84.27206 542.29376 85.45956L542.29376 88.86581L541.2469 88.86581ZM547.825 87.00643L548.85626 86.85018Q548.95 87.47518 549.34064 87.80331Q549.7469 88.13143 550.48126 88.13143Q551.2 88.13143 551.54376 87.85018Q551.90314 87.55331 551.90314 87.14706Q551.90314 86.78768 551.59064 86.58456Q551.3719 86.44393 550.5125 86.22518Q549.35626 85.92831 548.90314 85.72518Q548.46564 85.50643 548.23126 85.13143Q547.9969 84.75643 547.9969 84.28768Q547.9969 83.88143 548.1844 83.52206Q548.3719 83.16268 548.7 82.92831Q548.95 82.75643 549.3719 82.63143Q549.79376 82.50643 550.29376 82.50643Q551.0125 82.50643 551.5594 82.72518Q552.1219 82.92831 552.3875 83.28768Q552.65314 83.64706 552.7469 84.24081L551.71564 84.38143Q551.65314 83.91268 551.3094 83.64706Q550.98126 83.36581 550.35626 83.36581Q549.6375 83.36581 549.325 83.61581Q549.0125 83.85018 549.0125 84.17831Q549.0125 84.38143 549.1375 84.53768Q549.27814 84.70956 549.54376 84.81893Q549.7 84.88143 550.48126 85.08456Q551.60626 85.39706 552.04376 85.58456Q552.48126 85.77206 552.73126 86.13143Q552.98126 86.49081 552.98126 87.03768Q552.98126 87.56893 552.66876 88.03768Q552.3719 88.49081 551.79376 88.75643Q551.21564 89.00643 550.48126 89.00643Q549.2625 89.00643 548.6219 88.50643Q547.9969 87.99081 547.825 87.00643ZM559.3094 88.10018Q558.71564 88.60018 558.16876 88.80331Q557.6375 89.00643 557.0125 89.00643Q555.98126 89.00643 555.4344 88.50643Q554.8875 88.00643 554.8875 87.22518Q554.8875 86.77206 555.09064 86.39706Q555.29376 86.00643 555.6375 85.78768Q555.98126 85.55331 556.40314 85.44393Q556.7 85.35018 557.34064 85.27206Q558.60626 85.13143 559.21564 84.91268Q559.21564 84.69393 559.21564 84.64706Q559.21564 83.99081 558.91876 83.72518Q558.5125 83.38143 557.71564 83.38143Q556.98126 83.38143 556.6219 83.64706Q556.2625 83.89706 556.09064 84.55331L555.0594 84.41268Q555.2 83.75643 555.52814 83.35018Q555.85626 82.94393 556.46564 82.72518Q557.075 82.50643 557.8719 82.50643Q558.66876 82.50643 559.16876 82.69393Q559.66876 82.88143 559.90314 83.16268Q560.1375 83.44393 560.23126 83.88143Q560.27814 84.14706 560.27814 84.85018L560.27814 86.25643Q560.27814 87.72518 560.34064 88.11581Q560.41876 88.50643 560.6219 88.86581L559.5125 88.86581Q559.35626 88.53768 559.3094 88.10018ZM559.21564 85.74081Q558.6375 85.97518 557.4969 86.14706Q556.84064 86.24081 556.575 86.36581Q556.3094 86.47518 556.15314 86.69393Q556.0125 86.91268 556.0125 87.19393Q556.0125 87.61581 556.325 87.89706Q556.65314 88.17831 557.2625 88.17831Q557.8719 88.17831 558.34064 87.91268Q558.825 87.64706 559.04376 87.17831Q559.21564 86.81893 559.21564 86.13143L559.21564 85.74081ZM563.21564 88.86581L562.23126 88.86581L562.23126 80.27206L563.29376 80.27206L563.29376 83.33456Q563.96564 82.50643 564.9969 82.50643Q565.575 82.50643 566.075 82.74081Q566.59064 82.95956 566.91876 83.38143Q567.2625 83.80331 567.45 84.39706Q567.6375 84.99081 567.6375 85.66268Q567.6375 87.25643 566.84064 88.13143Q566.04376 89.00643 564.95 89.00643Q563.84064 89.00643 563.21564 88.08456L563.21564 88.86581ZM563.2 85.70956Q563.2 86.81893 563.5125 87.31893Q564.0125 88.13143 564.85626 88.13143Q565.54376 88.13143 566.04376 87.53768Q566.5594 86.94393 566.5594 85.74081Q566.5594 84.52206 566.075 83.94393Q565.59064 83.36581 564.90314 83.36581Q564.21564 83.36581 563.7 83.97518Q563.2 84.56893 563.2 85.70956ZM569.2469 81.49081L569.2469 80.27206L570.3094 80.27206L570.3094 81.49081L569.2469 81.49081ZM569.2469 88.86581L569.2469 82.64706L570.3094 82.64706L570.3094 88.86581L569.2469 88.86581ZM572.21564 88.86581L572.21564 80.27206L573.27814 80.27206L573.27814 88.86581L572.21564 88.86581ZM579.4969 86.86581L580.59064 86.99081Q580.34064 87.94393 579.6375 88.47518Q578.9344 89.00643 577.85626 89.00643Q576.4969 89.00643 575.6844 88.16268Q574.8875 87.31893 574.8875 85.80331Q574.8875 84.24081 575.7 83.38143Q576.5125 82.50643 577.79376 82.50643Q579.04376 82.50643 579.825 83.35018Q580.6219 84.19393 580.6219 85.74081Q580.6219 85.83456 580.6219 86.02206L575.98126 86.02206Q576.04376 87.05331 576.5594 87.60018Q577.075 88.13143 577.85626 88.13143Q578.4344 88.13143 578.84064 87.83456Q579.2625 87.52206 579.4969 86.86581ZM576.04376 85.16268L579.5125 85.16268Q579.45 84.36581 579.1219 83.97518Q578.60626 83.36581 577.8094 83.36581Q577.075 83.36581 576.575 83.85018Q576.09064 84.33456 576.04376 85.16268Z" fill-rule="nonzero"/><path fill="#9e9e9e" d="M555.575 101.20956Q554.91876 100.95956 554.59064 100.52206Q554.27814 100.06893 554.27814 99.45956Q554.27814 98.52206 554.95 97.88143Q555.6375 97.24081 556.7469 97.24081Q557.8719 97.24081 558.5594 97.89706Q559.2469 98.55331 559.2469 99.49081Q559.2469 100.08456 558.9344 100.52206Q558.6219 100.95956 557.98126 101.20956Q558.77814 101.45956 559.1844 102.03768Q559.59064 102.61581 559.59064 103.41268Q559.59064 104.50643 558.8094 105.25643Q558.04376 106.00643 556.7625 106.00643Q555.4969 106.00643 554.71564 105.25643Q553.9344 104.50643 553.9344 103.38143Q553.9344 102.53768 554.35626 101.97518Q554.79376 101.41268 555.575 101.20956ZM555.35626 99.41268Q555.35626 100.02206 555.7469 100.41268Q556.15314 100.80331 556.77814 100.80331Q557.3875 100.80331 557.77814 100.42831Q558.16876 100.03768 558.16876 99.47518Q558.16876 98.89706 557.7625 98.50643Q557.35626 98.10018 556.7625 98.10018Q556.15314 98.10018 555.7469 98.49081Q555.35626 98.88143 555.35626 99.41268ZM555.02814 103.38143Q555.02814 103.83456 555.23126 104.25643Q555.45 104.67831 555.8719 104.91268Q556.29376 105.14706 556.77814 105.14706Q557.52814 105.14706 558.0125 104.66268Q558.5125 104.17831 558.5125 103.42831Q558.5125 102.66268 558.0125 102.16268Q557.5125 101.66268 556.7469 101.66268Q555.9969 101.66268 555.5125 102.16268Q555.02814 102.64706 555.02814 103.38143ZM561.5125 105.86581L561.5125 104.66268L562.71564 104.66268L562.71564 105.86581Q562.71564 106.52206 562.48126 106.92831Q562.2469 107.35018 561.7469 107.56893L561.45 107.11581Q561.77814 106.97518 561.9344 106.67831Q562.09064 106.39706 562.1219 105.86581L561.5125 105.86581ZM563.95 103.60018L565.0125 103.45956Q565.1844 104.35018 565.6219 104.75643Q566.0594 105.14706 566.6844 105.14706Q567.4344 105.14706 567.95 104.63143Q568.46564 104.11581 568.46564 103.35018Q568.46564 102.63143 567.98126 102.16268Q567.5125 101.67831 566.77814 101.67831Q566.48126 101.67831 566.02814 101.80331L566.15314 100.86581Q566.2625 100.88143 566.325 100.88143Q566.9969 100.88143 567.52814 100.53768Q568.075 100.17831 568.075 99.44393Q568.075 98.86581 567.6844 98.49081Q567.29376 98.10018 566.66876 98.10018Q566.0594 98.10018 565.6375 98.49081Q565.23126 98.88143 565.1219 99.64706L564.0594 99.45956Q564.2469 98.41268 564.9344 97.83456Q565.6219 97.24081 566.6375 97.24081Q567.34064 97.24081 567.9344 97.55331Q568.52814 97.85018 568.84064 98.36581Q569.15314 98.88143 569.15314 99.47518Q569.15314 100.02206 568.85626 100.49081Q568.5594 100.94393 567.98126 101.20956Q568.73126 101.38143 569.15314 101.94393Q569.575 102.49081 569.575 103.33456Q569.575 104.45956 568.7469 105.24081Q567.9344 106.02206 566.6844 106.02206Q565.5594 106.02206 564.8094 105.35018Q564.0594 104.66268 563.95 103.60018ZM571.15314 99.33456Q571.15314 98.41268 571.60626 97.77206Q572.075 97.13143 572.95 97.13143Q573.7625 97.13143 574.29376 97.70956Q574.825 98.28768 574.825 99.39706Q574.825 100.49081 574.27814 101.08456Q573.7469 101.66268 572.96564 101.66268Q572.1844 101.66268 571.66876 101.08456Q571.15314 100.50643 571.15314 99.33456ZM572.98126 97.85018Q572.59064 97.85018 572.325 98.19393Q572.075 98.53768 572.075 99.44393Q572.075 100.27206 572.325 100.61581Q572.59064 100.94393 572.98126 100.94393Q573.3875 100.94393 573.6375 100.60018Q573.90314 100.25643 573.90314 99.36581Q573.90314 98.52206 573.6375 98.19393Q573.3719 97.85018 572.98126 97.85018ZM572.98126 106.17831L577.6844 97.13143L578.54376 97.13143L573.85626 106.17831L572.98126 106.17831ZM576.7 103.85018Q576.7 102.92831 577.15314 102.28768Q577.6219 101.64706 578.5125 101.64706Q579.325 101.64706 579.85626 102.22518Q580.3875 102.78768 580.3875 103.91268Q580.3875 105.00643 579.84064 105.60018Q579.3094 106.17831 578.5125 106.17831Q577.7469 106.17831 577.21564 105.60018Q576.7 105.02206 576.7 103.85018ZM578.54376 102.36581Q578.1375 102.36581 577.8719 102.70956Q577.6219 103.05331 577.6219 103.95956Q577.6219 104.77206 577.8875 105.11581Q578.15314 105.45956 578.54376 105.45956Q578.9344 105.45956 579.2 105.11581Q579.46564 104.77206 579.46564 103.86581Q579.46564 103.03768 579.2 102.70956Q578.9344 102.36581 578.54376 102.36581Z" fill-rule="nonzero"/><path stroke="#757575" stroke-width="1.0" stroke-linecap="butt" d="M581.45 93.36581L454.76666 93.36581L336.57846 96.96695" fill-rule="nonzero"/><path fill="#9e9e9e" d="M338.57846 96.96695C338.57846 95.86238 337.68304 94.96695 336.57846 94.96695C335.4739 94.96695 334.57846 95.86238 334.57846 96.96695C334.57846 98.071526 335.4739 98.96695 336.57846 98.96695C337.68304 98.96695 338.57846 98.071526 338.57846 96.96695" fill-rule="nonzero"/><path fill="#1a1a1a" d="M497.4344 119.86581L500.73126 111.27206L501.95 111.27206L505.46564 119.86581L504.1844 119.86581L503.16876 117.25643L499.59064 117.25643L498.6375 119.86581L497.4344 119.86581ZM499.91876 116.33456L502.825 116.33456L501.9344 113.95956Q501.5125 112.88143 501.325 112.17831Q501.15314 113.00643 500.85626 113.81893L499.91876 116.33456ZM505.2469 119.86581L505.2469 113.64706L506.1844 113.64706L506.1844 114.52206Q506.48126 114.05331 506.96564 113.78768Q507.45 113.50643 508.075 113.50643Q508.7625 113.50643 509.2 113.78768Q509.65314 114.06893 509.825 114.58456Q510.575 113.50643 511.7469 113.50643Q512.6844 113.50643 513.16876 114.02206Q513.66876 114.52206 513.66876 115.60018L513.66876 119.86581L512.6219 119.86581L512.6219 115.94393Q512.6219 115.31893 512.5125 115.03768Q512.41876 114.75643 512.15314 114.58456Q511.8875 114.41268 511.5125 114.41268Q510.85626 114.41268 510.41876 114.85018Q509.9969 115.28768 509.9969 116.25643L509.9969 119.86581L508.9344 119.86581L508.9344 115.81893Q508.9344 115.11581 508.66876 114.77206Q508.41876 114.41268 507.84064 114.41268Q507.3875 114.41268 507.0125 114.64706Q506.6375 114.88143 506.46564 115.33456Q506.29376 115.78768 506.29376 116.63143L506.29376 119.86581L505.2469 119.86581ZM516.2469 119.86581L516.2469 113.64706L517.1844 113.64706L517.1844 114.52206Q517.48126 114.05331 517.96564 113.78768Q518.45 113.50643 519.075 113.50643Q519.7625 113.50643 520.2 113.78768Q520.65314 114.06893 520.825 114.58456Q521.575 113.50643 522.7469 113.50643Q523.6844 113.50643 524.16876 114.02206Q524.66876 114.52206 524.66876 115.60018L524.66876 119.86581L523.6219 119.86581L523.6219 115.94393Q523.6219 115.31893 523.5125 115.03768Q523.41876 114.75643 523.15314 114.58456Q522.8875 114.41268 522.5125 114.41268Q521.85626 114.41268 521.41876 114.85018Q520.9969 115.28768 520.9969 116.25643L520.9969 119.86581L519.9344 119.86581L519.9344 115.81893Q519.9344 115.11581 519.66876 114.77206Q519.41876 114.41268 518.84064 114.41268Q518.3875 114.41268 518.0125 114.64706Q517.6375 114.88143 517.46564 115.33456Q517.29376 115.78768 517.29376 116.63143L517.29376 119.86581L516.2469 119.86581ZM527.2469 112.49081L527.2469 111.27206L528.3094 111.27206L528.3094 112.49081L527.2469 112.49081ZM527.2469 119.86581L527.2469 113.64706L528.3094 113.64706L528.3094 119.86581L527.2469 119.86581ZM530.2469 119.86581L530.2469 113.64706L531.1844 113.64706L531.1844 114.52206Q531.8719 113.50643 533.16876 113.50643Q533.73126 113.50643 534.2 113.70956Q534.6844 113.91268 534.91876 114.24081Q535.15314 114.56893 535.2469 115.00643Q535.29376 115.30331 535.29376 116.03768L535.29376 119.86581L534.2469 119.86581L534.2469 116.08456Q534.2469 115.42831 534.1219 115.11581Q533.9969 114.80331 533.6844 114.61581Q533.3719 114.41268 532.95 114.41268Q532.27814 114.41268 531.77814 114.85018Q531.29376 115.27206 531.29376 116.45956L531.29376 119.86581L530.2469 119.86581ZM537.2469 112.49081L537.2469 111.27206L538.3094 111.27206L538.3094 112.49081L537.2469 112.49081ZM537.2469 119.86581L537.2469 113.64706L538.3094 113.64706L538.3094 119.86581L537.2469 119.86581ZM539.825 118.00643L540.85626 117.85018Q540.95 118.47518 541.34064 118.80331Q541.7469 119.13143 542.48126 119.13143Q543.2 119.13143 543.54376 118.85018Q543.90314 118.55331 543.90314 118.14706Q543.90314 117.78768 543.59064 117.58456Q543.3719 117.44393 542.5125 117.22518Q541.35626 116.92831 540.90314 116.72518Q540.46564 116.50643 540.23126 116.13143Q539.9969 115.75643 539.9969 115.28768Q539.9969 114.88143 540.1844 114.52206Q540.3719 114.16268 540.7 113.92831Q540.95 113.75643 541.3719 113.63143Q541.79376 113.50643 542.29376 113.50643Q543.0125 113.50643 543.5594 113.72518Q544.1219 113.92831 544.3875 114.28768Q544.65314 114.64706 544.7469 115.24081L543.71564 115.38143Q543.65314 114.91268 543.3094 114.64706Q542.98126 114.36581 542.35626 114.36581Q541.6375 114.36581 541.325 114.61581Q541.0125 114.85018 541.0125 115.17831Q541.0125 115.38143 541.1375 115.53768Q541.27814 115.70956 541.54376 115.81893Q541.7 115.88143 542.48126 116.08456Q543.60626 116.39706 544.04376 116.58456Q544.48126 116.77206 544.73126 117.13143Q544.98126 117.49081 544.98126 118.03768Q544.98126 118.56893 544.66876 119.03768Q544.3719 119.49081 543.79376 119.75643Q543.21564 120.00643 542.48126 120.00643Q541.2625 120.00643 540.6219 119.50643Q539.9969 118.99081 539.825 118.00643ZM549.54376 118.92831L549.7 119.85018Q549.2469 119.94393 548.90314 119.94393Q548.325 119.94393 548.0125 119.77206Q547.7 119.58456 547.5594 119.28768Q547.4344 118.99081 547.4344 118.03768L547.4344 114.45956L546.66876 114.45956L546.66876 113.64706L547.4344 113.64706L547.4344 112.10018L548.48126 111.47518L548.48126 113.64706L549.54376 113.64706L549.54376 114.45956L548.48126 114.45956L548.48126 118.10018Q548.48126 118.55331 548.52814 118.67831Q548.59064 118.80331 548.71564 118.88143Q548.84064 118.95956 549.075 118.95956Q549.2625 118.95956 549.54376 118.92831ZM550.23126 119.86581L550.23126 113.64706L551.1844 113.64706L551.1844 114.58456Q551.54376 113.92831 551.84064 113.72518Q552.15314 113.50643 552.52814 113.50643Q553.0594 113.50643 553.60626 113.83456L553.2469 114.81893Q552.85626 114.58456 552.48126 114.58456Q552.1219 114.58456 551.84064 114.80331Q551.575 115.00643 551.46564 115.38143Q551.27814 115.94393 551.27814 116.60018L551.27814 119.86581L550.23126 119.86581ZM558.3094 119.10018Q557.71564 119.60018 557.16876 119.80331Q556.6375 120.00643 556.0125 120.00643Q554.98126 120.00643 554.4344 119.50643Q553.8875 119.00643 553.8875 118.22518Q553.8875 117.77206 554.09064 117.39706Q554.29376 117.00643 554.6375 116.78768Q554.98126 116.55331 555.40314 116.44393Q555.7 116.35018 556.34064 116.27206Q557.60626 116.13143 558.21564 115.91268Q558.21564 115.69393 558.21564 115.64706Q558.21564 114.99081 557.91876 114.72518Q557.5125 114.38143 556.71564 114.38143Q555.98126 114.38143 555.6219 114.64706Q555.2625 114.89706 555.09064 115.55331L554.0594 115.41268Q554.2 114.75643 554.52814 114.35018Q554.85626 113.94393 555.46564 113.72518Q556.075 113.50643 556.8719 113.50643Q557.66876 113.50643 558.16876 113.69393Q558.66876 113.88143 558.90314 114.16268Q559.1375 114.44393 559.23126 114.88143Q559.27814 115.14706 559.27814 115.85018L559.27814 117.25643Q559.27814 118.72518 559.34064 119.11581Q559.41876 119.50643 559.6219 119.86581L558.5125 119.86581Q558.35626 119.53768 558.3094 119.10018ZM558.21564 116.74081Q557.6375 116.97518 556.4969 117.14706Q555.84064 117.24081 555.575 117.36581Q555.3094 117.47518 555.15314 117.69393Q555.0125 117.91268 555.0125 118.19393Q555.0125 118.61581 555.325 118.89706Q555.65314 119.17831 556.2625 119.17831Q556.8719 119.17831 557.34064 118.91268Q557.825 118.64706 558.04376 118.17831Q558.21564 117.81893 558.21564 117.13143L558.21564 116.74081ZM563.54376 118.92831L563.7 119.85018Q563.2469 119.94393 562.90314 119.94393Q562.325 119.94393 562.0125 119.77206Q561.7 119.58456 561.5594 119.28768Q561.4344 118.99081 561.4344 118.03768L561.4344 114.45956L560.66876 114.45956L560.66876 113.64706L561.4344 113.64706L561.4344 112.10018L562.48126 111.47518L562.48126 113.64706L563.54376 113.64706L563.54376 114.45956L562.48126 114.45956L562.48126 118.10018Q562.48126 118.55331 562.52814 118.67831Q562.59064 118.80331 562.71564 118.88143Q562.84064 118.95956 563.075 118.95956Q563.2625 118.95956 563.54376 118.92831ZM563.85626 116.75643Q563.85626 115.02206 564.8094 114.19393Q565.60626 113.50643 566.7625 113.50643Q568.04376 113.50643 568.85626 114.35018Q569.6844 115.17831 569.6844 116.66268Q569.6844 117.86581 569.325 118.55331Q568.96564 119.24081 568.2625 119.63143Q567.575 120.00643 566.7625 120.00643Q565.46564 120.00643 564.65314 119.17831Q563.85626 118.33456 563.85626 116.75643ZM564.9344 116.75643Q564.9344 117.94393 565.45 118.53768Q565.98126 119.13143 566.7625 119.13143Q567.5594 119.13143 568.075 118.53768Q568.59064 117.94393 568.59064 116.72518Q568.59064 115.56893 568.0594 114.97518Q567.54376 114.38143 566.7625 114.38143Q565.98126 114.38143 565.45 114.97518Q564.9344 115.55331 564.9344 116.75643ZM571.23126 119.86581L571.23126 113.64706L572.1844 113.64706L572.1844 114.58456Q572.54376 113.92831 572.84064 113.72518Q573.15314 113.50643 573.52814 113.50643Q574.0594 113.50643 574.60626 113.83456L574.2469 114.81893Q573.85626 114.58456 573.48126 114.58456Q573.1219 114.58456 572.84064 114.80331Q572.575 115.00643 572.46564 115.38143Q572.27814 115.94393 572.27814 116.60018L572.27814 119.86581L571.23126 119.86581ZM579.4969 117.86581L580.59064 117.99081Q580.34064 118.94393 579.6375 119.47518Q578.9344 120.00643 577.85626 120.00643Q576.4969 120.00643 575.6844 119.16268Q574.8875 118.31893 574.8875 116.80331Q574.8875 115.24081 575.7 114.38143Q576.5125 113.50643 577.79376 113.50643Q579.04376 113.50643 579.825 114.35018Q580.6219 115.19393 580.6219 116.74081Q580.6219 116.83456 580.6219 117.02206L575.98126 117.02206Q576.04376 118.05331 576.5594 118.60018Q577.075 119.13143 577.85626 119.13143Q578.4344 119.13143 578.84064 118.83456Q579.2625 118.52206 579.4969 117.86581ZM576.04376 116.16268L579.5125 116.16268Q579.45 115.36581 579.1219 114.97518Q578.60626 114.36581 577.8094 114.36581Q577.075 114.36581 576.575 114.85018Q576.09064 115.33456 576.04376 116.16268Z" fill-rule="nonzero"/><path fill="#9e9e9e" d="M554.0125 129.39706L554.0125 128.38144L559.575 128.38144L559.575 129.20956Q558.7625 130.08456 557.95 131.53769Q557.15314 132.97519 556.71564 134.50644Q556.3875 135.58456 556.3094 136.86581L555.21564 136.86581Q555.23126 135.85019 555.60626 134.41269Q555.9969 132.97519 556.7 131.64706Q557.41876 130.31894 558.23126 129.39706L554.0125 129.39706ZM561.5125 136.86581L561.5125 135.66269L562.71564 135.66269L562.71564 136.86581Q562.71564 137.52206 562.48126 137.92831Q562.2469 138.35019 561.7469 138.56894L561.45 138.11581Q561.77814 137.97519 561.9344 137.67831Q562.09064 137.39706 562.1219 136.86581L561.5125 136.86581ZM563.95 134.61581L565.0594 134.52206Q565.1844 135.33456 565.6219 135.74081Q566.075 136.14706 566.71564 136.14706Q567.46564 136.14706 567.9969 135.56894Q568.52814 134.99081 568.52814 134.05331Q568.52814 133.14706 568.0125 132.63144Q567.5125 132.10019 566.6844 132.10019Q566.1844 132.10019 565.7625 132.33456Q565.35626 132.56894 565.1219 132.92831L564.1375 132.80331L564.96564 128.39706L569.2469 128.39706L569.2469 129.39706L565.8094 129.39706L565.35626 131.70956Q566.1219 131.16269 566.96564 131.16269Q568.09064 131.16269 568.85626 131.94394Q569.6375 132.72519 569.6375 133.95956Q569.6375 135.11581 568.96564 135.97519Q568.1375 137.00644 566.71564 137.00644Q565.54376 137.00644 564.79376 136.35019Q564.0594 135.69394 563.95 134.61581ZM571.15314 130.33456Q571.15314 129.41269 571.60626 128.77206Q572.075 128.13144 572.95 128.13144Q573.7625 128.13144 574.29376 128.70956Q574.825 129.28769 574.825 130.39706Q574.825 131.49081 574.27814 132.08456Q573.7469 132.66269 572.96564 132.66269Q572.1844 132.66269 571.66876 132.08456Q571.15314 131.50644 571.15314 130.33456ZM572.98126 128.85019Q572.59064 128.85019 572.325 129.19394Q572.075 129.53769 572.075 130.44394Q572.075 131.27206 572.325 131.61581Q572.59064 131.94394 572.98126 131.94394Q573.3875 131.94394 573.6375 131.60019Q573.90314 131.25644 573.90314 130.36581Q573.90314 129.52206 573.6375 129.19394Q573.3719 128.85019 572.98126 128.85019ZM572.98126 137.17831L577.6844 128.13144L578.54376 128.13144L573.85626 137.17831L572.98126 137.17831ZM576.7 134.85019Q576.7 133.92831 577.15314 133.28769Q577.6219 132.64706 578.5125 132.64706Q579.325 132.64706 579.85626 133.22519Q580.3875 133.78769 580.3875 134.91269Q580.3875 136.00644 579.84064 136.60019Q579.3094 137.17831 578.5125 137.17831Q577.7469 137.17831 577.21564 136.60019Q576.7 136.02206 576.7 134.85019ZM578.54376 133.36581Q578.1375 133.36581 577.8719 133.70956Q577.6219 134.05331 577.6219 134.95956Q577.6219 135.77206 577.8875 136.11581Q578.15314 136.45956 578.54376 136.45956Q578.9344 136.45956 579.2 136.11581Q579.46564 135.77206 579.46564 134.86581Q579.46564 134.03769 579.2 133.70956Q578.9344 133.36581 578.54376 133.36581Z" fill-rule="nonzero"/><path stroke="#757575" stroke-width="1.0" stroke-linecap="butt" d="M581.45 124.36581L454.76666 124.36581L397.284 120.76467" fill-rule="nonzero"/><path fill="#9e9e9e" d="M399.284 120.76467C399.284 119.660095 398.38858 118.76467 397.284 118.76467C396.17944 118.76467 395.284 119.660095 395.284 120.76467C395.284 121.86924 396.17944 122.76467 397.284 122.76467C398.38858 122.76467 399.284 121.86924 399.284 120.76467" fill-rule="nonzero"/><path fill="#1a1a1a" d="M523.3719 182.84825L523.3719 174.2545L526.6219 174.2545Q527.46564 174.2545 527.91876 174.33263Q528.5594 174.442 528.98126 174.73888Q529.41876 175.03575 529.66876 175.567Q529.9344 176.09825 529.9344 176.73888Q529.9344 177.83263 529.23126 178.59825Q528.54376 179.34825 526.71564 179.34825L524.5125 179.34825L524.5125 182.84825L523.3719 182.84825ZM524.5125 178.34825L526.73126 178.34825Q527.84064 178.34825 528.29376 177.942Q528.7625 177.52013 528.7625 176.77013Q528.7625 176.23888 528.48126 175.86388Q528.21564 175.47325 527.77814 175.34825Q527.48126 175.27013 526.71564 175.27013L524.5125 175.27013L524.5125 178.34825ZM531.23126 182.84825L531.23126 176.6295L532.1844 176.6295L532.1844 177.567Q532.54376 176.91075 532.84064 176.70763Q533.15314 176.48888 533.52814 176.48888Q534.0594 176.48888 534.60626 176.817L534.2469 177.80138Q533.85626 177.567 533.48126 177.567Q533.1219 177.567 532.84064 177.78575Q532.575 177.98888 532.46564 178.36388Q532.27814 178.92638 532.27814 179.58263L532.27814 182.84825L531.23126 182.84825ZM534.85626 179.73888Q534.85626 178.0045 535.8094 177.17638Q536.60626 176.48888 537.7625 176.48888Q539.04376 176.48888 539.85626 177.33263Q540.6844 178.16075 540.6844 179.64513Q540.6844 180.84825 540.325 181.53575Q539.96564 182.22325 539.2625 182.61388Q538.575 182.98888 537.7625 182.98888Q536.46564 182.98888 535.65314 182.16075Q534.85626 181.317 534.85626 179.73888ZM535.9344 179.73888Q535.9344 180.92638 536.45 181.52013Q536.98126 182.11388 537.7625 182.11388Q538.5594 182.11388 539.075 181.52013Q539.59064 180.92638 539.59064 179.70763Q539.59064 178.55138 539.0594 177.95763Q538.54376 177.36388 537.7625 177.36388Q536.98126 177.36388 536.45 177.95763Q535.9344 178.53575 535.9344 179.73888ZM542.04376 183.36388L543.075 183.52013Q543.1375 183.98888 543.4344 184.20763Q543.825 184.5045 544.4969 184.5045Q545.23126 184.5045 545.6219 184.20763Q546.02814 183.91075 546.16876 183.39513Q546.2625 183.067 546.2469 182.03575Q545.5594 182.84825 544.52814 182.84825Q543.2469 182.84825 542.54376 181.92638Q541.84064 180.98888 541.84064 179.70763Q541.84064 178.817 542.15314 178.067Q542.48126 177.30138 543.09064 176.89513Q543.7 176.48888 544.52814 176.48888Q545.6375 176.48888 546.35626 177.3795L546.35626 176.6295L547.325 176.6295L547.325 182.0045Q547.325 183.45763 547.02814 184.067Q546.73126 184.67638 546.09064 185.02013Q545.45 185.3795 544.5125 185.3795Q543.40314 185.3795 542.71564 184.8795Q542.02814 184.3795 542.04376 183.36388ZM542.91876 179.6295Q542.91876 180.84825 543.40314 181.41075Q543.8875 181.97325 544.6219 181.97325Q545.35626 181.97325 545.84064 181.41075Q546.34064 180.84825 546.34064 179.66075Q546.34064 178.52013 545.825 177.942Q545.325 177.36388 544.60626 177.36388Q543.90314 177.36388 543.40314 177.942Q542.91876 178.5045 542.91876 179.6295ZM553.4969 180.84825L554.59064 180.97325Q554.34064 181.92638 553.6375 182.45763Q552.9344 182.98888 551.85626 182.98888Q550.4969 182.98888 549.6844 182.14513Q548.8875 181.30138 548.8875 179.78575Q548.8875 178.22325 549.7 177.36388Q550.5125 176.48888 551.79376 176.48888Q553.04376 176.48888 553.825 177.33263Q554.6219 178.17638 554.6219 179.72325Q554.6219 179.817 554.6219 180.0045L549.98126 180.0045Q550.04376 181.03575 550.5594 181.58263Q551.075 182.11388 551.85626 182.11388Q552.4344 182.11388 552.84064 181.817Q553.2625 181.5045 553.4969 180.84825ZM550.04376 179.14513L553.5125 179.14513Q553.45 178.34825 553.1219 177.95763Q552.60626 177.34825 551.8094 177.34825Q551.075 177.34825 550.575 177.83263Q550.09064 178.317 550.04376 179.14513ZM558.54376 181.91075L558.7 182.83263Q558.2469 182.92638 557.90314 182.92638Q557.325 182.92638 557.0125 182.7545Q556.7 182.567 556.5594 182.27013Q556.4344 181.97325 556.4344 181.02013L556.4344 177.442L555.66876 177.442L555.66876 176.6295L556.4344 176.6295L556.4344 175.08263L557.48126 174.45763L557.48126 176.6295L558.54376 176.6295L558.54376 177.442L557.48126 177.442L557.48126 181.08263Q557.48126 181.53575 557.52814 181.66075Q557.59064 181.78575 557.71564 181.86388Q557.84064 181.942 558.075 181.942Q558.2625 181.942 558.54376 181.91075ZM561.54376 181.91075L561.7 182.83263Q561.2469 182.92638 560.90314 182.92638Q560.325 182.92638 560.0125 182.7545Q559.7 182.567 559.5594 182.27013Q559.4344 181.97325 559.4344 181.02013L559.4344 177.442L558.66876 177.442L558.66876 176.6295L559.4344 176.6295L559.4344 175.08263L560.48126 174.45763L560.48126 176.6295L561.54376 176.6295L561.54376 177.442L560.48126 177.442L560.48126 181.08263Q560.48126 181.53575 560.52814 181.66075Q560.59064 181.78575 560.71564 181.86388Q560.84064 181.942 561.075 181.942Q561.2625 181.942 561.54376 181.91075ZM562.2469 175.47325L562.2469 174.2545L563.3094 174.2545L563.3094 175.47325L562.2469 175.47325ZM562.2469 182.84825L562.2469 176.6295L563.3094 176.6295L563.3094 182.84825L562.2469 182.84825ZM564.825 180.98888L565.85626 180.83263Q565.95 181.45763 566.34064 181.78575Q566.7469 182.11388 567.48126 182.11388Q568.2 182.11388 568.54376 181.83263Q568.90314 181.53575 568.90314 181.1295Q568.90314 180.77013 568.59064 180.567Q568.3719 180.42638 567.5125 180.20763Q566.35626 179.91075 565.90314 179.70763Q565.46564 179.48888 565.23126 179.11388Q564.9969 178.73888 564.9969 178.27013Q564.9969 177.86388 565.1844 177.5045Q565.3719 177.14513 565.7 176.91075Q565.95 176.73888 566.3719 176.61388Q566.79376 176.48888 567.29376 176.48888Q568.0125 176.48888 568.5594 176.70763Q569.1219 176.91075 569.3875 177.27013Q569.65314 177.6295 569.7469 178.22325L568.71564 178.36388Q568.65314 177.89513 568.3094 177.6295Q567.98126 177.34825 567.35626 177.34825Q566.6375 177.34825 566.325 177.59825Q566.0125 177.83263 566.0125 178.16075Q566.0125 178.36388 566.1375 178.52013Q566.27814 178.692 566.54376 178.80138Q566.7 178.86388 567.48126 179.067Q568.60626 179.3795 569.04376 179.567Q569.48126 179.7545 569.73126 180.11388Q569.98126 180.47325 569.98126 181.02013Q569.98126 181.55138 569.66876 182.02013Q569.3719 182.47325 568.79376 182.73888Q568.21564 182.98888 567.48126 182.98888Q566.2625 182.98888 565.6219 182.48888Q564.9969 181.97325 564.825 180.98888ZM574.54376 181.91075L574.7 182.83263Q574.2469 182.92638 573.90314 182.92638Q573.325 182.92638 573.0125 182.7545Q572.7 182.567 572.5594 182.27013Q572.4344 181.97325 572.4344 181.02013L572.4344 177.442L571.66876 177.442L571.66876 176.6295L572.4344 176.6295L572.4344 175.08263L573.48126 174.45763L573.48126 176.6295L574.54376 176.6295L574.54376 177.442L573.48126 177.442L573.48126 181.08263Q573.48126 181.53575 573.52814 181.66075Q573.59064 181.78575 573.71564 181.86388Q573.84064 181.942 574.075 181.942Q574.2625 181.942 574.54376 181.91075ZM579.3094 182.08263Q578.71564 182.58263 578.16876 182.78575Q577.6375 182.98888 577.0125 182.98888Q575.98126 182.98888 575.4344 182.48888Q574.8875 181.98888 574.8875 181.20763Q574.8875 180.7545 575.09064 180.3795Q575.29376 179.98888 575.6375 179.77013Q575.98126 179.53575 576.40314 179.42638Q576.7 179.33263 577.34064 179.2545Q578.60626 179.11388 579.21564 178.89513Q579.21564 178.67638 579.21564 178.6295Q579.21564 177.97325 578.91876 177.70763Q578.5125 177.36388 577.71564 177.36388Q576.98126 177.36388 576.6219 177.6295Q576.2625 177.8795 576.09064 178.53575L575.0594 178.39513Q575.2 177.73888 575.52814 177.33263Q575.85626 176.92638 576.46564 176.70763Q577.075 176.48888 577.8719 176.48888Q578.66876 176.48888 579.16876 176.67638Q579.66876 176.86388 579.90314 177.14513Q580.1375 177.42638 580.23126 177.86388Q580.27814 178.1295 580.27814 178.83263L580.27814 180.23888Q580.27814 181.70763 580.34064 182.09825Q580.41876 182.48888 580.6219 182.84825L579.5125 182.84825Q579.35626 182.52013 579.3094 182.08263ZM579.21564 179.72325Q578.6375 179.95763 577.4969 180.1295Q576.84064 180.22325 576.575 180.34825Q576.3094 180.45763 576.15314 180.67638Q576.0125 180.89513 576.0125 181.17638Q576.0125 181.59825 576.325 181.8795Q576.65314 182.16075 577.2625 182.16075Q577.8719 182.16075 578.34064 181.89513Q578.825 181.6295 579.04376 181.16075Q579.21564 180.80138 579.21564 180.11388L579.21564 179.72325Z" fill-rule="nonzero"/><path fill="#9e9e9e" d="M550.91876 199.84825L549.8719 199.84825L549.8719 193.1295Q549.48126 193.48888 548.85626 193.86388Q548.2469 194.22325 547.7625 194.39513L547.7625 193.3795Q548.6375 192.95763 549.29376 192.3795Q549.96564 191.78575 550.2469 191.22325L550.91876 191.22325L550.91876 199.84825ZM559.41876 193.36388L558.3719 193.442Q558.23126 192.817 557.98126 192.53575Q557.54376 192.08263 556.91876 192.08263Q556.41876 192.08263 556.02814 192.36388Q555.54376 192.73888 555.2469 193.442Q554.96564 194.1295 554.95 195.41075Q555.325 194.83263 555.8719 194.55138Q556.4344 194.27013 557.04376 194.27013Q558.09064 194.27013 558.825 195.05138Q559.575 195.83263 559.575 197.05138Q559.575 197.86388 559.21564 198.567Q558.8719 199.2545 558.2625 199.6295Q557.65314 199.98888 556.8875 199.98888Q555.5594 199.98888 554.73126 199.02013Q553.90314 198.05138 553.90314 195.83263Q553.90314 193.33263 554.825 192.20763Q555.6219 191.22325 556.98126 191.22325Q557.9969 191.22325 558.6375 191.80138Q559.29376 192.36388 559.41876 193.36388ZM555.1219 197.067Q555.1219 197.61388 555.34064 198.11388Q555.575 198.59825 555.98126 198.86388Q556.40314 199.1295 556.8719 199.1295Q557.52814 199.1295 558.0125 198.59825Q558.4969 198.05138 558.4969 197.1295Q558.4969 196.23888 558.0125 195.72325Q557.54376 195.20763 556.825 195.20763Q556.10626 195.20763 555.60626 195.72325Q555.1219 196.23888 555.1219 197.067ZM561.5125 199.84825L561.5125 198.64513L562.71564 198.64513L562.71564 199.84825Q562.71564 200.5045 562.48126 200.91075Q562.2469 201.33263 561.7469 201.55138L561.45 201.09825Q561.77814 200.95763 561.9344 200.66075Q562.09064 200.3795 562.1219 199.84825L561.5125 199.84825ZM564.0125 192.3795L564.0125 191.36388L569.575 191.36388L569.575 192.192Q568.7625 193.067 567.95 194.52013Q567.15314 195.95763 566.71564 197.48888Q566.3875 198.567 566.3094 199.84825L565.21564 199.84825Q565.23126 198.83263 565.60626 197.39513Q565.9969 195.95763 566.7 194.6295Q567.41876 193.30138 568.23126 192.3795L564.0125 192.3795ZM571.15314 193.317Q571.15314 192.39513 571.60626 191.7545Q572.075 191.11388 572.95 191.11388Q573.7625 191.11388 574.29376 191.692Q574.825 192.27013 574.825 193.3795Q574.825 194.47325 574.27814 195.067Q573.7469 195.64513 572.96564 195.64513Q572.1844 195.64513 571.66876 195.067Q571.15314 194.48888 571.15314 193.317ZM572.98126 191.83263Q572.59064 191.83263 572.325 192.17638Q572.075 192.52013 572.075 193.42638Q572.075 194.2545 572.325 194.59825Q572.59064 194.92638 572.98126 194.92638Q573.3875 194.92638 573.6375 194.58263Q573.90314 194.23888 573.90314 193.34825Q573.90314 192.5045 573.6375 192.17638Q573.3719 191.83263 572.98126 191.83263ZM572.98126 200.16075L577.6844 191.11388L578.54376 191.11388L573.85626 200.16075L572.98126 200.16075ZM576.7 197.83263Q576.7 196.91075 577.15314 196.27013Q577.6219 195.6295 578.5125 195.6295Q579.325 195.6295 579.85626 196.20763Q580.3875 196.77013 580.3875 197.89513Q580.3875 198.98888 579.84064 199.58263Q579.3094 200.16075 578.5125 200.16075Q577.7469 200.16075 577.21564 199.58263Q576.7 199.0045 576.7 197.83263ZM578.54376 196.34825Q578.1375 196.34825 577.8719 196.692Q577.6219 197.03575 577.6219 197.942Q577.6219 198.7545 577.8875 199.09825Q578.15314 199.442 578.54376 199.442Q578.9344 199.442 579.2 199.09825Q579.46564 198.7545 579.46564 197.84825Q579.46564 197.02013 579.2 196.692Q578.9344 196.34825 578.54376 196.34825Z" fill-rule="nonzero"/><path stroke="#757575" stroke-width="1.0" stroke-linecap="butt" d="M581.45 187.34825L454.76666 187.34825L441.13464 187.34825" fill-rule="nonzero"/><path fill="#9e9e9e" d="M443.13464 187.34825C443.13464 186.24368 442.23923 185.34825 441.13464 185.34825C440.0301 185.34825 439.13464 186.24368 439.13464 187.34825C439.13464 188.45282 440.0301 189.34825 441.13464 189.34825C442.23923 189.34825 443.13464 188.45282 443.13464 187.34825" fill-rule="nonzero"/><path fill="#757575" d="M20.096874 37.55L20.096874 23.2375L25.4875 23.2375Q26.925 23.2375 27.675 23.3625Q28.721874 23.55 29.440624 24.05Q30.159374 24.534374 30.58125 25.425Q31.01875 26.315624 31.01875 27.378124Q31.01875 29.20625 29.846874 30.471874Q28.690624 31.721874 25.659374 31.721874L21.9875 31.721874L21.9875 37.55L20.096874 37.55ZM21.9875 30.034374L25.690624 30.034374Q27.51875 30.034374 28.284374 29.3625Q29.065624 28.675 29.065624 27.425Q29.065624 26.534374 28.6125 25.89375Q28.159374 25.253124 27.425 25.05Q26.940624 24.925 25.64375 24.925L21.9875 24.925L21.9875 30.034374ZM39.971874 34.20625L41.784374 34.440624Q41.3625 36.01875 40.190624 36.909374Q39.034374 37.784374 37.221874 37.784374Q34.95625 37.784374 33.6125 36.39375Q32.284374 34.9875 32.284374 32.45625Q32.284374 29.83125 33.628124 28.39375Q34.971874 26.940624 37.128124 26.940624Q39.20625 26.940624 40.51875 28.3625Q41.846874 29.76875 41.846874 32.346874Q41.846874 32.503124 41.83125 32.815624L34.096874 32.815624Q34.190624 34.51875 35.065624 35.425Q35.940624 36.33125 37.2375 36.33125Q38.20625 36.33125 38.878124 35.83125Q39.565624 35.315624 39.971874 34.20625ZM34.190624 31.3625L39.9875 31.3625Q39.878124 30.065624 39.33125 29.409374Q38.4875 28.39375 37.14375 28.39375Q35.940624 28.39375 35.1125 29.20625Q34.284374 30.003124 34.190624 31.3625ZM43.846874 37.55L43.846874 27.175L45.425 27.175L45.425 28.753124Q46.034374 27.64375 46.55 27.3Q47.065624 26.940624 47.675 26.940624Q48.565624 26.940624 49.4875 27.503124L48.878124 29.14375Q48.2375 28.753124 47.596874 28.753124Q47.01875 28.753124 46.55 29.1125Q46.096874 29.45625 45.89375 30.065624Q45.6125 31.003124 45.6125 32.1125L45.6125 37.55L43.846874 37.55ZM57.64375 33.753124L59.3625 33.971874Q59.08125 35.76875 57.909374 36.784374Q56.753124 37.784374 55.05 37.784374Q52.925 37.784374 51.628124 36.39375Q50.33125 35.003124 50.33125 32.409374Q50.33125 30.721874 50.878124 29.471874Q51.440624 28.20625 52.58125 27.58125Q53.721874 26.940624 55.065624 26.940624Q56.753124 26.940624 57.815624 27.8Q58.89375 28.659374 59.20625 30.221874L57.4875 30.4875Q57.253124 29.440624 56.628124 28.925Q56.003124 28.39375 55.128124 28.39375Q53.8 28.39375 52.971874 29.346874Q52.14375 30.3 52.14375 32.346874Q52.14375 34.440624 52.940624 35.39375Q53.7375 36.33125 55.034374 36.33125Q56.065624 36.33125 56.753124 35.70625Q57.45625 35.065624 57.64375 33.753124ZM67.97188 34.20625L69.78438 34.440624Q69.3625 36.01875 68.19063 36.909374Q67.03438 37.784374 65.22188 37.784374Q62.95625 37.784374 61.6125 36.39375Q60.284374 34.9875 60.284374 32.45625Q60.284374 29.83125 61.628124 28.39375Q62.971874 26.940624 65.12813 26.940624Q67.20625 26.940624 68.51875 28.3625Q69.84688 29.76875 69.84688 32.346874Q69.84688 32.503124 69.83125 32.815624L62.096874 32.815624Q62.190624 34.51875 63.065624 35.425Q63.940624 36.33125 65.2375 36.33125Q66.20625 36.33125 66.87813 35.83125Q67.56563 35.315624 67.97188 34.20625ZM62.190624 31.3625L67.9875 31.3625Q67.87813 30.065624 67.33125 29.409374Q66.4875 28.39375 65.14375 28.39375Q63.940624 28.39375 63.1125 29.20625Q62.284374 30.003124 62.190624 31.3625ZM71.8625 37.55L71.8625 27.175L73.45625 27.175L73.45625 28.659374Q74.59688 26.940624 76.75313 26.940624Q77.69063 26.940624 78.47188 27.284374Q79.26875 27.6125 79.65938 28.159374Q80.05 28.70625 80.20625 29.45625Q80.3 29.95625 80.3 31.175L80.3 37.55L78.53438 37.55L78.53438 31.2375Q78.53438 30.159374 78.33125 29.628124Q78.12813 29.096874 77.59688 28.784374Q77.08125 28.471874 76.37813 28.471874Q75.25313 28.471874 74.44063 29.190624Q73.62813 29.89375 73.62813 31.878124L73.62813 37.55L71.8625 37.55ZM85.70625 35.971874L85.95625 37.534374Q85.22188 37.690624 84.62813 37.690624Q83.675 37.690624 83.14375 37.39375Q82.62813 37.08125 82.40938 36.596874Q82.19063 36.096874 82.19063 34.51875L82.19063 28.55L80.90938 28.55L80.90938 27.175L82.19063 27.175L82.19063 24.6125L83.94063 23.55L83.94063 27.175L85.70625 27.175L85.70625 28.55L83.94063 28.55L83.94063 34.6125Q83.94063 35.3625 84.03438 35.58125Q84.12813 35.784374 84.33125 35.925Q84.55 36.05 84.94063 36.05Q85.22188 36.05 85.70625 35.971874ZM94.65938 37.55L94.65938 36.01875Q93.45625 37.784374 91.37813 37.784374Q90.45625 37.784374 89.65938 37.440624Q88.8625 37.08125 88.47188 36.55Q88.09688 36.01875 87.94063 35.2375Q87.83125 34.721874 87.83125 33.596874L87.83125 27.175L89.58125 27.175L89.58125 32.925Q89.58125 34.3 89.69063 34.784374Q89.8625 35.471874 90.39375 35.878124Q90.94063 36.26875 91.72188 36.26875Q92.51875 36.26875 93.20625 35.8625Q93.90938 35.45625 94.19063 34.76875Q94.4875 34.065624 94.4875 32.7375L94.4875 27.175L96.2375 27.175L96.2375 37.55L94.65938 37.55ZM104.64375 36.26875Q103.65938 37.096874 102.75313 37.440624Q101.84688 37.784374 100.81563 37.784374Q99.1125 37.784374 98.19063 36.95625Q97.26875 36.1125 97.26875 34.815624Q97.26875 34.05 97.6125 33.425Q97.97188 32.8 98.53438 32.425Q99.09688 32.034374 99.8 31.83125Q100.31563 31.70625 101.3625 31.565624Q103.4875 31.315624 104.4875 30.971874Q104.50313 30.6125 104.50313 30.503124Q104.50313 29.440624 104.00313 28.9875Q103.33125 28.39375 102.00313 28.39375Q100.75313 28.39375 100.15938 28.83125Q99.58125 29.26875 99.3 30.378124L97.58125 30.14375Q97.81563 29.034374 98.34688 28.3625Q98.87813 27.675 99.89375 27.315624Q100.90938 26.940624 102.25313 26.940624Q103.58125 26.940624 104.40938 27.253124Q105.2375 27.565624 105.62813 28.05Q106.01875 28.51875 106.175 29.2375Q106.26875 29.690624 106.26875 30.8625L106.26875 33.20625Q106.26875 35.659374 106.37813 36.315624Q106.4875 36.95625 106.83125 37.55L104.9875 37.55Q104.72188 37.003124 104.64375 36.26875ZM104.4875 32.346874Q103.53438 32.7375 101.6125 33.003124Q100.53438 33.159374 100.08125 33.3625Q99.64375 33.55 99.39375 33.925Q99.14375 34.3 99.14375 34.76875Q99.14375 35.471874 99.675 35.940624Q100.20625 36.409374 101.2375 36.409374Q102.25313 36.409374 103.03438 35.971874Q103.83125 35.51875 104.20625 34.753124Q104.4875 34.14375 104.4875 32.9875L104.4875 32.346874ZM108.83125 37.55L108.83125 23.2375L110.58125 23.2375L110.58125 37.55L108.83125 37.55ZM119.97188 34.20625L121.78438 34.440624Q121.3625 36.01875 120.19063 36.909374Q119.03438 37.784374 117.22188 37.784374Q114.95625 37.784374 113.6125 36.39375Q112.28438 34.9875 112.28438 32.45625Q112.28438 29.83125 113.62813 28.39375Q114.97188 26.940624 117.12813 26.940624Q119.20625 26.940624 120.51875 28.3625Q121.84688 29.76875 121.84688 32.346874Q121.84688 32.503124 121.83125 32.815624L114.09688 32.815624Q114.19063 34.51875 115.06563 35.425Q115.94063 36.33125 117.2375 36.33125Q118.20625 36.33125 118.87813 35.83125Q119.56563 35.315624 119.97188 34.20625ZM114.19063 31.3625L119.9875 31.3625Q119.87813 30.065624 119.33125 29.409374Q118.4875 28.39375 117.14375 28.39375Q115.94063 28.39375 115.1125 29.20625Q114.28438 30.003124 114.19063 31.3625ZM129.22188 32.3625Q129.22188 29.4875 130.81563 28.096874Q132.15938 26.940624 134.08125 26.940624Q136.22188 26.940624 137.56563 28.346874Q138.925 29.753124 138.925 32.221874Q138.925 34.221874 138.33125 35.378124Q137.7375 36.51875 136.58125 37.159374Q135.44063 37.784374 134.08125 37.784374Q131.89375 37.784374 130.55 36.39375Q129.22188 34.9875 129.22188 32.3625ZM131.01875 32.3625Q131.01875 34.3625 131.87813 35.346874Q132.75313 36.33125 134.08125 36.33125Q135.39375 36.33125 136.25313 35.346874Q137.12813 34.346874 137.12813 32.3Q137.12813 30.378124 136.25313 29.39375Q135.37813 28.39375 134.08125 28.39375Q132.75313 28.39375 131.87813 29.39375Q131.01875 30.378124 131.01875 32.3625ZM140.84688 37.55L140.84688 27.175L142.425 27.175L142.425 28.753124Q143.03438 27.64375 143.55 27.3Q144.06563 26.940624 144.675 26.940624Q145.56563 26.940624 146.4875 27.503124L145.87813 29.14375Q145.2375 28.753124 144.59688 28.753124Q144.01875 28.753124 143.55 29.1125Q143.09688 29.45625 142.89375 30.065624Q142.6125 31.003124 142.6125 32.1125L142.6125 37.55L140.84688 37.55ZM154.97188 34.20625L156.78438 34.440624Q156.3625 36.01875 155.19063 36.909374Q154.03438 37.784374 152.22188 37.784374Q149.95625 37.784374 148.6125 36.39375Q147.28438 34.9875 147.28438 32.45625Q147.28438 29.83125 148.62813 28.39375Q149.97188 26.940624 152.12813 26.940624Q154.20625 26.940624 155.51875 28.3625Q156.84688 29.76875 156.84688 32.346874Q156.84688 32.503124 156.83125 32.815624L149.09688 32.815624Q149.19063 34.51875 150.06563 35.425Q150.94063 36.33125 152.2375 36.33125Q153.20625 36.33125 153.87813 35.83125Q154.56563 35.315624 154.97188 34.20625ZM149.19063 31.3625L154.9875 31.3625Q154.87813 30.065624 154.33125 29.409374Q153.4875 28.39375 152.14375 28.39375Q150.94063 28.39375 150.1125 29.20625Q149.28438 30.003124 149.19063 31.3625ZM165.09688 37.55L165.09688 23.2375L170.4875 23.2375Q171.925 23.2375 172.675 23.3625Q173.72188 23.55 174.44063 24.05Q175.15938 24.534374 175.58125 25.425Q176.01875 26.315624 176.01875 27.378124Q176.01875 29.20625 174.84688 30.471874Q173.69063 31.721874 170.65938 31.721874L166.9875 31.721874L166.9875 37.55L165.09688 37.55ZM166.9875 30.034374L170.69063 30.034374Q172.51875 30.034374 173.28438 29.3625Q174.06563 28.675 174.06563 27.425Q174.06563 26.534374 173.6125 25.89375Q173.15938 25.253124 172.425 25.05Q171.94063 24.925 170.64375 24.925L166.9875 24.925L166.9875 30.034374ZM178.01875 37.55L178.01875 23.2375L183.39375 23.2375Q185.03438 23.2375 186.01875 23.675Q187.00313 24.096874 187.56563 25.003124Q188.12813 25.909374 188.12813 26.89375Q188.12813 27.815624 187.62813 28.628124Q187.14375 29.440624 186.12813 29.925Q187.425 30.315624 188.12813 31.2375Q188.83125 32.14375 188.83125 33.39375Q188.83125 34.409374 188.39375 35.26875Q187.97188 36.128124 187.34688 36.596874Q186.72188 37.065624 185.78438 37.315624Q184.84688 37.55 183.47188 37.55L178.01875 37.55ZM179.90938 29.253124L183.00313 29.253124Q184.26875 29.253124 184.81563 29.08125Q185.53438 28.8625 185.89375 28.378124Q186.26875 27.878124 186.26875 27.1125Q186.26875 26.409374 185.925 25.8625Q185.58125 25.315624 184.94063 25.128124Q184.31563 24.925 182.76875 24.925L179.90938 24.925L179.90938 29.253124ZM179.90938 35.8625L183.47188 35.8625Q184.39375 35.8625 184.76875 35.784374Q185.425 35.675 185.8625 35.409374Q186.3 35.128124 186.58125 34.6125Q186.8625 34.08125 186.8625 33.39375Q186.8625 32.596874 186.45625 32.003124Q186.05 31.409374 185.31563 31.175Q184.58125 30.940624 183.22188 30.940624L179.90938 30.940624L179.90938 35.8625Z" fill-rule="nonzero"/></svg>