<svg version="1.1" viewBox="0.0 0.0 600.0 371.0" fill="none" stroke="none" stroke-linecap="square" stroke-miterlimit="10" width="600" height="371" xmlns:xlink="http://www.w3.org/1999/xlink" xmlns="http://www.w3.org/2000/svg"><path fill="#ffffff" d="M0 0L600.0 0L600.0 371.0L0 371.0L0 0Z" fill-rule="nonzero"/><path fill="#2e5dab" d="M300.0 140.4575C316.11795 140.4575 331.79984 144.12227 344.6852 150.90018L344.6852 173.21518C331.79984 166.43727 316.11795 162.7725 300.0 162.7725Z" fill-rule="nonzero"/><path fill="#4285f4" d="M300.0 88.38917C332.2359 88.38917 363.59964 95.7187 389.37042 109.27453L344.6852 150.90018C331.79984 144.12227 316.11795 140.4575 300.0 140.4575Z" fill-rule="nonzero"/><path fill="#a42f25" d="M448.76666 214.84084C448.76666 216.23898 448.72644 217.63698 448.64603 219.034L448.64603 196.719C448.72644 195.32198 448.76666 193.92398 448.76666 192.52583Z" fill-rule="nonzero"/><path fill="#a42f25" d="M344.6852 150.90018C363.3829 160.73546 374.38333 176.15395 374.38333 192.52583L374.38333 214.84084C374.38333 198.46895 363.3829 183.05046 344.6852 173.21518Z" fill-rule="nonzero"/><path fill="#ea4335" d="M389.37042 109.27453C428.45538 129.83383 450.61462 162.52357 448.64603 196.719L374.323 194.62242C375.3073 177.5247 364.2277 161.17984 344.6852 150.90018Z" fill-rule="nonzero"/><path fill="#31848b" d="M228.55347 178.03952C237.76535 155.77731 266.8896 140.4575 300.0 140.4575L300.0 162.7725C266.8896 162.7725 237.76535 178.09232 228.55347 200.3545Z" fill-rule="nonzero"/><path fill="#46bdc6" d="M157.10692 163.55319C175.53072 119.02879 233.77919 88.38917 300.0 88.38917L300.0 140.4575C266.8896 140.4575 237.76535 155.77731 228.55347 178.03952Z" fill-rule="nonzero"/><path fill="#b08403" d="M448.64603 219.034C445.3847 275.6838 377.98187 320.09808 297.00427 318.9564C216.0267 317.8147 151.23334 271.53665 151.23334 214.84084L151.23334 192.52583C151.23334 249.22163 216.0267 295.4997 297.00427 296.6414C377.98187 297.78308 445.3847 253.36882 448.64603 196.719Z" fill-rule="nonzero"/><path fill="#b08403" d="M225.61667 192.52583C225.61667 187.62437 226.60536 182.74745 228.55347 178.03952L228.55347 200.3545C226.60536 205.06245 225.61667 209.93938 225.61667 214.84084Z" fill-rule="nonzero"/><path fill="#fbbc04" d="M448.64603 196.719C446.33255 236.90445 411.16843 272.56528 358.31155 288.32944C305.4547 304.09357 244.35468 297.14276 201.34946 270.47324C158.34422 243.80373 141.1221 202.18338 157.10692 163.55319L228.55347 178.03952C220.56105 197.3546 229.17212 218.16478 250.67473 231.49954C272.17734 244.8343 302.72736 248.30971 329.1558 240.42763C355.5842 232.54556 373.1663 214.71513 374.323 194.62242Z" fill-rule="nonzero"/><path fill="#1a1a1a" d="M21.925 108.937096L18.596874 100.343346L19.83125 100.343346L22.065624 106.593346Q22.33125 107.343346 22.51875 107.999596Q22.721874 107.29647 22.9875 106.593346L25.3 100.343346L26.45625 100.343346L23.096874 108.937096L21.925 108.937096ZM30.596874 106.937096L31.690624 107.062096Q31.440624 108.01522 30.7375 108.54647Q30.034374 109.07772 28.95625 109.07772Q27.596874 109.07772 26.784374 108.23397Q25.9875 107.39022 25.9875 105.874596Q25.9875 104.312096 26.8 103.45272Q27.6125 102.57772 28.89375 102.57772Q30.14375 102.57772 30.925 103.42147Q31.721874 104.26522 31.721874 105.812096Q31.721874 105.905846 31.721874 106.093346L27.08125 106.093346Q27.14375 107.124596 27.659374 107.67147Q28.175 108.20272 28.95625 108.20272Q29.534374 108.20272 29.940624 107.905846Q30.3625 107.593346 30.596874 106.937096ZM27.14375 105.23397L30.6125 105.23397Q30.55 104.437096 30.221874 104.04647Q29.70625 103.437096 28.909374 103.437096Q28.175 103.437096 27.675 103.92147Q27.190624 104.405846 27.14375 105.23397ZM33.33125 108.937096L33.33125 102.718346L34.284374 102.718346L34.284374 103.655846Q34.64375 102.999596 34.940624 102.79647Q35.253124 102.57772 35.628124 102.57772Q36.159374 102.57772 36.70625 102.905846L36.346874 103.89022Q35.95625 103.655846 35.58125 103.655846Q35.221874 103.655846 34.940624 103.874596Q34.675 104.07772 34.565624 104.45272Q34.378124 105.01522 34.378124 105.67147L34.378124 108.937096L33.33125 108.937096ZM37.346874 101.562096L37.346874 100.343346L38.409374 100.343346L38.409374 101.562096L37.346874 101.562096ZM37.346874 108.937096L37.346874 102.718346L38.409374 102.718346L38.409374 108.937096L37.346874 108.937096ZM40.596874 108.937096L40.596874 103.530846L39.659374 103.530846L39.659374 102.718346L40.596874 102.718346L40.596874 102.04647Q40.596874 101.42147 40.70625 101.124596Q40.8625 100.70272 41.2375 100.45272Q41.628124 100.20272 42.315624 100.20272Q42.76875 100.20272 43.3 100.312096L43.14375 101.218346Q42.815624 101.17147 42.51875 101.17147Q42.034374 101.17147 41.83125 101.374596Q41.64375 101.57772 41.64375 102.14022L41.64375 102.718346L42.8625 102.718346L42.8625 103.530846L41.64375 103.530846L41.64375 108.937096L40.596874 108.937096ZM43.346874 101.562096L43.346874 100.343346L44.409374 100.343346L44.409374 101.562096L43.346874 101.562096ZM43.346874 108.937096L43.346874 102.718346L44.409374 102.718346L44.409374 108.937096L43.346874 108.937096ZM50.409374 106.655846L51.440624 106.79647Q51.26875 107.85897 50.565624 108.468346Q49.8625 109.07772 48.846874 109.07772Q47.565624 109.07772 46.784374 108.249596Q46.01875 107.405846 46.01875 105.843346Q46.01875 104.843346 46.346874 104.093346Q46.690624 103.32772 47.3625 102.95272Q48.05 102.57772 48.8625 102.57772Q49.8625 102.57772 50.503124 103.093346Q51.159374 103.593346 51.346874 104.54647L50.315624 104.70272Q50.175 104.07772 49.8 103.76522Q49.425 103.437096 48.89375 103.437096Q48.096874 103.437096 47.596874 104.01522Q47.096874 104.57772 47.096874 105.812096Q47.096874 107.07772 47.58125 107.64022Q48.065624 108.20272 48.83125 108.20272Q49.45625 108.20272 49.8625 107.82772Q50.284374 107.45272 50.409374 106.655846ZM56.409374 108.17147Q55.815624 108.67147 55.26875 108.874596Q54.7375 109.07772 54.1125 109.07772Q53.08125 109.07772 52.534374 108.57772Q51.9875 108.07772 51.9875 107.29647Q51.9875 106.843346 52.190624 106.468346Q52.39375 106.07772 52.7375 105.85897Q53.08125 105.624596 53.503124 105.51522Q53.8 105.42147 54.440624 105.343346Q55.70625 105.20272 56.315624 104.98397Q56.315624 104.76522 56.315624 104.718346Q56.315624 104.062096 56.01875 103.79647Q55.6125 103.45272 54.815624 103.45272Q54.08125 103.45272 53.721874 103.718346Q53.3625 103.968346 53.190624 104.624596L52.159374 104.48397Q52.3 103.82772 52.628124 103.42147Q52.95625 103.01522 53.565624 102.79647Q54.175 102.57772 54.971874 102.57772Q55.76875 102.57772 56.26875 102.76522Q56.76875 102.95272 57.003124 103.23397Q57.2375 103.51522 57.33125 103.95272Q57.378124 104.218346 57.378124 104.92147L57.378124 106.32772Q57.378124 107.79647 57.440624 108.187096Q57.51875 108.57772 57.721874 108.937096L56.6125 108.937096Q56.45625 108.60897 56.409374 108.17147ZM56.315624 105.812096Q55.7375 106.04647 54.596874 106.218346Q53.940624 106.312096 53.675 106.437096Q53.409374 106.54647 53.253124 106.76522Q53.1125 106.98397 53.1125 107.26522Q53.1125 107.687096 53.425 107.968346Q53.753124 108.249596 54.3625 108.249596Q54.971874 108.249596 55.440624 107.98397Q55.925 107.718346 56.14375 107.249596Q56.315624 106.89022 56.315624 106.20272L56.315624 105.812096ZM61.64375 107.999596L61.8 108.92147Q61.346874 109.01522 61.003124 109.01522Q60.425 109.01522 60.1125 108.843346Q59.8 108.655846 59.659374 108.35897Q59.534374 108.062096 59.534374 107.10897L59.534374 103.530846L58.76875 103.530846L58.76875 102.718346L59.534374 102.718346L59.534374 101.17147L60.58125 100.54647L60.58125 102.718346L61.64375 102.718346L61.64375 103.530846L60.58125 103.530846L60.58125 107.17147Q60.58125 107.624596 60.628124 107.749596Q60.690624 107.874596 60.815624 107.95272Q60.940624 108.030846 61.175 108.030846Q61.3625 108.030846 61.64375 107.999596ZM61.95625 105.82772Q61.95625 104.093346 62.909374 103.26522Q63.70625 102.57772 64.8625 102.57772Q66.14375 102.57772 66.95625 103.42147Q67.78438 104.249596 67.78438 105.73397Q67.78438 106.937096 67.425 107.624596Q67.06563 108.312096 66.3625 108.70272Q65.675 109.07772 64.8625 109.07772Q63.565624 109.07772 62.753124 108.249596Q61.95625 107.405846 61.95625 105.82772ZM63.034374 105.82772Q63.034374 107.01522 63.55 107.60897Q64.08125 108.20272 64.8625 108.20272Q65.65938 108.20272 66.175 107.60897Q66.69063 107.01522 66.69063 105.79647Q66.69063 104.64022 66.15938 104.04647Q65.64375 103.45272 64.8625 103.45272Q64.08125 103.45272 63.55 104.04647Q63.034374 104.624596 63.034374 105.82772ZM69.33125 108.937096L69.33125 102.718346L70.28438 102.718346L70.28438 103.655846Q70.64375 102.999596 70.94063 102.79647Q71.25313 102.57772 71.62813 102.57772Q72.15938 102.57772 72.70625 102.905846L72.34688 103.89022Q71.95625 103.655846 71.58125 103.655846Q71.22188 103.655846 70.94063 103.874596Q70.675 104.07772 70.56563 104.45272Q70.37813 105.01522 70.37813 105.67147L70.37813 108.937096L69.33125 108.937096ZM77.59688 106.937096L78.69063 107.062096Q78.44063 108.01522 77.7375 108.54647Q77.03438 109.07772 75.95625 109.07772Q74.59688 109.07772 73.78438 108.23397Q72.9875 107.39022 72.9875 105.874596Q72.9875 104.312096 73.8 103.45272Q74.6125 102.57772 75.89375 102.57772Q77.14375 102.57772 77.925 103.42147Q78.72188 104.26522 78.72188 105.812096Q78.72188 105.905846 78.72188 106.093346L74.08125 106.093346Q74.14375 107.124596 74.65938 107.67147Q75.175 108.20272 75.95625 108.20272Q76.53438 108.20272 76.94063 107.905846Q77.3625 107.593346 77.59688 106.937096ZM74.14375 105.23397L77.6125 105.23397Q77.55 104.437096 77.22188 104.04647Q76.70625 103.437096 75.90938 103.437096Q75.175 103.437096 74.675 103.92147Q74.19063 104.405846 74.14375 105.23397Z" fill-rule="nonzero"/><path fill="#9e9e9e" d="M24.596874 124.92147L24.596874 125.937096L18.909374 125.937096Q18.909374 125.562096 19.034374 125.20272Q19.253124 124.624596 19.721874 124.062096Q20.20625 123.499596 21.1125 122.76522Q22.51875 121.60897 23.003124 120.937096Q23.503124 120.26522 23.503124 119.67147Q23.503124 119.04647 23.05 118.624596Q22.596874 118.187096 21.878124 118.187096Q21.1125 118.187096 20.659374 118.64022Q20.20625 119.093346 20.190624 119.905846L19.1125 119.79647Q19.221874 118.57772 19.940624 117.95272Q20.675 117.312096 21.909374 117.312096Q23.14375 117.312096 23.8625 117.999596Q24.58125 118.687096 24.58125 119.70272Q24.58125 120.218346 24.3625 120.718346Q24.159374 121.20272 23.659374 121.76522Q23.175 122.312096 22.05 123.26522Q21.096874 124.062096 20.815624 124.35897Q20.55 124.64022 20.378124 124.92147L24.596874 124.92147ZM26.05 121.70272Q26.05 120.17147 26.3625 119.249596Q26.675 118.312096 27.284374 117.812096Q27.909374 117.312096 28.846874 117.312096Q29.534374 117.312096 30.05 117.593346Q30.58125 117.874596 30.925 118.405846Q31.26875 118.92147 31.45625 119.67147Q31.64375 120.42147 31.64375 121.70272Q31.64375 123.218346 31.33125 124.14022Q31.034374 125.062096 30.409374 125.57772Q29.8 126.07772 28.846874 126.07772Q27.6125 126.07772 26.89375 125.187096Q26.05 124.124596 26.05 121.70272ZM27.128124 121.70272Q27.128124 123.812096 27.628124 124.51522Q28.128124 125.218346 28.846874 125.218346Q29.58125 125.218346 30.065624 124.51522Q30.565624 123.812096 30.565624 121.70272Q30.565624 119.57772 30.065624 118.89022Q29.58125 118.187096 28.83125 118.187096Q28.1125 118.187096 27.675 118.79647Q27.128124 119.57772 27.128124 121.70272ZM33.6125 125.937096L33.6125 124.73397L34.815624 124.73397L34.815624 125.937096Q34.815624 126.593346 34.58125 126.999596Q34.346874 127.42147 33.846874 127.64022L33.55 127.187096Q33.878124 127.04647 34.034374 126.749596Q34.190624 126.468346 34.221874 125.937096L33.6125 125.937096ZM36.05 123.687096L37.159374 123.593346Q37.284374 124.405846 37.721874 124.812096Q38.175 125.218346 38.815624 125.218346Q39.565624 125.218346 40.096874 124.64022Q40.628124 124.062096 40.628124 123.124596Q40.628124 122.218346 40.1125 121.70272Q39.6125 121.17147 38.784374 121.17147Q38.284374 121.17147 37.8625 121.405846Q37.45625 121.64022 37.221874 121.999596L36.2375 121.874596L37.065624 117.468346L41.346874 117.468346L41.346874 118.468346L37.909374 118.468346L37.45625 120.780846Q38.221874 120.23397 39.065624 120.23397Q40.190624 120.23397 40.95625 121.01522Q41.7375 121.79647 41.7375 123.030846Q41.7375 124.187096 41.065624 125.04647Q40.2375 126.07772 38.815624 126.07772Q37.64375 126.07772 36.89375 125.42147Q36.159374 124.76522 36.05 123.687096ZM43.253124 119.405846Q43.253124 118.48397 43.70625 117.843346Q44.175 117.20272 45.05 117.20272Q45.8625 117.20272 46.39375 117.780846Q46.925 118.35897 46.925 119.468346Q46.925 120.562096 46.378124 121.155846Q45.846874 121.73397 45.065624 121.73397Q44.284374 121.73397 43.76875 121.155846Q43.253124 120.57772 43.253124 119.405846ZM45.08125 117.92147Q44.690624 117.92147 44.425 118.26522Q44.175 118.60897 44.175 119.51522Q44.175 120.343346 44.425 120.687096Q44.690624 121.01522 45.08125 121.01522Q45.4875 121.01522 45.7375 120.67147Q46.003124 120.32772 46.003124 119.437096Q46.003124 118.593346 45.7375 118.26522Q45.471874 117.92147 45.08125 117.92147ZM45.08125 126.249596L49.784374 117.20272L50.64375 117.20272L45.95625 126.249596L45.08125 126.249596ZM48.8 123.92147Q48.8 122.999596 49.253124 122.35897Q49.721874 121.718346 50.6125 121.718346Q51.425 121.718346 51.95625 122.29647Q52.4875 122.85897 52.4875 123.98397Q52.4875 125.07772 51.940624 125.67147Q51.409374 126.249596 50.6125 126.249596Q49.846874 126.249596 49.315624 125.67147Q48.8 125.093346 48.8 123.92147ZM50.64375 122.437096Q50.2375 122.437096 49.971874 122.780846Q49.721874 123.124596 49.721874 124.030846Q49.721874 124.843346 49.9875 125.187096Q50.253124 125.530846 50.64375 125.530846Q51.034374 125.530846 51.3 125.187096Q51.565624 124.843346 51.565624 123.937096Q51.565624 123.10897 51.3 122.780846Q51.034374 122.437096 50.64375 122.437096Z" fill-rule="nonzero"/><path stroke="#757575" stroke-width="1.0" stroke-linecap="butt" d="M18.55 113.437096L145.23334 113.437096L215.0981 113.437096" fill-rule="nonzero"/><path fill="#9e9e9e" d="M217.0981 113.437096C217.0981 112.33253 216.20267 111.437096 215.0981 111.437096C213.99353 111.437096 213.0981 112.33253 213.0981 113.437096C213.0981 114.541664 213.99353 115.437096 215.0981 115.437096C216.20267 115.437096 217.0981 114.541664 217.0981 113.437096" fill-rule="nonzero"/><path fill="#1a1a1a" d="M18.534374 285.67456L21.83125 277.0808L23.05 277.0808L26.565624 285.67456L25.284374 285.67456L24.26875 283.0652L20.690624 283.0652L19.7375 285.67456L18.534374 285.67456ZM21.01875 282.1433L23.925 282.1433L23.034374 279.7683Q22.6125 278.6902 22.425 277.98706Q22.253124 278.8152 21.95625 279.6277L21.01875 282.1433ZM26.346874 285.67456L26.346874 279.4558L27.284374 279.4558L27.284374 280.3308Q27.971874 279.3152 29.26875 279.3152Q29.83125 279.3152 30.3 279.5183Q30.784374 279.72144 31.01875 280.04956Q31.253124 280.3777 31.346874 280.8152Q31.39375 281.11206 31.39375 281.84644L31.39375 285.67456L30.346874 285.67456L30.346874 281.8933Q30.346874 281.23706 30.221874 280.92456Q30.096874 280.61206 29.784374 280.42456Q29.471874 280.22144 29.05 280.22144Q28.378124 280.22144 27.878124 280.65894Q27.39375 281.0808 27.39375 282.2683L27.39375 285.67456L26.346874 285.67456ZM37.409374 284.90894Q36.815624 285.40894 36.26875 285.61206Q35.7375 285.8152 35.1125 285.8152Q34.08125 285.8152 33.534374 285.3152Q32.9875 284.8152 32.9875 284.03394Q32.9875 283.5808 33.190624 283.2058Q33.39375 282.8152 33.7375 282.59644Q34.08125 282.36206 34.503124 282.2527Q34.8 282.15894 35.440624 282.0808Q36.70625 281.9402 37.315624 281.72144Q37.315624 281.5027 37.315624 281.4558Q37.315624 280.79956 37.01875 280.53394Q36.6125 280.1902 35.815624 280.1902Q35.08125 280.1902 34.721874 280.4558Q34.3625 280.7058 34.190624 281.36206L33.159374 281.22144Q33.3 280.5652 33.628124 280.15894Q33.95625 279.7527 34.565624 279.53394Q35.175 279.3152 35.971874 279.3152Q36.76875 279.3152 37.26875 279.5027Q37.76875 279.6902 38.003124 279.97144Q38.2375 280.2527 38.33125 280.6902Q38.378124 280.9558 38.378124 281.65894L38.378124 283.0652Q38.378124 284.53394 38.440624 284.92456Q38.51875 285.3152 38.721874 285.67456L37.6125 285.67456Q37.45625 285.34644 37.409374 284.90894ZM37.315624 282.54956Q36.7375 282.78394 35.596874 282.9558Q34.940624 283.04956 34.675 283.17456Q34.409374 283.28394 34.253124 283.5027Q34.1125 283.72144 34.1125 284.0027Q34.1125 284.42456 34.425 284.7058Q34.753124 284.98706 35.3625 284.98706Q35.971874 284.98706 36.440624 284.72144Q36.925 284.4558 37.14375 283.98706Q37.315624 283.6277 37.315624 282.9402L37.315624 282.54956ZM40.315624 285.67456L40.315624 277.0808L41.378124 277.0808L41.378124 285.67456L40.315624 285.67456ZM43.346874 278.29956L43.346874 277.0808L44.409374 277.0808L44.409374 278.29956L43.346874 278.29956ZM43.346874 285.67456L43.346874 279.4558L44.409374 279.4558L44.409374 285.67456L43.346874 285.67456ZM45.925 283.8152L46.95625 283.65894Q47.05 284.28394 47.440624 284.61206Q47.846874 284.9402 48.58125 284.9402Q49.3 284.9402 49.64375 284.65894Q50.003124 284.36206 50.003124 283.9558Q50.003124 283.59644 49.690624 283.3933Q49.471874 283.2527 48.6125 283.03394Q47.45625 282.73706 47.003124 282.53394Q46.565624 282.3152 46.33125 281.9402Q46.096874 281.5652 46.096874 281.09644Q46.096874 280.6902 46.284374 280.3308Q46.471874 279.97144 46.8 279.73706Q47.05 279.5652 47.471874 279.4402Q47.89375 279.3152 48.39375 279.3152Q49.1125 279.3152 49.659374 279.53394Q50.221874 279.73706 50.4875 280.09644Q50.753124 280.4558 50.846874 281.04956L49.815624 281.1902Q49.753124 280.72144 49.409374 280.4558Q49.08125 280.17456 48.45625 280.17456Q47.7375 280.17456 47.425 280.42456Q47.1125 280.65894 47.1125 280.98706Q47.1125 281.1902 47.2375 281.34644Q47.378124 281.5183 47.64375 281.6277Q47.8 281.6902 48.58125 281.8933Q49.70625 282.2058 50.14375 282.3933Q50.58125 282.5808 50.83125 282.9402Q51.08125 283.29956 51.08125 283.84644Q51.08125 284.3777 50.76875 284.84644Q50.471874 285.29956 49.89375 285.5652Q49.315624 285.8152 48.58125 285.8152Q47.3625 285.8152 46.721874 285.3152Q46.096874 284.79956 45.925 283.8152ZM55.64375 284.73706L55.8 285.65894Q55.346874 285.7527 55.003124 285.7527Q54.425 285.7527 54.1125 285.5808Q53.8 285.3933 53.659374 285.09644Q53.534374 284.79956 53.534374 283.84644L53.534374 280.2683L52.76875 280.2683L52.76875 279.4558L53.534374 279.4558L53.534374 277.90894L54.58125 277.28394L54.58125 279.4558L55.64375 279.4558L55.64375 280.2683L54.58125 280.2683L54.58125 283.90894Q54.58125 284.36206 54.628124 284.48706Q54.690624 284.61206 54.815624 284.6902Q54.940624 284.7683 55.175 284.7683Q55.3625 284.7683 55.64375 284.73706ZM60.409374 284.90894Q59.815624 285.40894 59.26875 285.61206Q58.7375 285.8152 58.1125 285.8152Q57.08125 285.8152 56.534374 285.3152Q55.9875 284.8152 55.9875 284.03394Q55.9875 283.5808 56.190624 283.2058Q56.39375 282.8152 56.7375 282.59644Q57.08125 282.36206 57.503124 282.2527Q57.8 282.15894 58.440624 282.0808Q59.70625 281.9402 60.315624 281.72144Q60.315624 281.5027 60.315624 281.4558Q60.315624 280.79956 60.01875 280.53394Q59.6125 280.1902 58.815624 280.1902Q58.08125 280.1902 57.721874 280.4558Q57.3625 280.7058 57.190624 281.36206L56.159374 281.22144Q56.3 280.5652 56.628124 280.15894Q56.95625 279.7527 57.565624 279.53394Q58.175 279.3152 58.971874 279.3152Q59.76875 279.3152 60.26875 279.5027Q60.76875 279.6902 61.003124 279.97144Q61.2375 280.2527 61.33125 280.6902Q61.378124 280.9558 61.378124 281.65894L61.378124 283.0652Q61.378124 284.53394 61.440624 284.92456Q61.51875 285.3152 61.721874 285.67456L60.6125 285.67456Q60.45625 285.34644 60.409374 284.90894ZM60.315624 282.54956Q59.7375 282.78394 58.596874 282.9558Q57.940624 283.04956 57.675 283.17456Q57.409374 283.28394 57.253124 283.5027Q57.1125 283.72144 57.1125 284.0027Q57.1125 284.42456 57.425 284.7058Q57.753124 284.98706 58.3625 284.98706Q58.971874 284.98706 59.440624 284.72144Q59.925 284.4558 60.14375 283.98706Q60.315624 283.6277 60.315624 282.9402L60.315624 282.54956Z" fill-rule="nonzero"/><path fill="#9e9e9e" d="M19.05 300.42456L20.159374 300.3308Q20.284374 301.1433 20.721874 301.54956Q21.175 301.9558 21.815624 301.9558Q22.565624 301.9558 23.096874 301.3777Q23.628124 300.79956 23.628124 299.86206Q23.628124 298.9558 23.1125 298.4402Q22.6125 297.90894 21.784374 297.90894Q21.284374 297.90894 20.8625 298.1433Q20.45625 298.3777 20.221874 298.73706L19.2375 298.61206L20.065624 294.2058L24.346874 294.2058L24.346874 295.2058L20.909374 295.2058L20.45625 297.5183Q21.221874 296.97144 22.065624 296.97144Q23.190624 296.97144 23.95625 297.7527Q24.7375 298.53394 24.7375 299.7683Q24.7375 300.92456 24.065624 301.78394Q23.2375 302.8152 21.815624 302.8152Q20.64375 302.8152 19.89375 302.15894Q19.159374 301.5027 19.05 300.42456ZM26.05 300.40894L27.1125 300.2683Q27.284374 301.15894 27.721874 301.5652Q28.159374 301.9558 28.784374 301.9558Q29.534374 301.9558 30.05 301.4402Q30.565624 300.92456 30.565624 300.15894Q30.565624 299.4402 30.08125 298.97144Q29.6125 298.48706 28.878124 298.48706Q28.58125 298.48706 28.128124 298.61206L28.253124 297.67456Q28.3625 297.6902 28.425 297.6902Q29.096874 297.6902 29.628124 297.34644Q30.175 296.98706 30.175 296.2527Q30.175 295.67456 29.784374 295.29956Q29.39375 294.90894 28.76875 294.90894Q28.159374 294.90894 27.7375 295.29956Q27.33125 295.6902 27.221874 296.4558L26.159374 296.2683Q26.346874 295.22144 27.034374 294.6433Q27.721874 294.04956 28.7375 294.04956Q29.440624 294.04956 30.034374 294.36206Q30.628124 294.65894 30.940624 295.17456Q31.253124 295.6902 31.253124 296.28394Q31.253124 296.8308 30.95625 297.29956Q30.659374 297.7527 30.08125 298.0183Q30.83125 298.1902 31.253124 298.7527Q31.675 299.29956 31.675 300.1433Q31.675 301.2683 30.846874 302.04956Q30.034374 302.8308 28.784374 302.8308Q27.659374 302.8308 26.909374 302.15894Q26.159374 301.47144 26.05 300.40894ZM33.6125 302.67456L33.6125 301.47144L34.815624 301.47144L34.815624 302.67456Q34.815624 303.3308 34.58125 303.73706Q34.346874 304.15894 33.846874 304.3777L33.55 303.92456Q33.878124 303.78394 34.034374 303.48706Q34.190624 303.2058 34.221874 302.67456L33.6125 302.67456ZM37.675 298.0183Q37.01875 297.7683 36.690624 297.3308Q36.378124 296.8777 36.378124 296.2683Q36.378124 295.3308 37.05 294.6902Q37.7375 294.04956 38.846874 294.04956Q39.971874 294.04956 40.659374 294.7058Q41.346874 295.36206 41.346874 296.29956Q41.346874 296.8933 41.034374 297.3308Q40.721874 297.7683 40.08125 298.0183Q40.878124 298.2683 41.284374 298.84644Q41.690624 299.42456 41.690624 300.22144Q41.690624 301.3152 40.909374 302.0652Q40.14375 302.8152 38.8625 302.8152Q37.596874 302.8152 36.815624 302.0652Q36.034374 301.3152 36.034374 300.1902Q36.034374 299.34644 36.45625 298.78394Q36.89375 298.22144 37.675 298.0183ZM37.45625 296.22144Q37.45625 296.8308 37.846874 297.22144Q38.253124 297.61206 38.878124 297.61206Q39.4875 297.61206 39.878124 297.23706Q40.26875 296.84644 40.26875 296.28394Q40.26875 295.7058 39.8625 295.3152Q39.45625 294.90894 38.8625 294.90894Q38.253124 294.90894 37.846874 295.29956Q37.45625 295.6902 37.45625 296.22144ZM37.128124 300.1902Q37.128124 300.6433 37.33125 301.0652Q37.55 301.48706 37.971874 301.72144Q38.39375 301.9558 38.878124 301.9558Q39.628124 301.9558 40.1125 301.47144Q40.6125 300.98706 40.6125 300.23706Q40.6125 299.47144 40.1125 298.97144Q39.6125 298.47144 38.846874 298.47144Q38.096874 298.47144 37.6125 298.97144Q37.128124 299.4558 37.128124 300.1902ZM43.253124 296.1433Q43.253124 295.22144 43.70625 294.5808Q44.175 293.9402 45.05 293.9402Q45.8625 293.9402 46.39375 294.5183Q46.925 295.09644 46.925 296.2058Q46.925 297.29956 46.378124 297.8933Q45.846874 298.47144 45.065624 298.47144Q44.284374 298.47144 43.76875 297.8933Q43.253124 297.3152 43.253124 296.1433ZM45.08125 294.65894Q44.690624 294.65894 44.425 295.0027Q44.175 295.34644 44.175 296.2527Q44.175 297.0808 44.425 297.42456Q44.690624 297.7527 45.08125 297.7527Q45.4875 297.7527 45.7375 297.40894Q46.003124 297.0652 46.003124 296.17456Q46.003124 295.3308 45.7375 295.0027Q45.471874 294.65894 45.08125 294.65894ZM45.08125 302.98706L49.784374 293.9402L50.64375 293.9402L45.95625 302.98706L45.08125 302.98706ZM48.8 300.65894Q48.8 299.73706 49.253124 299.09644Q49.721874 298.4558 50.6125 298.4558Q51.425 298.4558 51.95625 299.03394Q52.4875 299.59644 52.4875 300.72144Q52.4875 301.8152 51.940624 302.40894Q51.409374 302.98706 50.6125 302.98706Q49.846874 302.98706 49.315624 302.40894Q48.8 301.8308 48.8 300.65894ZM50.64375 299.17456Q50.2375 299.17456 49.971874 299.5183Q49.721874 299.86206 49.721874 300.7683Q49.721874 301.5808 49.9875 301.92456Q50.253124 302.2683 50.64375 302.2683Q51.034374 302.2683 51.3 301.92456Q51.565624 301.5808 51.565624 300.67456Q51.565624 299.84644 51.3 299.5183Q51.034374 299.17456 50.64375 299.17456Z" fill-rule="nonzero"/><path stroke="#757575" stroke-width="1.0" stroke-linecap="butt" d="M18.55 290.17456L145.23334 290.17456L277.32935 290.17456" fill-rule="nonzero"/><path fill="#9e9e9e" d="M279.32935 290.17456C279.32935 289.06998 278.4339 288.17456 277.32935 288.17456C276.22476 288.17456 275.32935 289.06998 275.32935 290.17456C275.32935 291.2791 276.22476 292.17456 277.32935 292.17456C278.4339 292.17456 279.32935 291.2791 279.32935 290.17456" fill-rule="nonzero"/><path fill="#1a1a1a" d="M504.3875 94.18728L504.3875 85.59353L508.2 85.59353Q509.35626 85.59353 509.95 85.8279Q510.54376 86.06228 510.90314 86.65603Q511.2625 87.23415 511.2625 87.93728Q511.2625 88.85915 510.66876 89.48415Q510.075 90.10915 508.84064 90.28103Q509.29376 90.49978 509.52814 90.7029Q510.02814 91.15603 510.46564 91.84353L511.96564 94.18728L510.52814 94.18728L509.40314 92.40603Q508.90314 91.62478 508.575 91.21853Q508.2625 90.81228 507.9969 90.65603Q507.7469 90.48415 507.48126 90.40603Q507.29376 90.37478 506.85626 90.37478L505.52814 90.37478L505.52814 94.18728L504.3875 94.18728ZM505.52814 89.3904L507.98126 89.3904Q508.7469 89.3904 509.1844 89.23415Q509.6375 89.06228 509.85626 88.71853Q510.09064 88.35915 510.09064 87.93728Q510.09064 87.3279 509.6375 86.93728Q509.2 86.54665 508.2469 86.54665L505.52814 86.54665L505.52814 89.3904ZM517.4969 92.18728L518.59064 92.31228Q518.34064 93.2654 517.6375 93.79665Q516.9344 94.3279 515.85626 94.3279Q514.4969 94.3279 513.6844 93.48415Q512.8875 92.6404 512.8875 91.12478Q512.8875 89.56228 513.7 88.7029Q514.5125 87.8279 515.79376 87.8279Q517.04376 87.8279 517.825 88.67165Q518.6219 89.5154 518.6219 91.06228Q518.6219 91.15603 518.6219 91.34353L513.98126 91.34353Q514.04376 92.37478 514.5594 92.92165Q515.075 93.4529 515.85626 93.4529Q516.4344 93.4529 516.84064 93.15603Q517.2625 92.84353 517.4969 92.18728ZM514.04376 90.48415L517.5125 90.48415Q517.45 89.68728 517.1219 89.29665Q516.60626 88.68728 515.8094 88.68728Q515.075 88.68728 514.575 89.17165Q514.09064 89.65603 514.04376 90.48415ZM519.825 92.3279L520.85626 92.17165Q520.95 92.79665 521.34064 93.12478Q521.7469 93.4529 522.48126 93.4529Q523.2 93.4529 523.54376 93.17165Q523.90314 92.87478 523.90314 92.46853Q523.90314 92.10915 523.59064 91.90603Q523.3719 91.7654 522.5125 91.54665Q521.35626 91.24978 520.90314 91.04665Q520.46564 90.8279 520.23126 90.4529Q519.9969 90.0779 519.9969 89.60915Q519.9969 89.2029 520.1844 88.84353Q520.3719 88.48415 520.7 88.24978Q520.95 88.0779 521.3719 87.9529Q521.79376 87.8279 522.29376 87.8279Q523.0125 87.8279 523.5594 88.04665Q524.1219 88.24978 524.3875 88.60915Q524.65314 88.96853 524.7469 89.56228L523.71564 89.7029Q523.65314 89.23415 523.3094 88.96853Q522.98126 88.68728 522.35626 88.68728Q521.6375 88.68728 521.325 88.93728Q521.0125 89.17165 521.0125 89.49978Q521.0125 89.7029 521.1375 89.85915Q521.27814 90.03103 521.54376 90.1404Q521.7 90.2029 522.48126 90.40603Q523.60626 90.71853 524.04376 90.90603Q524.48126 91.09353 524.73126 91.4529Q524.98126 91.81228 524.98126 92.35915Q524.98126 92.8904 524.66876 93.35915Q524.3719 93.81228 523.79376 94.0779Q523.21564 94.3279 522.48126 94.3279Q521.2625 94.3279 520.6219 93.8279Q519.9969 93.31228 519.825 92.3279ZM527.2469 96.5779L527.2469 87.96853L528.2 87.96853L528.2 88.7654Q528.54376 88.29665 528.96564 88.06228Q529.40314 87.8279 530.0125 87.8279Q530.8094 87.8279 531.41876 88.23415Q532.02814 88.6404 532.325 89.3904Q532.6375 90.1404 532.6375 91.03103Q532.6375 91.98415 532.29376 92.74978Q531.96564 93.5154 531.3094 93.92165Q530.65314 94.3279 529.9344 94.3279Q529.40314 94.3279 528.98126 94.10915Q528.5594 93.87478 528.29376 93.54665L528.29376 96.5779L527.2469 96.5779ZM528.2 91.10915Q528.2 92.31228 528.6844 92.8904Q529.16876 93.4529 529.85626 93.4529Q530.5594 93.4529 531.0594 92.85915Q531.5594 92.2654 531.5594 91.0154Q531.5594 89.8279 531.075 89.24978Q530.59064 88.65603 529.90314 88.65603Q529.23126 88.65603 528.71564 89.28103Q528.2 89.90603 528.2 91.10915ZM533.85626 91.0779Q533.85626 89.34353 534.8094 88.5154Q535.60626 87.8279 536.7625 87.8279Q538.04376 87.8279 538.85626 88.67165Q539.6844 89.49978 539.6844 90.98415Q539.6844 92.18728 539.325 92.87478Q538.96564 93.56228 538.2625 93.9529Q537.575 94.3279 536.7625 94.3279Q535.46564 94.3279 534.65314 93.49978Q533.85626 92.65603 533.85626 91.0779ZM534.9344 91.0779Q534.9344 92.2654 535.45 92.85915Q535.98126 93.4529 536.7625 93.4529Q537.5594 93.4529 538.075 92.85915Q538.59064 92.2654 538.59064 91.04665Q538.59064 89.8904 538.0594 89.29665Q537.54376 88.7029 536.7625 88.7029Q535.98126 88.7029 535.45 89.29665Q534.9344 89.87478 534.9344 91.0779ZM541.2469 94.18728L541.2469 87.96853L542.1844 87.96853L542.1844 88.84353Q542.8719 87.8279 544.16876 87.8279Q544.73126 87.8279 545.2 88.03103Q545.6844 88.23415 545.91876 88.56228Q546.15314 88.8904 546.2469 89.3279Q546.29376 89.62478 546.29376 90.35915L546.29376 94.18728L545.2469 94.18728L545.2469 90.40603Q545.2469 89.74978 545.1219 89.43728Q544.9969 89.12478 544.6844 88.93728Q544.3719 88.73415 543.95 88.73415Q543.27814 88.73415 542.77814 89.17165Q542.29376 89.59353 542.29376 90.78103L542.29376 94.18728L541.2469 94.18728ZM547.825 92.3279L548.85626 92.17165Q548.95 92.79665 549.34064 93.12478Q549.7469 93.4529 550.48126 93.4529Q551.2 93.4529 551.54376 93.17165Q551.90314 92.87478 551.90314 92.46853Q551.90314 92.10915 551.59064 91.90603Q551.3719 91.7654 550.5125 91.54665Q549.35626 91.24978 548.90314 91.04665Q548.46564 90.8279 548.23126 90.4529Q547.9969 90.0779 547.9969 89.60915Q547.9969 89.2029 548.1844 88.84353Q548.3719 88.48415 548.7 88.24978Q548.95 88.0779 549.3719 87.9529Q549.79376 87.8279 550.29376 87.8279Q551.0125 87.8279 551.5594 88.04665Q552.1219 88.24978 552.3875 88.60915Q552.65314 88.96853 552.7469 89.56228L551.71564 89.7029Q551.65314 89.23415 551.3094 88.96853Q550.98126 88.68728 550.35626 88.68728Q549.6375 88.68728 549.325 88.93728Q549.0125 89.17165 549.0125 89.49978Q549.0125 89.7029 549.1375 89.85915Q549.27814 90.03103 549.54376 90.1404Q549.7 90.2029 550.48126 90.40603Q551.60626 90.71853 552.04376 90.90603Q552.48126 91.09353 552.73126 91.4529Q552.98126 91.81228 552.98126 92.35915Q552.98126 92.8904 552.66876 93.35915Q552.3719 93.81228 551.79376 94.0779Q551.21564 94.3279 550.48126 94.3279Q549.2625 94.3279 548.6219 93.8279Q547.9969 93.31228 547.825 92.3279ZM559.3094 93.42165Q558.71564 93.92165 558.16876 94.12478Q557.6375 94.3279 557.0125 94.3279Q555.98126 94.3279 555.4344 93.8279Q554.8875 93.3279 554.8875 92.54665Q554.8875 92.09353 555.09064 91.71853Q555.29376 91.3279 555.6375 91.10915Q555.98126 90.87478 556.40314 90.7654Q556.7 90.67165 557.34064 90.59353Q558.60626 90.4529 559.21564 90.23415Q559.21564 90.0154 559.21564 89.96853Q559.21564 89.31228 558.91876 89.04665Q558.5125 88.7029 557.71564 88.7029Q556.98126 88.7029 556.6219 88.96853Q556.2625 89.21853 556.09064 89.87478L555.0594 89.73415Q555.2 89.0779 555.52814 88.67165Q555.85626 88.2654 556.46564 88.04665Q557.075 87.8279 557.8719 87.8279Q558.66876 87.8279 559.16876 88.0154Q559.66876 88.2029 559.90314 88.48415Q560.1375 88.7654 560.23126 89.2029Q560.27814 89.46853 560.27814 90.17165L560.27814 91.5779Q560.27814 93.04665 560.34064 93.43728Q560.41876 93.8279 560.6219 94.18728L559.5125 94.18728Q559.35626 93.85915 559.3094 93.42165ZM559.21564 91.06228Q558.6375 91.29665 557.4969 91.46853Q556.84064 91.56228 556.575 91.68728Q556.3094 91.79665 556.15314 92.0154Q556.0125 92.23415 556.0125 92.5154Q556.0125 92.93728 556.325 93.21853Q556.65314 93.49978 557.2625 93.49978Q557.8719 93.49978 558.34064 93.23415Q558.825 92.96853 559.04376 92.49978Q559.21564 92.1404 559.21564 91.4529L559.21564 91.06228ZM563.21564 94.18728L562.23126 94.18728L562.23126 85.59353L563.29376 85.59353L563.29376 88.65603Q563.96564 87.8279 564.9969 87.8279Q565.575 87.8279 566.075 88.06228Q566.59064 88.28103 566.91876 88.7029Q567.2625 89.12478 567.45 89.71853Q567.6375 90.31228 567.6375 90.98415Q567.6375 92.5779 566.84064 93.4529Q566.04376 94.3279 564.95 94.3279Q563.84064 94.3279 563.21564 93.40603L563.21564 94.18728ZM563.2 91.03103Q563.2 92.1404 563.5125 92.6404Q564.0125 93.4529 564.85626 93.4529Q565.54376 93.4529 566.04376 92.85915Q566.5594 92.2654 566.5594 91.06228Q566.5594 89.84353 566.075 89.2654Q565.59064 88.68728 564.90314 88.68728Q564.21564 88.68728 563.7 89.29665Q563.2 89.8904 563.2 91.03103ZM569.2469 86.81228L569.2469 85.59353L570.3094 85.59353L570.3094 86.81228L569.2469 86.81228ZM569.2469 94.18728L569.2469 87.96853L570.3094 87.96853L570.3094 94.18728L569.2469 94.18728ZM572.21564 94.18728L572.21564 85.59353L573.27814 85.59353L573.27814 94.18728L572.21564 94.18728ZM579.4969 92.18728L580.59064 92.31228Q580.34064 93.2654 579.6375 93.79665Q578.9344 94.3279 577.85626 94.3279Q576.4969 94.3279 575.6844 93.48415Q574.8875 92.6404 574.8875 91.12478Q574.8875 89.56228 575.7 88.7029Q576.5125 87.8279 577.79376 87.8279Q579.04376 87.8279 579.825 88.67165Q580.6219 89.5154 580.6219 91.06228Q580.6219 91.15603 580.6219 91.34353L575.98126 91.34353Q576.04376 92.37478 576.5594 92.92165Q577.075 93.4529 577.85626 93.4529Q578.4344 93.4529 578.84064 93.15603Q579.2625 92.84353 579.4969 92.18728ZM576.04376 90.48415L579.5125 90.48415Q579.45 89.68728 579.1219 89.29665Q578.60626 88.68728 577.8094 88.68728Q577.075 88.68728 576.575 89.17165Q576.09064 89.65603 576.04376 90.48415Z" fill-rule="nonzero"/><path fill="#9e9e9e" d="M550.91876 111.18728L549.8719 111.18728L549.8719 104.46853Q549.48126 104.8279 548.85626 105.2029Q548.2469 105.56228 547.7625 105.73415L547.7625 104.71853Q548.6375 104.29665 549.29376 103.71853Q549.96564 103.12478 550.2469 102.56228L550.91876 102.56228L550.91876 111.18728ZM553.95 106.9529Q553.95 105.42165 554.2625 104.49978Q554.575 103.56228 555.1844 103.06228Q555.8094 102.56228 556.7469 102.56228Q557.4344 102.56228 557.95 102.84353Q558.48126 103.12478 558.825 103.65603Q559.16876 104.17165 559.35626 104.92165Q559.54376 105.67165 559.54376 106.9529Q559.54376 108.46853 559.23126 109.3904Q558.9344 110.31228 558.3094 110.8279Q557.7 111.3279 556.7469 111.3279Q555.5125 111.3279 554.79376 110.43728Q553.95 109.37478 553.95 106.9529ZM555.02814 106.9529Q555.02814 109.06228 555.52814 109.7654Q556.02814 110.46853 556.7469 110.46853Q557.48126 110.46853 557.96564 109.7654Q558.46564 109.06228 558.46564 106.9529Q558.46564 104.8279 557.96564 104.1404Q557.48126 103.43728 556.73126 103.43728Q556.0125 103.43728 555.575 104.04665Q555.02814 104.8279 555.02814 106.9529ZM561.5125 111.18728L561.5125 109.98415L562.71564 109.98415L562.71564 111.18728Q562.71564 111.84353 562.48126 112.24978Q562.2469 112.67165 561.7469 112.8904L561.45 112.43728Q561.77814 112.29665 561.9344 111.99978Q562.09064 111.71853 562.1219 111.18728L561.5125 111.18728ZM563.95 108.92165L565.0125 108.78103Q565.1844 109.67165 565.6219 110.0779Q566.0594 110.46853 566.6844 110.46853Q567.4344 110.46853 567.95 109.9529Q568.46564 109.43728 568.46564 108.67165Q568.46564 107.9529 567.98126 107.48415Q567.5125 106.99978 566.77814 106.99978Q566.48126 106.99978 566.02814 107.12478L566.15314 106.18728Q566.2625 106.2029 566.325 106.2029Q566.9969 106.2029 567.52814 105.85915Q568.075 105.49978 568.075 104.7654Q568.075 104.18728 567.6844 103.81228Q567.29376 103.42165 566.66876 103.42165Q566.0594 103.42165 565.6375 103.81228Q565.23126 104.2029 565.1219 104.96853L564.0594 104.78103Q564.2469 103.73415 564.9344 103.15603Q565.6219 102.56228 566.6375 102.56228Q567.34064 102.56228 567.9344 102.87478Q568.52814 103.17165 568.84064 103.68728Q569.15314 104.2029 569.15314 104.79665Q569.15314 105.34353 568.85626 105.81228Q568.5594 106.2654 567.98126 106.53103Q568.73126 106.7029 569.15314 107.2654Q569.575 107.81228 569.575 108.65603Q569.575 109.78103 568.7469 110.56228Q567.9344 111.34353 566.6844 111.34353Q565.5594 111.34353 564.8094 110.67165Q564.0594 109.98415 563.95 108.92165ZM571.15314 104.65603Q571.15314 103.73415 571.60626 103.09353Q572.075 102.4529 572.95 102.4529Q573.7625 102.4529 574.29376 103.03103Q574.825 103.60915 574.825 104.71853Q574.825 105.81228 574.27814 106.40603Q573.7469 106.98415 572.96564 106.98415Q572.1844 106.98415 571.66876 106.40603Q571.15314 105.8279 571.15314 104.65603ZM572.98126 103.17165Q572.59064 103.17165 572.325 103.5154Q572.075 103.85915 572.075 104.7654Q572.075 105.59353 572.325 105.93728Q572.59064 106.2654 572.98126 106.2654Q573.3875 106.2654 573.6375 105.92165Q573.90314 105.5779 573.90314 104.68728Q573.90314 103.84353 573.6375 103.5154Q573.3719 103.17165 572.98126 103.17165ZM572.98126 111.49978L577.6844 102.4529L578.54376 102.4529L573.85626 111.49978L572.98126 111.49978ZM576.7 109.17165Q576.7 108.24978 577.15314 107.60915Q577.6219 106.96853 578.5125 106.96853Q579.325 106.96853 579.85626 107.54665Q580.3875 108.10915 580.3875 109.23415Q580.3875 110.3279 579.84064 110.92165Q579.3094 111.49978 578.5125 111.49978Q577.7469 111.49978 577.21564 110.92165Q576.7 110.34353 576.7 109.17165ZM578.54376 107.68728Q578.1375 107.68728 577.8719 108.03103Q577.6219 108.37478 577.6219 109.28103Q577.6219 110.09353 577.8875 110.43728Q578.15314 110.78103 578.54376 110.78103Q578.9344 110.78103 579.2 110.43728Q579.46564 110.09353 579.46564 109.18728Q579.46564 108.35915 579.2 108.03103Q578.9344 107.68728 578.54376 107.68728Z" fill-rule="nonzero"/><path stroke="#757575" stroke-width="1.0" stroke-linecap="butt" d="M581.45 98.68728L454.76666 98.68728L344.75415 98.68728" fill-rule="nonzero"/><path fill="#9e9e9e" d="M346.75415 98.68728C346.75415 97.58271 345.85873 96.68728 344.75415 96.68728C343.6496 96.68728 342.75415 97.58271 342.75415 98.68728C342.75415 99.79185 343.6496 100.68728 344.75415 100.68728C345.85873 100.68728 346.75415 99.79185 346.75415 98.68728" fill-rule="nonzero"/><path fill="#1a1a1a" d="M497.4344 145.61536L500.73126 137.0216L501.95 137.0216L505.46564 145.61536L504.1844 145.61536L503.16876 143.00598L499.59064 143.00598L498.6375 145.61536L497.4344 145.61536ZM499.91876 142.0841L502.825 142.0841L501.9344 139.7091Q501.5125 138.63098 501.325 137.92786Q501.15314 138.75598 500.85626 139.56848L499.91876 142.0841ZM505.2469 145.61536L505.2469 139.3966L506.1844 139.3966L506.1844 140.2716Q506.48126 139.80286 506.96564 139.53723Q507.45 139.25598 508.075 139.25598Q508.7625 139.25598 509.2 139.53723Q509.65314 139.81848 509.825 140.3341Q510.575 139.25598 511.7469 139.25598Q512.6844 139.25598 513.16876 139.7716Q513.66876 140.2716 513.66876 141.34973L513.66876 145.61536L512.6219 145.61536L512.6219 141.69348Q512.6219 141.06848 512.5125 140.78723Q512.41876 140.50598 512.15314 140.3341Q511.8875 140.16223 511.5125 140.16223Q510.85626 140.16223 510.41876 140.59973Q509.9969 141.03723 509.9969 142.00598L509.9969 145.61536L508.9344 145.61536L508.9344 141.56848Q508.9344 140.86536 508.66876 140.5216Q508.41876 140.16223 507.84064 140.16223Q507.3875 140.16223 507.0125 140.3966Q506.6375 140.63098 506.46564 141.0841Q506.29376 141.53723 506.29376 142.38098L506.29376 145.61536L505.2469 145.61536ZM516.2469 145.61536L516.2469 139.3966L517.1844 139.3966L517.1844 140.2716Q517.48126 139.80286 517.96564 139.53723Q518.45 139.25598 519.075 139.25598Q519.7625 139.25598 520.2 139.53723Q520.65314 139.81848 520.825 140.3341Q521.575 139.25598 522.7469 139.25598Q523.6844 139.25598 524.16876 139.7716Q524.66876 140.2716 524.66876 141.34973L524.66876 145.61536L523.6219 145.61536L523.6219 141.69348Q523.6219 141.06848 523.5125 140.78723Q523.41876 140.50598 523.15314 140.3341Q522.8875 140.16223 522.5125 140.16223Q521.85626 140.16223 521.41876 140.59973Q520.9969 141.03723 520.9969 142.00598L520.9969 145.61536L519.9344 145.61536L519.9344 141.56848Q519.9344 140.86536 519.66876 140.5216Q519.41876 140.16223 518.84064 140.16223Q518.3875 140.16223 518.0125 140.3966Q517.6375 140.63098 517.46564 141.0841Q517.29376 141.53723 517.29376 142.38098L517.29376 145.61536L516.2469 145.61536ZM527.2469 138.24036L527.2469 137.0216L528.3094 137.0216L528.3094 138.24036L527.2469 138.24036ZM527.2469 145.61536L527.2469 139.3966L528.3094 139.3966L528.3094 145.61536L527.2469 145.61536ZM530.2469 145.61536L530.2469 139.3966L531.1844 139.3966L531.1844 140.2716Q531.8719 139.25598 533.16876 139.25598Q533.73126 139.25598 534.2 139.4591Q534.6844 139.66223 534.91876 139.99036Q535.15314 140.31848 535.2469 140.75598Q535.29376 141.05286 535.29376 141.78723L535.29376 145.61536L534.2469 145.61536L534.2469 141.8341Q534.2469 141.17786 534.1219 140.86536Q533.9969 140.55286 533.6844 140.36536Q533.3719 140.16223 532.95 140.16223Q532.27814 140.16223 531.77814 140.59973Q531.29376 141.0216 531.29376 142.2091L531.29376 145.61536L530.2469 145.61536ZM537.2469 138.24036L537.2469 137.0216L538.3094 137.0216L538.3094 138.24036L537.2469 138.24036ZM537.2469 145.61536L537.2469 139.3966L538.3094 139.3966L538.3094 145.61536L537.2469 145.61536ZM539.825 143.75598L540.85626 143.59973Q540.95 144.22473 541.34064 144.55286Q541.7469 144.88098 542.48126 144.88098Q543.2 144.88098 543.54376 144.59973Q543.90314 144.30286 543.90314 143.8966Q543.90314 143.53723 543.59064 143.3341Q543.3719 143.19348 542.5125 142.97473Q541.35626 142.67786 540.90314 142.47473Q540.46564 142.25598 540.23126 141.88098Q539.9969 141.50598 539.9969 141.03723Q539.9969 140.63098 540.1844 140.2716Q540.3719 139.91223 540.7 139.67786Q540.95 139.50598 541.3719 139.38098Q541.79376 139.25598 542.29376 139.25598Q543.0125 139.25598 543.5594 139.47473Q544.1219 139.67786 544.3875 140.03723Q544.65314 140.3966 544.7469 140.99036L543.71564 141.13098Q543.65314 140.66223 543.3094 140.3966Q542.98126 140.11536 542.35626 140.11536Q541.6375 140.11536 541.325 140.36536Q541.0125 140.59973 541.0125 140.92786Q541.0125 141.13098 541.1375 141.28723Q541.27814 141.4591 541.54376 141.56848Q541.7 141.63098 542.48126 141.8341Q543.60626 142.1466 544.04376 142.3341Q544.48126 142.5216 544.73126 142.88098Q544.98126 143.24036 544.98126 143.78723Q544.98126 144.31848 544.66876 144.78723Q544.3719 145.24036 543.79376 145.50598Q543.21564 145.75598 542.48126 145.75598Q541.2625 145.75598 540.6219 145.25598Q539.9969 144.74036 539.825 143.75598ZM549.54376 144.67786L549.7 145.59973Q549.2469 145.69348 548.90314 145.69348Q548.325 145.69348 548.0125 145.5216Q547.7 145.3341 547.5594 145.03723Q547.4344 144.74036 547.4344 143.78723L547.4344 140.2091L546.66876 140.2091L546.66876 139.3966L547.4344 139.3966L547.4344 137.84973L548.48126 137.22473L548.48126 139.3966L549.54376 139.3966L549.54376 140.2091L548.48126 140.2091L548.48126 143.84973Q548.48126 144.30286 548.52814 144.42786Q548.59064 144.55286 548.71564 144.63098Q548.84064 144.7091 549.075 144.7091Q549.2625 144.7091 549.54376 144.67786ZM550.23126 145.61536L550.23126 139.3966L551.1844 139.3966L551.1844 140.3341Q551.54376 139.67786 551.84064 139.47473Q552.15314 139.25598 552.52814 139.25598Q553.0594 139.25598 553.60626 139.5841L553.2469 140.56848Q552.85626 140.3341 552.48126 140.3341Q552.1219 140.3341 551.84064 140.55286Q551.575 140.75598 551.46564 141.13098Q551.27814 141.69348 551.27814 142.34973L551.27814 145.61536L550.23126 145.61536ZM558.3094 144.84973Q557.71564 145.34973 557.16876 145.55286Q556.6375 145.75598 556.0125 145.75598Q554.98126 145.75598 554.4344 145.25598Q553.8875 144.75598 553.8875 143.97473Q553.8875 143.5216 554.09064 143.1466Q554.29376 142.75598 554.6375 142.53723Q554.98126 142.30286 555.40314 142.19348Q555.7 142.09973 556.34064 142.0216Q557.60626 141.88098 558.21564 141.66223Q558.21564 141.44348 558.21564 141.3966Q558.21564 140.74036 557.91876 140.47473Q557.5125 140.13098 556.71564 140.13098Q555.98126 140.13098 555.6219 140.3966Q555.2625 140.6466 555.09064 141.30286L554.0594 141.16223Q554.2 140.50598 554.52814 140.09973Q554.85626 139.69348 555.46564 139.47473Q556.075 139.25598 556.8719 139.25598Q557.66876 139.25598 558.16876 139.44348Q558.66876 139.63098 558.90314 139.91223Q559.1375 140.19348 559.23126 140.63098Q559.27814 140.8966 559.27814 141.59973L559.27814 143.00598Q559.27814 144.47473 559.34064 144.86536Q559.41876 145.25598 559.6219 145.61536L558.5125 145.61536Q558.35626 145.28723 558.3094 144.84973ZM558.21564 142.49036Q557.6375 142.72473 556.4969 142.8966Q555.84064 142.99036 555.575 143.11536Q555.3094 143.22473 555.15314 143.44348Q555.0125 143.66223 555.0125 143.94348Q555.0125 144.36536 555.325 144.6466Q555.65314 144.92786 556.2625 144.92786Q556.8719 144.92786 557.34064 144.66223Q557.825 144.3966 558.04376 143.92786Q558.21564 143.56848 558.21564 142.88098L558.21564 142.49036ZM563.54376 144.67786L563.7 145.59973Q563.2469 145.69348 562.90314 145.69348Q562.325 145.69348 562.0125 145.5216Q561.7 145.3341 561.5594 145.03723Q561.4344 144.74036 561.4344 143.78723L561.4344 140.2091L560.66876 140.2091L560.66876 139.3966L561.4344 139.3966L561.4344 137.84973L562.48126 137.22473L562.48126 139.3966L563.54376 139.3966L563.54376 140.2091L562.48126 140.2091L562.48126 143.84973Q562.48126 144.30286 562.52814 144.42786Q562.59064 144.55286 562.71564 144.63098Q562.84064 144.7091 563.075 144.7091Q563.2625 144.7091 563.54376 144.67786ZM563.85626 142.50598Q563.85626 140.7716 564.8094 139.94348Q565.60626 139.25598 566.7625 139.25598Q568.04376 139.25598 568.85626 140.09973Q569.6844 140.92786 569.6844 142.41223Q569.6844 143.61536 569.325 144.30286Q568.96564 144.99036 568.2625 145.38098Q567.575 145.75598 566.7625 145.75598Q565.46564 145.75598 564.65314 144.92786Q563.85626 144.0841 563.85626 142.50598ZM564.9344 142.50598Q564.9344 143.69348 565.45 144.28723Q565.98126 144.88098 566.7625 144.88098Q567.5594 144.88098 568.075 144.28723Q568.59064 143.69348 568.59064 142.47473Q568.59064 141.31848 568.0594 140.72473Q567.54376 140.13098 566.7625 140.13098Q565.98126 140.13098 565.45 140.72473Q564.9344 141.30286 564.9344 142.50598ZM571.23126 145.61536L571.23126 139.3966L572.1844 139.3966L572.1844 140.3341Q572.54376 139.67786 572.84064 139.47473Q573.15314 139.25598 573.52814 139.25598Q574.0594 139.25598 574.60626 139.5841L574.2469 140.56848Q573.85626 140.3341 573.48126 140.3341Q573.1219 140.3341 572.84064 140.55286Q572.575 140.75598 572.46564 141.13098Q572.27814 141.69348 572.27814 142.34973L572.27814 145.61536L571.23126 145.61536ZM579.4969 143.61536L580.59064 143.74036Q580.34064 144.69348 579.6375 145.22473Q578.9344 145.75598 577.85626 145.75598Q576.4969 145.75598 575.6844 144.91223Q574.8875 144.06848 574.8875 142.55286Q574.8875 140.99036 575.7 140.13098Q576.5125 139.25598 577.79376 139.25598Q579.04376 139.25598 579.825 140.09973Q580.6219 140.94348 580.6219 142.49036Q580.6219 142.5841 580.6219 142.7716L575.98126 142.7716Q576.04376 143.80286 576.5594 144.34973Q577.075 144.88098 577.85626 144.88098Q578.4344 144.88098 578.84064 144.5841Q579.2625 144.2716 579.4969 143.61536ZM576.04376 141.91223L579.5125 141.91223Q579.45 141.11536 579.1219 140.72473Q578.60626 140.11536 577.8094 140.11536Q577.075 140.11536 576.575 140.59973Q576.09064 141.0841 576.04376 141.91223Z" fill-rule="nonzero"/><path fill="#9e9e9e" d="M550.91876 162.61536L549.8719 162.61536L549.8719 155.8966Q549.48126 156.25598 548.85626 156.63098Q548.2469 156.99036 547.7625 157.16223L547.7625 156.1466Q548.6375 155.72473 549.29376 155.1466Q549.96564 154.55286 550.2469 153.99036L550.91876 153.99036L550.91876 162.61536ZM553.95 160.36536L555.0594 160.2716Q555.1844 161.0841 555.6219 161.49036Q556.075 161.8966 556.71564 161.8966Q557.46564 161.8966 557.9969 161.31848Q558.52814 160.74036 558.52814 159.80286Q558.52814 158.8966 558.0125 158.38098Q557.5125 157.84973 556.6844 157.84973Q556.1844 157.84973 555.7625 158.0841Q555.35626 158.31848 555.1219 158.67786L554.1375 158.55286L554.96564 154.1466L559.2469 154.1466L559.2469 155.1466L555.8094 155.1466L555.35626 157.4591Q556.1219 156.91223 556.96564 156.91223Q558.09064 156.91223 558.85626 157.69348Q559.6375 158.47473 559.6375 159.7091Q559.6375 160.86536 558.96564 161.72473Q558.1375 162.75598 556.71564 162.75598Q555.54376 162.75598 554.79376 162.09973Q554.0594 161.44348 553.95 160.36536ZM561.5125 162.61536L561.5125 161.41223L562.71564 161.41223L562.71564 162.61536Q562.71564 163.2716 562.48126 163.67786Q562.2469 164.09973 561.7469 164.31848L561.45 163.86536Q561.77814 163.72473 561.9344 163.42786Q562.09064 163.1466 562.1219 162.61536L561.5125 162.61536ZM567.325 162.61536L567.325 160.55286L563.60626 160.55286L563.60626 159.5841L567.52814 154.0216L568.3875 154.0216L568.3875 159.5841L569.54376 159.5841L569.54376 160.55286L568.3875 160.55286L568.3875 162.61536L567.325 162.61536ZM567.325 159.5841L567.325 155.72473L564.6375 159.5841L567.325 159.5841ZM571.15314 156.0841Q571.15314 155.16223 571.60626 154.5216Q572.075 153.88098 572.95 153.88098Q573.7625 153.88098 574.29376 154.4591Q574.825 155.03723 574.825 156.1466Q574.825 157.24036 574.27814 157.8341Q573.7469 158.41223 572.96564 158.41223Q572.1844 158.41223 571.66876 157.8341Q571.15314 157.25598 571.15314 156.0841ZM572.98126 154.59973Q572.59064 154.59973 572.325 154.94348Q572.075 155.28723 572.075 156.19348Q572.075 157.0216 572.325 157.36536Q572.59064 157.69348 572.98126 157.69348Q573.3875 157.69348 573.6375 157.34973Q573.90314 157.00598 573.90314 156.11536Q573.90314 155.2716 573.6375 154.94348Q573.3719 154.59973 572.98126 154.59973ZM572.98126 162.92786L577.6844 153.88098L578.54376 153.88098L573.85626 162.92786L572.98126 162.92786ZM576.7 160.59973Q576.7 159.67786 577.15314 159.03723Q577.6219 158.3966 578.5125 158.3966Q579.325 158.3966 579.85626 158.97473Q580.3875 159.53723 580.3875 160.66223Q580.3875 161.75598 579.84064 162.34973Q579.3094 162.92786 578.5125 162.92786Q577.7469 162.92786 577.21564 162.34973Q576.7 161.7716 576.7 160.59973ZM578.54376 159.11536Q578.1375 159.11536 577.8719 159.4591Q577.6219 159.80286 577.6219 160.7091Q577.6219 161.5216 577.8875 161.86536Q578.15314 162.2091 578.54376 162.2091Q578.9344 162.2091 579.2 161.86536Q579.46564 161.5216 579.46564 160.61536Q579.46564 159.78723 579.2 159.4591Q578.9344 159.11536 578.54376 159.11536Z" fill-rule="nonzero"/><path stroke="#757575" stroke-width="1.0" stroke-linecap="butt" d="M581.45 150.11536L454.76666 150.11536L427.68314 150.11536" fill-rule="nonzero"/><path fill="#9e9e9e" d="M429.68314 150.11536C429.68314 149.01077 428.78772 148.11536 427.68314 148.11536C426.57858 148.11536 425.68314 149.01077 425.68314 150.11536C425.68314 151.21992 426.57858 152.11536 427.68314 152.11536C428.78772 152.11536 429.68314 151.21992 429.68314 150.11536" fill-rule="nonzero"/><path fill="#757575" d="M20.096874 37.55L20.096874 23.2375L25.4875 23.2375Q26.925 23.2375 27.675 23.3625Q28.721874 23.55 29.440624 24.05Q30.159374 24.534374 30.58125 25.425Q31.01875 26.315624 31.01875 27.378124Q31.01875 29.20625 29.846874 30.471874Q28.690624 31.721874 25.659374 31.721874L21.9875 31.721874L21.9875 37.55L20.096874 37.55ZM21.9875 30.034374L25.690624 30.034374Q27.51875 30.034374 28.284374 29.3625Q29.065624 28.675 29.065624 27.425Q29.065624 26.534374 28.6125 25.89375Q28.159374 25.253124 27.425 25.05Q26.940624 24.925 25.64375 24.925L21.9875 24.925L21.9875 30.034374ZM39.971874 34.20625L41.784374 34.440624Q41.3625 36.01875 40.190624 36.909374Q39.034374 37.784374 37.221874 37.784374Q34.95625 37.784374 33.6125 36.39375Q32.284374 34.9875 32.284374 32.45625Q32.284374 29.83125 33.628124 28.39375Q34.971874 26.940624 37.128124 26.940624Q39.20625 26.940624 40.51875 28.3625Q41.846874 29.76875 41.846874 32.346874Q41.846874 32.503124 41.83125 32.815624L34.096874 32.815624Q34.190624 34.51875 35.065624 35.425Q35.940624 36.33125 37.2375 36.33125Q38.20625 36.33125 38.878124 35.83125Q39.565624 35.315624 39.971874 34.20625ZM34.190624 31.3625L39.9875 31.3625Q39.878124 30.065624 39.33125 29.409374Q38.4875 28.39375 37.14375 28.39375Q35.940624 28.39375 35.1125 29.20625Q34.284374 30.003124 34.190624 31.3625ZM43.846874 37.55L43.846874 27.175L45.425 27.175L45.425 28.753124Q46.034374 27.64375 46.55 27.3Q47.065624 26.940624 47.675 26.940624Q48.565624 26.940624 49.4875 27.503124L48.878124 29.14375Q48.2375 28.753124 47.596874 28.753124Q47.01875 28.753124 46.55 29.1125Q46.096874 29.45625 45.89375 30.065624Q45.6125 31.003124 45.6125 32.1125L45.6125 37.55L43.846874 37.55ZM57.64375 33.753124L59.3625 33.971874Q59.08125 35.76875 57.909374 36.784374Q56.753124 37.784374 55.05 37.784374Q52.925 37.784374 51.628124 36.39375Q50.33125 35.003124 50.33125 32.409374Q50.33125 30.721874 50.878124 29.471874Q51.440624 28.20625 52.58125 27.58125Q53.721874 26.940624 55.065624 26.940624Q56.753124 26.940624 57.815624 27.8Q58.89375 28.659374 59.20625 30.221874L57.4875 30.4875Q57.253124 29.440624 56.628124 28.925Q56.003124 28.39375 55.128124 28.39375Q53.8 28.39375 52.971874 29.346874Q52.14375 30.3 52.14375 32.346874Q52.14375 34.440624 52.940624 35.39375Q53.7375 36.33125 55.034374 36.33125Q56.065624 36.33125 56.753124 35.70625Q57.45625 35.065624 57.64375 33.753124ZM67.97188 34.20625L69.78438 34.440624Q69.3625 36.01875 68.19063 36.909374Q67.03438 37.784374 65.22188 37.784374Q62.95625 37.784374 61.6125 36.39375Q60.284374 34.9875 60.284374 32.45625Q60.284374 29.83125 61.628124 28.39375Q62.971874 26.940624 65.12813 26.940624Q67.20625 26.940624 68.51875 28.3625Q69.84688 29.76875 69.84688 32.346874Q69.84688 32.503124 69.83125 32.815624L62.096874 32.815624Q62.190624 34.51875 63.065624 35.425Q63.940624 36.33125 65.2375 36.33125Q66.20625 36.33125 66.87813 35.83125Q67.56563 35.315624 67.97188 34.20625ZM62.190624 31.3625L67.9875 31.3625Q67.87813 30.065624 67.33125 29.409374Q66.4875 28.39375 65.14375 28.39375Q63.940624 28.39375 63.1125 29.20625Q62.284374 30.003124 62.190624 31.3625ZM71.8625 37.55L71.8625 27.175L73.45625 27.175L73.45625 28.659374Q74.59688 26.940624 76.75313 26.940624Q77.69063 26.940624 78.47188 27.284374Q79.26875 27.6125 79.65938 28.159374Q80.05 28.70625 80.20625 29.45625Q80.3 29.95625 80.3 31.175L80.3 37.55L78.53438 37.55L78.53438 31.2375Q78.53438 30.159374 78.33125 29.628124Q78.12813 29.096874 77.59688 28.784374Q77.08125 28.471874 76.37813 28.471874Q75.25313 28.471874 74.44063 29.190624Q73.62813 29.89375 73.62813 31.878124L73.62813 37.55L71.8625 37.55ZM85.70625 35.971874L85.95625 37.534374Q85.22188 37.690624 84.62813 37.690624Q83.675 37.690624 83.14375 37.39375Q82.62813 37.08125 82.40938 36.596874Q82.19063 36.096874 82.19063 34.51875L82.19063 28.55L80.90938 28.55L80.90938 27.175L82.19063 27.175L82.19063 24.6125L83.94063 23.55L83.94063 27.175L85.70625 27.175L85.70625 28.55L83.94063 28.55L83.94063 34.6125Q83.94063 35.3625 84.03438 35.58125Q84.12813 35.784374 84.33125 35.925Q84.55 36.05 84.94063 36.05Q85.22188 36.05 85.70625 35.971874ZM94.65938 37.55L94.65938 36.01875Q93.45625 37.784374 91.37813 37.784374Q90.45625 37.784374 89.65938 37.440624Q88.8625 37.08125 88.47188 36.55Q88.09688 36.01875 87.94063 35.2375Q87.83125 34.721874 87.83125 33.596874L87.83125 27.175L89.58125 27.175L89.58125 32.925Q89.58125 34.3 89.69063 34.784374Q89.8625 35.471874 90.39375 35.878124Q90.94063 36.26875 91.72188 36.26875Q92.51875 36.26875 93.20625 35.8625Q93.90938 35.45625 94.19063 34.76875Q94.4875 34.065624 94.4875 32.7375L94.4875 27.175L96.2375 27.175L96.2375 37.55L94.65938 37.55ZM104.64375 36.26875Q103.65938 37.096874 102.75313 37.440624Q101.84688 37.784374 100.81563 37.784374Q99.1125 37.784374 98.19063 36.95625Q97.26875 36.1125 97.26875 34.815624Q97.26875 34.05 97.6125 33.425Q97.97188 32.8 98.53438 32.425Q99.09688 32.034374 99.8 31.83125Q100.31563 31.70625 101.3625 31.565624Q103.4875 31.315624 104.4875 30.971874Q104.50313 30.6125 104.50313 30.503124Q104.50313 29.440624 104.00313 28.9875Q103.33125 28.39375 102.00313 28.39375Q100.75313 28.39375 100.15938 28.83125Q99.58125 29.26875 99.3 30.378124L97.58125 30.14375Q97.81563 29.034374 98.34688 28.3625Q98.87813 27.675 99.89375 27.315624Q100.90938 26.940624 102.25313 26.940624Q103.58125 26.940624 104.40938 27.253124Q105.2375 27.565624 105.62813 28.05Q106.01875 28.51875 106.175 29.2375Q106.26875 29.690624 106.26875 30.8625L106.26875 33.20625Q106.26875 35.659374 106.37813 36.315624Q106.4875 36.95625 106.83125 37.55L104.9875 37.55Q104.72188 37.003124 104.64375 36.26875ZM104.4875 32.346874Q103.53438 32.7375 101.6125 33.003124Q100.53438 33.159374 100.08125 33.3625Q99.64375 33.55 99.39375 33.925Q99.14375 34.3 99.14375 34.76875Q99.14375 35.471874 99.675 35.940624Q100.20625 36.409374 101.2375 36.409374Q102.25313 36.409374 103.03438 35.971874Q103.83125 35.51875 104.20625 34.753124Q104.4875 34.14375 104.4875 32.9875L104.4875 32.346874ZM108.83125 37.55L108.83125 23.2375L110.58125 23.2375L110.58125 37.55L108.83125 37.55ZM119.97188 34.20625L121.78438 34.440624Q121.3625 36.01875 120.19063 36.909374Q119.03438 37.784374 117.22188 37.784374Q114.95625 37.784374 113.6125 36.39375Q112.28438 34.9875 112.28438 32.45625Q112.28438 29.83125 113.62813 28.39375Q114.97188 26.940624 117.12813 26.940624Q119.20625 26.940624 120.51875 28.3625Q121.84688 29.76875 121.84688 32.346874Q121.84688 32.503124 121.83125 32.815624L114.09688 32.815624Q114.19063 34.51875 115.06563 35.425Q115.94063 36.33125 117.2375 36.33125Q118.20625 36.33125 118.87813 35.83125Q119.56563 35.315624 119.97188 34.20625ZM114.19063 31.3625L119.9875 31.3625Q119.87813 30.065624 119.33125 29.409374Q118.4875 28.39375 117.14375 28.39375Q115.94063 28.39375 115.1125 29.20625Q114.28438 30.003124 114.19063 31.3625ZM129.22188 32.3625Q129.22188 29.4875 130.81563 28.096874Q132.15938 26.940624 134.08125 26.940624Q136.22188 26.940624 137.56563 28.346874Q138.925 29.753124 138.925 32.221874Q138.925 34.221874 138.33125 35.378124Q137.7375 36.51875 136.58125 37.159374Q135.44063 37.784374 134.08125 37.784374Q131.89375 37.784374 130.55 36.39375Q129.22188 34.9875 129.22188 32.3625ZM131.01875 32.3625Q131.01875 34.3625 131.87813 35.346874Q132.75313 36.33125 134.08125 36.33125Q135.39375 36.33125 136.25313 35.346874Q137.12813 34.346874 137.12813 32.3Q137.12813 30.378124 136.25313 29.39375Q135.37813 28.39375 134.08125 28.39375Q132.75313 28.39375 131.87813 29.39375Q131.01875 30.378124 131.01875 32.3625ZM140.84688 37.55L140.84688 27.175L142.425 27.175L142.425 28.753124Q143.03438 27.64375 143.55 27.3Q144.06563 26.940624 144.675 26.940624Q145.56563 26.940624 146.4875 27.503124L145.87813 29.14375Q145.2375 28.753124 144.59688 28.753124Q144.01875 28.753124 143.55 29.1125Q143.09688 29.45625 142.89375 30.065624Q142.6125 31.003124 142.6125 32.1125L142.6125 37.55L140.84688 37.55ZM154.97188 34.20625L156.78438 34.440624Q156.3625 36.01875 155.19063 36.909374Q154.03438 37.784374 152.22188 37.784374Q149.95625 37.784374 148.6125 36.39375Q147.28438 34.9875 147.28438 32.45625Q147.28438 29.83125 148.62813 28.39375Q149.97188 26.940624 152.12813 26.940624Q154.20625 26.940624 155.51875 28.3625Q156.84688 29.76875 156.84688 32.346874Q156.84688 32.503124 156.83125 32.815624L149.09688 32.815624Q149.19063 34.51875 150.06563 35.425Q150.94063 36.33125 152.2375 36.33125Q153.20625 36.33125 153.87813 35.83125Q154.56563 35.315624 154.97188 34.20625ZM149.19063 31.3625L154.9875 31.3625Q154.87813 30.065624 154.33125 29.409374Q153.4875 28.39375 152.14375 28.39375Q150.94063 28.39375 150.1125 29.20625Q149.28438 30.003124 149.19063 31.3625ZM163.51875 37.55L169.01875 23.2375L171.06563 23.2375L176.925 37.55L174.76875 37.55L173.09688 33.20625L167.1125 33.20625L165.53438 37.55L163.51875 37.55ZM167.65938 31.675L172.50313 31.675L171.01875 27.70625Q170.33125 25.89375 170.00313 24.7375Q169.72188 26.1125 169.22188 27.471874L167.65938 31.675ZM177.8625 37.55L177.8625 27.175L179.45625 27.175L179.45625 28.659374Q180.59688 26.940624 182.75313 26.940624Q183.69063 26.940624 184.47188 27.284374Q185.26875 27.6125 185.65938 28.159374Q186.05 28.70625 186.20625 29.45625Q186.3 29.95625 186.3 31.175L186.3 37.55L184.53438 37.55L184.53438 31.2375Q184.53438 30.159374 184.33125 29.628124Q184.12813 29.096874 183.59688 28.784374Q183.08125 28.471874 182.37813 28.471874Q181.25313 28.471874 180.44063 29.190624Q179.62813 29.89375 179.62813 31.878124L179.62813 37.55L177.8625 37.55ZM194.64375 36.26875Q193.65938 37.096874 192.75313 37.440624Q191.84688 37.784374 190.81563 37.784374Q189.1125 37.784374 188.19063 36.95625Q187.26875 36.1125 187.26875 34.815624Q187.26875 34.05 187.6125 33.425Q187.97188 32.8 188.53438 32.425Q189.09688 32.034374 189.8 31.83125Q190.31563 31.70625 191.3625 31.565624Q193.4875 31.315624 194.4875 30.971874Q194.50313 30.6125 194.50313 30.503124Q194.50313 29.440624 194.00313 28.9875Q193.33125 28.39375 192.00313 28.39375Q190.75313 28.39375 190.15938 28.83125Q189.58125 29.26875 189.3 30.378124L187.58125 30.14375Q187.81563 29.034374 188.34688 28.3625Q188.87813 27.675 189.89375 27.315624Q190.90938 26.940624 192.25313 26.940624Q193.58125 26.940624 194.40938 27.253124Q195.2375 27.565624 195.62813 28.05Q196.01875 28.51875 196.175 29.2375Q196.26875 29.690624 196.26875 30.8625L196.26875 33.20625Q196.26875 35.659374 196.37813 36.315624Q196.4875 36.95625 196.83125 37.55L194.9875 37.55Q194.72188 37.003124 194.64375 36.26875ZM194.4875 32.346874Q193.53438 32.7375 191.6125 33.003124Q190.53438 33.159374 190.08125 33.3625Q189.64375 33.55 189.39375 33.925Q189.14375 34.3 189.14375 34.76875Q189.14375 35.471874 189.675 35.940624Q190.20625 36.409374 191.2375 36.409374Q192.25313 36.409374 193.03438 35.971874Q193.83125 35.51875 194.20625 34.753124Q194.4875 34.14375 194.4875 32.9875L194.4875 32.346874ZM198.83125 37.55L198.83125 23.2375L200.58125 23.2375L200.58125 37.55L198.83125 37.55ZM202.87813 25.253124L202.87813 23.2375L204.64375 23.2375L204.64375 25.253124L202.87813 25.253124ZM202.87813 37.55L202.87813 27.175L204.64375 27.175L204.64375 37.55L202.87813 37.55ZM206.15938 34.45625L207.90938 34.175Q208.05 35.221874 208.72188 35.784374Q209.39375 36.33125 210.59688 36.33125Q211.8 36.33125 212.37813 35.846874Q212.97188 35.346874 212.97188 34.690624Q212.97188 34.096874 212.45625 33.753124Q212.09688 33.51875 210.65938 33.159374Q208.72188 32.659374 207.97188 32.315624Q207.2375 31.95625 206.84688 31.33125Q206.45625 30.690624 206.45625 29.925Q206.45625 29.2375 206.76875 28.64375Q207.09688 28.05 207.64375 27.659374Q208.05 27.3625 208.75313 27.159374Q209.47188 26.940624 210.28438 26.940624Q211.50313 26.940624 212.425 27.3Q213.34688 27.64375 213.78438 28.253124Q214.22188 28.846874 214.39375 29.846874L212.675 30.08125Q212.55 29.284374 211.9875 28.846874Q211.425 28.39375 210.40938 28.39375Q209.19063 28.39375 208.675 28.8Q208.15938 29.190624 208.15938 29.721874Q208.15938 30.065624 208.37813 30.346874Q208.58125 30.628124 209.05 30.815624Q209.31563 30.909374 210.59688 31.253124Q212.47188 31.753124 213.20625 32.08125Q213.94063 32.39375 214.3625 33.003124Q214.78438 33.596874 214.78438 34.503124Q214.78438 35.378124 214.26875 36.159374Q213.75313 36.940624 212.78438 37.3625Q211.81563 37.784374 210.59688 37.784374Q208.58125 37.784374 207.51875 36.940624Q206.45625 36.096874 206.15938 34.45625ZM216.87813 25.253124L216.87813 23.2375L218.64375 23.2375L218.64375 25.253124L216.87813 25.253124ZM216.87813 37.55L216.87813 27.175L218.64375 27.175L218.64375 37.55L216.87813 37.55Z" fill-rule="nonzero"/></svg>