<svg version="1.1" viewBox="0.0 0.0 600.0 371.0" fill="none" stroke="none" stroke-linecap="square" stroke-miterlimit="10" width="600" height="371" xmlns:xlink="http://www.w3.org/1999/xlink" xmlns="http://www.w3.org/2000/svg"><path fill="#ffffff" d="M0 0L600.0 0L600.0 371.0L0 371.0L0 0Z" fill-rule="nonzero"/><path fill="#2e5dab" d="M300.0 140.4575C321.0809 140.4575 341.17172 146.71901 355.2776 157.68532L355.2776 180.00032C341.17172 169.03401 321.0809 162.7725 300.0 162.7725Z" fill-rule="nonzero"/><path fill="#4285f4" d="M300.0 88.38917C342.16177 88.38917 382.34344 100.912186 410.55518 122.8448L355.2776 157.68532C341.17172 146.71901 321.0809 140.4575 300.0 140.4575Z" fill-rule="nonzero"/><path fill="#a42f25" d="M448.76666 214.84084C448.76666 225.76848 446.30954 236.62802 441.4855 247.02083L441.4855 224.70583C446.30954 214.31302 448.76666 203.45348 448.76666 192.52583Z" fill-rule="nonzero"/><path fill="#a42f25" d="M355.2776 157.68532C367.5772 167.2474 374.38333 179.65877 374.38333 192.52583L374.38333 214.84084C374.38333 201.97377 367.5772 189.56241 355.2776 180.00032Z" fill-rule="nonzero"/><path fill="#ea4335" d="M410.55518 122.8448C446.11896 150.49309 457.90952 189.3223 441.4855 224.70583L370.74277 208.61583C378.95477 190.92407 373.05948 171.50946 355.2776 157.68532Z" fill-rule="nonzero"/><path fill="#31848b" d="M189.44482 284.52185C164.84555 265.39767 151.23334 240.57495 151.23334 214.84084L151.23334 192.52583C151.23334 218.25995 164.84555 243.08269 189.44482 262.20688Z" fill-rule="nonzero"/><path fill="#31848b" d="M225.61667 192.52583C225.61667 163.76929 258.91922 140.4575 300.0 140.4575L300.0 162.7725C258.91922 162.7725 225.61667 186.08429 225.61667 214.84084Z" fill-rule="nonzero"/><path fill="#46bdc6" d="M189.44482 262.20688C150.12965 231.64212 140.19684 187.74277 164.0949 150.16963C187.99294 112.596504 241.2444 88.38917 300.0 88.38917L300.0 140.4575C270.6222 140.4575 243.99648 152.56117 232.04744 171.34773C220.09842 190.13431 225.06483 212.08398 244.72241 227.36635Z" fill-rule="nonzero"/><path fill="#b34c01" d="M441.4855 247.02083C425.0615 282.40436 382.9181 308.9666 330.93033 316.70187C278.94257 324.4371 225.00859 312.17017 189.44482 284.52185L189.44482 262.20688C225.00859 289.85516 278.94257 302.1221 330.93033 294.38687C382.9181 286.6516 425.0615 260.08936 441.4855 224.70583Z" fill-rule="nonzero"/><path fill="#ff6d01" d="M441.4855 224.70583C425.0615 260.08936 382.9181 286.6516 330.93033 294.38687C278.94257 302.1221 225.00859 289.85516 189.44482 262.20688L244.72241 227.36635C262.5043 241.19049 289.47128 247.32397 315.46518 243.45634C341.45905 239.58873 362.53076 226.3076 370.74277 208.61583Z" fill-rule="nonzero"/><path fill="#1a1a1a" d="M21.925 147.78745L18.596874 139.1937L19.83125 139.1937L22.065624 145.4437Q22.33125 146.1937 22.51875 146.84995Q22.721874 146.14682 22.9875 145.4437L25.3 139.1937L26.45625 139.1937L23.096874 147.78745L21.925 147.78745ZM30.596874 145.78745L31.690624 145.91245Q31.440624 146.86557 30.7375 147.39682Q30.034374 147.92807 28.95625 147.92807Q27.596874 147.92807 26.784374 147.08432Q25.9875 146.24057 25.9875 144.72495Q25.9875 143.16245 26.8 142.30307Q27.6125 141.42807 28.89375 141.42807Q30.14375 141.42807 30.925 142.27182Q31.721874 143.11557 31.721874 144.66245Q31.721874 144.7562 31.721874 144.9437L27.08125 144.9437Q27.14375 145.97495 27.659374 146.52182Q28.175 147.05307 28.95625 147.05307Q29.534374 147.05307 29.940624 146.7562Q30.3625 146.4437 30.596874 145.78745ZM27.14375 144.08432L30.6125 144.08432Q30.55 143.28745 30.221874 142.89682Q29.70625 142.28745 28.909374 142.28745Q28.175 142.28745 27.675 142.77182Q27.190624 143.2562 27.14375 144.08432ZM33.33125 147.78745L33.33125 141.5687L34.284374 141.5687L34.284374 142.5062Q34.64375 141.84995 34.940624 141.64682Q35.253124 141.42807 35.628124 141.42807Q36.159374 141.42807 36.70625 141.7562L36.346874 142.74057Q35.95625 142.5062 35.58125 142.5062Q35.221874 142.5062 34.940624 142.72495Q34.675 142.92807 34.565624 143.30307Q34.378124 143.86557 34.378124 144.52182L34.378124 147.78745L33.33125 147.78745ZM37.346874 140.41245L37.346874 139.1937L38.409374 139.1937L38.409374 140.41245L37.346874 140.41245ZM37.346874 147.78745L37.346874 141.5687L38.409374 141.5687L38.409374 147.78745L37.346874 147.78745ZM40.596874 147.78745L40.596874 142.3812L39.659374 142.3812L39.659374 141.5687L40.596874 141.5687L40.596874 140.89682Q40.596874 140.27182 40.70625 139.97495Q40.8625 139.55307 41.2375 139.30307Q41.628124 139.05307 42.315624 139.05307Q42.76875 139.05307 43.3 139.16245L43.14375 140.0687Q42.815624 140.02182 42.51875 140.02182Q42.034374 140.02182 41.83125 140.22495Q41.64375 140.42807 41.64375 140.99057L41.64375 141.5687L42.8625 141.5687L42.8625 142.3812L41.64375 142.3812L41.64375 147.78745L40.596874 147.78745ZM43.346874 140.41245L43.346874 139.1937L44.409374 139.1937L44.409374 140.41245L43.346874 140.41245ZM43.346874 147.78745L43.346874 141.5687L44.409374 141.5687L44.409374 147.78745L43.346874 147.78745ZM50.409374 145.5062L51.440624 145.64682Q51.26875 146.70932 50.565624 147.3187Q49.8625 147.92807 48.846874 147.92807Q47.565624 147.92807 46.784374 147.09995Q46.01875 146.2562 46.01875 144.6937Q46.01875 143.6937 46.346874 142.9437Q46.690624 142.17807 47.3625 141.80307Q48.05 141.42807 48.8625 141.42807Q49.8625 141.42807 50.503124 141.9437Q51.159374 142.4437 51.346874 143.39682L50.315624 143.55307Q50.175 142.92807 49.8 142.61557Q49.425 142.28745 48.89375 142.28745Q48.096874 142.28745 47.596874 142.86557Q47.096874 143.42807 47.096874 144.66245Q47.096874 145.92807 47.58125 146.49057Q48.065624 147.05307 48.83125 147.05307Q49.45625 147.05307 49.8625 146.67807Q50.284374 146.30307 50.409374 145.5062ZM56.409374 147.02182Q55.815624 147.52182 55.26875 147.72495Q54.7375 147.92807 54.1125 147.92807Q53.08125 147.92807 52.534374 147.42807Q51.9875 146.92807 51.9875 146.14682Q51.9875 145.6937 52.190624 145.3187Q52.39375 144.92807 52.7375 144.70932Q53.08125 144.47495 53.503124 144.36557Q53.8 144.27182 54.440624 144.1937Q55.70625 144.05307 56.315624 143.83432Q56.315624 143.61557 56.315624 143.5687Q56.315624 142.91245 56.01875 142.64682Q55.6125 142.30307 54.815624 142.30307Q54.08125 142.30307 53.721874 142.5687Q53.3625 142.8187 53.190624 143.47495L52.159374 143.33432Q52.3 142.67807 52.628124 142.27182Q52.95625 141.86557 53.565624 141.64682Q54.175 141.42807 54.971874 141.42807Q55.76875 141.42807 56.26875 141.61557Q56.76875 141.80307 57.003124 142.08432Q57.2375 142.36557 57.33125 142.80307Q57.378124 143.0687 57.378124 143.77182L57.378124 145.17807Q57.378124 146.64682 57.440624 147.03745Q57.51875 147.42807 57.721874 147.78745L56.6125 147.78745Q56.45625 147.45932 56.409374 147.02182ZM56.315624 144.66245Q55.7375 144.89682 54.596874 145.0687Q53.940624 145.16245 53.675 145.28745Q53.409374 145.39682 53.253124 145.61557Q53.1125 145.83432 53.1125 146.11557Q53.1125 146.53745 53.425 146.8187Q53.753124 147.09995 54.3625 147.09995Q54.971874 147.09995 55.440624 146.83432Q55.925 146.5687 56.14375 146.09995Q56.315624 145.74057 56.315624 145.05307L56.315624 144.66245ZM61.64375 146.84995L61.8 147.77182Q61.346874 147.86557 61.003124 147.86557Q60.425 147.86557 60.1125 147.6937Q59.8 147.5062 59.659374 147.20932Q59.534374 146.91245 59.534374 145.95932L59.534374 142.3812L58.76875 142.3812L58.76875 141.5687L59.534374 141.5687L59.534374 140.02182L60.58125 139.39682L60.58125 141.5687L61.64375 141.5687L61.64375 142.3812L60.58125 142.3812L60.58125 146.02182Q60.58125 146.47495 60.628124 146.59995Q60.690624 146.72495 60.815624 146.80307Q60.940624 146.8812 61.175 146.8812Q61.3625 146.8812 61.64375 146.84995ZM61.95625 144.67807Q61.95625 142.9437 62.909374 142.11557Q63.70625 141.42807 64.8625 141.42807Q66.14375 141.42807 66.95625 142.27182Q67.78438 143.09995 67.78438 144.58432Q67.78438 145.78745 67.425 146.47495Q67.06563 147.16245 66.3625 147.55307Q65.675 147.92807 64.8625 147.92807Q63.565624 147.92807 62.753124 147.09995Q61.95625 146.2562 61.95625 144.67807ZM63.034374 144.67807Q63.034374 145.86557 63.55 146.45932Q64.08125 147.05307 64.8625 147.05307Q65.65938 147.05307 66.175 146.45932Q66.69063 145.86557 66.69063 144.64682Q66.69063 143.49057 66.15938 142.89682Q65.64375 142.30307 64.8625 142.30307Q64.08125 142.30307 63.55 142.89682Q63.034374 143.47495 63.034374 144.67807ZM69.33125 147.78745L69.33125 141.5687L70.28438 141.5687L70.28438 142.5062Q70.64375 141.84995 70.94063 141.64682Q71.25313 141.42807 71.62813 141.42807Q72.15938 141.42807 72.70625 141.7562L72.34688 142.74057Q71.95625 142.5062 71.58125 142.5062Q71.22188 142.5062 70.94063 142.72495Q70.675 142.92807 70.56563 143.30307Q70.37813 143.86557 70.37813 144.52182L70.37813 147.78745L69.33125 147.78745ZM77.59688 145.78745L78.69063 145.91245Q78.44063 146.86557 77.7375 147.39682Q77.03438 147.92807 75.95625 147.92807Q74.59688 147.92807 73.78438 147.08432Q72.9875 146.24057 72.9875 144.72495Q72.9875 143.16245 73.8 142.30307Q74.6125 141.42807 75.89375 141.42807Q77.14375 141.42807 77.925 142.27182Q78.72188 143.11557 78.72188 144.66245Q78.72188 144.7562 78.72188 144.9437L74.08125 144.9437Q74.14375 145.97495 74.65938 146.52182Q75.175 147.05307 75.95625 147.05307Q76.53438 147.05307 76.94063 146.7562Q77.3625 146.4437 77.59688 145.78745ZM74.14375 144.08432L77.6125 144.08432Q77.55 143.28745 77.22188 142.89682Q76.70625 142.28745 75.90938 142.28745Q75.175 142.28745 74.675 142.77182Q74.19063 143.2562 74.14375 144.08432Z" fill-rule="nonzero"/><path fill="#9e9e9e" d="M19.05 162.52182L20.1125 162.3812Q20.284374 163.27182 20.721874 163.67807Q21.159374 164.0687 21.784374 164.0687Q22.534374 164.0687 23.05 163.55307Q23.565624 163.03745 23.565624 162.27182Q23.565624 161.55307 23.08125 161.08432Q22.6125 160.59995 21.878124 160.59995Q21.58125 160.59995 21.128124 160.72495L21.253124 159.78745Q21.3625 159.80307 21.425 159.80307Q22.096874 159.80307 22.628124 159.45932Q23.175 159.09995 23.175 158.36557Q23.175 157.78745 22.784374 157.41245Q22.39375 157.02182 21.76875 157.02182Q21.159374 157.02182 20.7375 157.41245Q20.33125 157.80307 20.221874 158.5687L19.159374 158.3812Q19.346874 157.33432 20.034374 156.7562Q20.721874 156.16245 21.7375 156.16245Q22.440624 156.16245 23.034374 156.47495Q23.628124 156.77182 23.940624 157.28745Q24.253124 157.80307 24.253124 158.39682Q24.253124 158.9437 23.95625 159.41245Q23.659374 159.86557 23.08125 160.1312Q23.83125 160.30307 24.253124 160.86557Q24.675 161.41245 24.675 162.2562Q24.675 163.3812 23.846874 164.16245Q23.034374 164.9437 21.784374 164.9437Q20.659374 164.9437 19.909374 164.27182Q19.159374 163.58432 19.05 162.52182ZM31.51875 158.30307L30.471874 158.3812Q30.33125 157.7562 30.08125 157.47495Q29.64375 157.02182 29.01875 157.02182Q28.51875 157.02182 28.128124 157.30307Q27.64375 157.67807 27.346874 158.3812Q27.065624 159.0687 27.05 160.34995Q27.425 159.77182 27.971874 159.49057Q28.534374 159.20932 29.14375 159.20932Q30.190624 159.20932 30.925 159.99057Q31.675 160.77182 31.675 161.99057Q31.675 162.80307 31.315624 163.5062Q30.971874 164.1937 30.3625 164.5687Q29.753124 164.92807 28.9875 164.92807Q27.659374 164.92807 26.83125 163.95932Q26.003124 162.99057 26.003124 160.77182Q26.003124 158.27182 26.925 157.14682Q27.721874 156.16245 29.08125 156.16245Q30.096874 156.16245 30.7375 156.74057Q31.39375 157.30307 31.51875 158.30307ZM27.221874 162.0062Q27.221874 162.55307 27.440624 163.05307Q27.675 163.53745 28.08125 163.80307Q28.503124 164.0687 28.971874 164.0687Q29.628124 164.0687 30.1125 163.53745Q30.596874 162.99057 30.596874 162.0687Q30.596874 161.17807 30.1125 160.66245Q29.64375 160.14682 28.925 160.14682Q28.20625 160.14682 27.70625 160.66245Q27.221874 161.17807 27.221874 162.0062ZM33.6125 164.78745L33.6125 163.58432L34.815624 163.58432L34.815624 164.78745Q34.815624 165.4437 34.58125 165.84995Q34.346874 166.27182 33.846874 166.49057L33.55 166.03745Q33.878124 165.89682 34.034374 165.59995Q34.190624 165.3187 34.221874 164.78745L33.6125 164.78745ZM36.1125 157.3187L36.1125 156.30307L41.675 156.30307L41.675 157.1312Q40.8625 158.0062 40.05 159.45932Q39.253124 160.89682 38.815624 162.42807Q38.4875 163.5062 38.409374 164.78745L37.315624 164.78745Q37.33125 163.77182 37.70625 162.33432Q38.096874 160.89682 38.8 159.5687Q39.51875 158.24057 40.33125 157.3187L36.1125 157.3187ZM43.253124 158.2562Q43.253124 157.33432 43.70625 156.6937Q44.175 156.05307 45.05 156.05307Q45.8625 156.05307 46.39375 156.6312Q46.925 157.20932 46.925 158.3187Q46.925 159.41245 46.378124 160.0062Q45.846874 160.58432 45.065624 160.58432Q44.284374 160.58432 43.76875 160.0062Q43.253124 159.42807 43.253124 158.2562ZM45.08125 156.77182Q44.690624 156.77182 44.425 157.11557Q44.175 157.45932 44.175 158.36557Q44.175 159.1937 44.425 159.53745Q44.690624 159.86557 45.08125 159.86557Q45.4875 159.86557 45.7375 159.52182Q46.003124 159.17807 46.003124 158.28745Q46.003124 157.4437 45.7375 157.11557Q45.471874 156.77182 45.08125 156.77182ZM45.08125 165.09995L49.784374 156.05307L50.64375 156.05307L45.95625 165.09995L45.08125 165.09995ZM48.8 162.77182Q48.8 161.84995 49.253124 161.20932Q49.721874 160.5687 50.6125 160.5687Q51.425 160.5687 51.95625 161.14682Q52.4875 161.70932 52.4875 162.83432Q52.4875 163.92807 51.940624 164.52182Q51.409374 165.09995 50.6125 165.09995Q49.846874 165.09995 49.315624 164.52182Q48.8 163.9437 48.8 162.77182ZM50.64375 161.28745Q50.2375 161.28745 49.971874 161.6312Q49.721874 161.97495 49.721874 162.8812Q49.721874 163.6937 49.9875 164.03745Q50.253124 164.3812 50.64375 164.3812Q51.034374 164.3812 51.3 164.03745Q51.565624 163.6937 51.565624 162.78745Q51.565624 161.95932 51.3 161.6312Q51.034374 161.28745 50.64375 161.28745Z" fill-rule="nonzero"/><path stroke="#757575" stroke-width="1.0" stroke-linecap="butt" d="M18.55 152.28745L145.23334 152.28745L170.89014 152.28745" fill-rule="nonzero"/><path fill="#9e9e9e" d="M172.89014 152.28745C172.89014 151.18288 171.9947 150.28745 170.89014 150.28745C169.78557 150.28745 168.89014 151.18288 168.89014 152.28745C168.89014 153.39201 169.78557 154.28745 170.89014 154.28745C171.9947 154.28745 172.89014 153.39201 172.89014 152.28745" fill-rule="nonzero"/><path fill="#1a1a1a" d="M504.3875 97.64893L504.3875 89.05518L508.2 89.05518Q509.35626 89.05518 509.95 89.28956Q510.54376 89.52393 510.90314 90.11768Q511.2625 90.69581 511.2625 91.39893Q511.2625 92.32081 510.66876 92.94581Q510.075 93.57081 508.84064 93.74268Q509.29376 93.96143 509.52814 94.16456Q510.02814 94.61768 510.46564 95.30518L511.96564 97.64893L510.52814 97.64893L509.40314 95.86768Q508.90314 95.08643 508.575 94.68018Q508.2625 94.27393 507.9969 94.11768Q507.7469 93.94581 507.48126 93.86768Q507.29376 93.83643 506.85626 93.83643L505.52814 93.83643L505.52814 97.64893L504.3875 97.64893ZM505.52814 92.85206L507.98126 92.85206Q508.7469 92.85206 509.1844 92.69581Q509.6375 92.52393 509.85626 92.18018Q510.09064 91.82081 510.09064 91.39893Q510.09064 90.78956 509.6375 90.39893Q509.2 90.00831 508.2469 90.00831L505.52814 90.00831L505.52814 92.85206ZM517.4969 95.64893L518.59064 95.77393Q518.34064 96.72706 517.6375 97.25831Q516.9344 97.78956 515.85626 97.78956Q514.4969 97.78956 513.6844 96.94581Q512.8875 96.10206 512.8875 94.58643Q512.8875 93.02393 513.7 92.16456Q514.5125 91.28956 515.79376 91.28956Q517.04376 91.28956 517.825 92.13331Q518.6219 92.97706 518.6219 94.52393Q518.6219 94.61768 518.6219 94.80518L513.98126 94.80518Q514.04376 95.83643 514.5594 96.38331Q515.075 96.91456 515.85626 96.91456Q516.4344 96.91456 516.84064 96.61768Q517.2625 96.30518 517.4969 95.64893ZM514.04376 93.94581L517.5125 93.94581Q517.45 93.14893 517.1219 92.75831Q516.60626 92.14893 515.8094 92.14893Q515.075 92.14893 514.575 92.63331Q514.09064 93.11768 514.04376 93.94581ZM519.825 95.78956L520.85626 95.63331Q520.95 96.25831 521.34064 96.58643Q521.7469 96.91456 522.48126 96.91456Q523.2 96.91456 523.54376 96.63331Q523.90314 96.33643 523.90314 95.93018Q523.90314 95.57081 523.59064 95.36768Q523.3719 95.22706 522.5125 95.00831Q521.35626 94.71143 520.90314 94.50831Q520.46564 94.28956 520.23126 93.91456Q519.9969 93.53956 519.9969 93.07081Q519.9969 92.66456 520.1844 92.30518Q520.3719 91.94581 520.7 91.71143Q520.95 91.53956 521.3719 91.41456Q521.79376 91.28956 522.29376 91.28956Q523.0125 91.28956 523.5594 91.50831Q524.1219 91.71143 524.3875 92.07081Q524.65314 92.43018 524.7469 93.02393L523.71564 93.16456Q523.65314 92.69581 523.3094 92.43018Q522.98126 92.14893 522.35626 92.14893Q521.6375 92.14893 521.325 92.39893Q521.0125 92.63331 521.0125 92.96143Q521.0125 93.16456 521.1375 93.32081Q521.27814 93.49268 521.54376 93.60206Q521.7 93.66456 522.48126 93.86768Q523.60626 94.18018 524.04376 94.36768Q524.48126 94.55518 524.73126 94.91456Q524.98126 95.27393 524.98126 95.82081Q524.98126 96.35206 524.66876 96.82081Q524.3719 97.27393 523.79376 97.53956Q523.21564 97.78956 522.48126 97.78956Q521.2625 97.78956 520.6219 97.28956Q519.9969 96.77393 519.825 95.78956ZM527.2469 100.03956L527.2469 91.43018L528.2 91.43018L528.2 92.22706Q528.54376 91.75831 528.96564 91.52393Q529.40314 91.28956 530.0125 91.28956Q530.8094 91.28956 531.41876 91.69581Q532.02814 92.10206 532.325 92.85206Q532.6375 93.60206 532.6375 94.49268Q532.6375 95.44581 532.29376 96.21143Q531.96564 96.97706 531.3094 97.38331Q530.65314 97.78956 529.9344 97.78956Q529.40314 97.78956 528.98126 97.57081Q528.5594 97.33643 528.29376 97.00831L528.29376 100.03956L527.2469 100.03956ZM528.2 94.57081Q528.2 95.77393 528.6844 96.35206Q529.16876 96.91456 529.85626 96.91456Q530.5594 96.91456 531.0594 96.32081Q531.5594 95.72706 531.5594 94.47706Q531.5594 93.28956 531.075 92.71143Q530.59064 92.11768 529.90314 92.11768Q529.23126 92.11768 528.71564 92.74268Q528.2 93.36768 528.2 94.57081ZM533.85626 94.53956Q533.85626 92.80518 534.8094 91.97706Q535.60626 91.28956 536.7625 91.28956Q538.04376 91.28956 538.85626 92.13331Q539.6844 92.96143 539.6844 94.44581Q539.6844 95.64893 539.325 96.33643Q538.96564 97.02393 538.2625 97.41456Q537.575 97.78956 536.7625 97.78956Q535.46564 97.78956 534.65314 96.96143Q533.85626 96.11768 533.85626 94.53956ZM534.9344 94.53956Q534.9344 95.72706 535.45 96.32081Q535.98126 96.91456 536.7625 96.91456Q537.5594 96.91456 538.075 96.32081Q538.59064 95.72706 538.59064 94.50831Q538.59064 93.35206 538.0594 92.75831Q537.54376 92.16456 536.7625 92.16456Q535.98126 92.16456 535.45 92.75831Q534.9344 93.33643 534.9344 94.53956ZM541.2469 97.64893L541.2469 91.43018L542.1844 91.43018L542.1844 92.30518Q542.8719 91.28956 544.16876 91.28956Q544.73126 91.28956 545.2 91.49268Q545.6844 91.69581 545.91876 92.02393Q546.15314 92.35206 546.2469 92.78956Q546.29376 93.08643 546.29376 93.82081L546.29376 97.64893L545.2469 97.64893L545.2469 93.86768Q545.2469 93.21143 545.1219 92.89893Q544.9969 92.58643 544.6844 92.39893Q544.3719 92.19581 543.95 92.19581Q543.27814 92.19581 542.77814 92.63331Q542.29376 93.05518 542.29376 94.24268L542.29376 97.64893L541.2469 97.64893ZM547.825 95.78956L548.85626 95.63331Q548.95 96.25831 549.34064 96.58643Q549.7469 96.91456 550.48126 96.91456Q551.2 96.91456 551.54376 96.63331Q551.90314 96.33643 551.90314 95.93018Q551.90314 95.57081 551.59064 95.36768Q551.3719 95.22706 550.5125 95.00831Q549.35626 94.71143 548.90314 94.50831Q548.46564 94.28956 548.23126 93.91456Q547.9969 93.53956 547.9969 93.07081Q547.9969 92.66456 548.1844 92.30518Q548.3719 91.94581 548.7 91.71143Q548.95 91.53956 549.3719 91.41456Q549.79376 91.28956 550.29376 91.28956Q551.0125 91.28956 551.5594 91.50831Q552.1219 91.71143 552.3875 92.07081Q552.65314 92.43018 552.7469 93.02393L551.71564 93.16456Q551.65314 92.69581 551.3094 92.43018Q550.98126 92.14893 550.35626 92.14893Q549.6375 92.14893 549.325 92.39893Q549.0125 92.63331 549.0125 92.96143Q549.0125 93.16456 549.1375 93.32081Q549.27814 93.49268 549.54376 93.60206Q549.7 93.66456 550.48126 93.86768Q551.60626 94.18018 552.04376 94.36768Q552.48126 94.55518 552.73126 94.91456Q552.98126 95.27393 552.98126 95.82081Q552.98126 96.35206 552.66876 96.82081Q552.3719 97.27393 551.79376 97.53956Q551.21564 97.78956 550.48126 97.78956Q549.2625 97.78956 548.6219 97.28956Q547.9969 96.77393 547.825 95.78956ZM559.3094 96.88331Q558.71564 97.38331 558.16876 97.58643Q557.6375 97.78956 557.0125 97.78956Q555.98126 97.78956 555.4344 97.28956Q554.8875 96.78956 554.8875 96.00831Q554.8875 95.55518 555.09064 95.18018Q555.29376 94.78956 555.6375 94.57081Q555.98126 94.33643 556.40314 94.22706Q556.7 94.13331 557.34064 94.05518Q558.60626 93.91456 559.21564 93.69581Q559.21564 93.47706 559.21564 93.43018Q559.21564 92.77393 558.91876 92.50831Q558.5125 92.16456 557.71564 92.16456Q556.98126 92.16456 556.6219 92.43018Q556.2625 92.68018 556.09064 93.33643L555.0594 93.19581Q555.2 92.53956 555.52814 92.13331Q555.85626 91.72706 556.46564 91.50831Q557.075 91.28956 557.8719 91.28956Q558.66876 91.28956 559.16876 91.47706Q559.66876 91.66456 559.90314 91.94581Q560.1375 92.22706 560.23126 92.66456Q560.27814 92.93018 560.27814 93.63331L560.27814 95.03956Q560.27814 96.50831 560.34064 96.89893Q560.41876 97.28956 560.6219 97.64893L559.5125 97.64893Q559.35626 97.32081 559.3094 96.88331ZM559.21564 94.52393Q558.6375 94.75831 557.4969 94.93018Q556.84064 95.02393 556.575 95.14893Q556.3094 95.25831 556.15314 95.47706Q556.0125 95.69581 556.0125 95.97706Q556.0125 96.39893 556.325 96.68018Q556.65314 96.96143 557.2625 96.96143Q557.8719 96.96143 558.34064 96.69581Q558.825 96.43018 559.04376 95.96143Q559.21564 95.60206 559.21564 94.91456L559.21564 94.52393ZM563.21564 97.64893L562.23126 97.64893L562.23126 89.05518L563.29376 89.05518L563.29376 92.11768Q563.96564 91.28956 564.9969 91.28956Q565.575 91.28956 566.075 91.52393Q566.59064 91.74268 566.91876 92.16456Q567.2625 92.58643 567.45 93.18018Q567.6375 93.77393 567.6375 94.44581Q567.6375 96.03956 566.84064 96.91456Q566.04376 97.78956 564.95 97.78956Q563.84064 97.78956 563.21564 96.86768L563.21564 97.64893ZM563.2 94.49268Q563.2 95.60206 563.5125 96.10206Q564.0125 96.91456 564.85626 96.91456Q565.54376 96.91456 566.04376 96.32081Q566.5594 95.72706 566.5594 94.52393Q566.5594 93.30518 566.075 92.72706Q565.59064 92.14893 564.90314 92.14893Q564.21564 92.14893 563.7 92.75831Q563.2 93.35206 563.2 94.49268ZM569.2469 90.27393L569.2469 89.05518L570.3094 89.05518L570.3094 90.27393L569.2469 90.27393ZM569.2469 97.64893L569.2469 91.43018L570.3094 91.43018L570.3094 97.64893L569.2469 97.64893ZM572.21564 97.64893L572.21564 89.05518L573.27814 89.05518L573.27814 97.64893L572.21564 97.64893ZM579.4969 95.64893L580.59064 95.77393Q580.34064 96.72706 579.6375 97.25831Q578.9344 97.78956 577.85626 97.78956Q576.4969 97.78956 575.6844 96.94581Q574.8875 96.10206 574.8875 94.58643Q574.8875 93.02393 575.7 92.16456Q576.5125 91.28956 577.79376 91.28956Q579.04376 91.28956 579.825 92.13331Q580.6219 92.97706 580.6219 94.52393Q580.6219 94.61768 580.6219 94.80518L575.98126 94.80518Q576.04376 95.83643 576.5594 96.38331Q577.075 96.91456 577.85626 96.91456Q578.4344 96.91456 578.84064 96.61768Q579.2625 96.30518 579.4969 95.64893ZM576.04376 93.94581L579.5125 93.94581Q579.45 93.14893 579.1219 92.75831Q578.60626 92.14893 577.8094 92.14893Q577.075 92.14893 576.575 92.63331Q576.09064 93.11768 576.04376 93.94581Z" fill-rule="nonzero"/><path fill="#9e9e9e" d="M550.91876 114.64893L549.8719 114.64893L549.8719 107.93018Q549.48126 108.28956 548.85626 108.66456Q548.2469 109.02393 547.7625 109.19581L547.7625 108.18018Q548.6375 107.75831 549.29376 107.18018Q549.96564 106.58643 550.2469 106.02393L550.91876 106.02393L550.91876 114.64893ZM553.95 112.38331L555.0125 112.24268Q555.1844 113.13331 555.6219 113.53956Q556.0594 113.93018 556.6844 113.93018Q557.4344 113.93018 557.95 113.41456Q558.46564 112.89893 558.46564 112.13331Q558.46564 111.41456 557.98126 110.94581Q557.5125 110.46143 556.77814 110.46143Q556.48126 110.46143 556.02814 110.58643L556.15314 109.64893Q556.2625 109.66456 556.325 109.66456Q556.9969 109.66456 557.52814 109.32081Q558.075 108.96143 558.075 108.22706Q558.075 107.64893 557.6844 107.27393Q557.29376 106.88331 556.66876 106.88331Q556.0594 106.88331 555.6375 107.27393Q555.23126 107.66456 555.1219 108.43018L554.0594 108.24268Q554.2469 107.19581 554.9344 106.61768Q555.6219 106.02393 556.6375 106.02393Q557.34064 106.02393 557.9344 106.33643Q558.52814 106.63331 558.84064 107.14893Q559.15314 107.66456 559.15314 108.25831Q559.15314 108.80518 558.85626 109.27393Q558.5594 109.72706 557.98126 109.99268Q558.73126 110.16456 559.15314 110.72706Q559.575 111.27393 559.575 112.11768Q559.575 113.24268 558.7469 114.02393Q557.9344 114.80518 556.6844 114.80518Q555.5594 114.80518 554.8094 114.13331Q554.0594 113.44581 553.95 112.38331ZM561.5125 114.64893L561.5125 113.44581L562.71564 113.44581L562.71564 114.64893Q562.71564 115.30518 562.48126 115.71143Q562.2469 116.13331 561.7469 116.35206L561.45 115.89893Q561.77814 115.75831 561.9344 115.46143Q562.09064 115.18018 562.1219 114.64893L561.5125 114.64893ZM563.95 112.38331L565.0125 112.24268Q565.1844 113.13331 565.6219 113.53956Q566.0594 113.93018 566.6844 113.93018Q567.4344 113.93018 567.95 113.41456Q568.46564 112.89893 568.46564 112.13331Q568.46564 111.41456 567.98126 110.94581Q567.5125 110.46143 566.77814 110.46143Q566.48126 110.46143 566.02814 110.58643L566.15314 109.64893Q566.2625 109.66456 566.325 109.66456Q566.9969 109.66456 567.52814 109.32081Q568.075 108.96143 568.075 108.22706Q568.075 107.64893 567.6844 107.27393Q567.29376 106.88331 566.66876 106.88331Q566.0594 106.88331 565.6375 107.27393Q565.23126 107.66456 565.1219 108.43018L564.0594 108.24268Q564.2469 107.19581 564.9344 106.61768Q565.6219 106.02393 566.6375 106.02393Q567.34064 106.02393 567.9344 106.33643Q568.52814 106.63331 568.84064 107.14893Q569.15314 107.66456 569.15314 108.25831Q569.15314 108.80518 568.85626 109.27393Q568.5594 109.72706 567.98126 109.99268Q568.73126 110.16456 569.15314 110.72706Q569.575 111.27393 569.575 112.11768Q569.575 113.24268 568.7469 114.02393Q567.9344 114.80518 566.6844 114.80518Q565.5594 114.80518 564.8094 114.13331Q564.0594 113.44581 563.95 112.38331ZM571.15314 108.11768Q571.15314 107.19581 571.60626 106.55518Q572.075 105.91456 572.95 105.91456Q573.7625 105.91456 574.29376 106.49268Q574.825 107.07081 574.825 108.18018Q574.825 109.27393 574.27814 109.86768Q573.7469 110.44581 572.96564 110.44581Q572.1844 110.44581 571.66876 109.86768Q571.15314 109.28956 571.15314 108.11768ZM572.98126 106.63331Q572.59064 106.63331 572.325 106.97706Q572.075 107.32081 572.075 108.22706Q572.075 109.05518 572.325 109.39893Q572.59064 109.72706 572.98126 109.72706Q573.3875 109.72706 573.6375 109.38331Q573.90314 109.03956 573.90314 108.14893Q573.90314 107.30518 573.6375 106.97706Q573.3719 106.63331 572.98126 106.63331ZM572.98126 114.96143L577.6844 105.91456L578.54376 105.91456L573.85626 114.96143L572.98126 114.96143ZM576.7 112.63331Q576.7 111.71143 577.15314 111.07081Q577.6219 110.43018 578.5125 110.43018Q579.325 110.43018 579.85626 111.00831Q580.3875 111.57081 580.3875 112.69581Q580.3875 113.78956 579.84064 114.38331Q579.3094 114.96143 578.5125 114.96143Q577.7469 114.96143 577.21564 114.38331Q576.7 113.80518 576.7 112.63331ZM578.54376 111.14893Q578.1375 111.14893 577.8719 111.49268Q577.6219 111.83643 577.6219 112.74268Q577.6219 113.55518 577.8875 113.89893Q578.15314 114.24268 578.54376 114.24268Q578.9344 114.24268 579.2 113.89893Q579.46564 113.55518 579.46564 112.64893Q579.46564 111.82081 579.2 111.49268Q578.9344 111.14893 578.54376 111.14893Z" fill-rule="nonzero"/><path stroke="#757575" stroke-width="1.0" stroke-linecap="butt" d="M581.45 102.14893L454.76666 102.14893L357.4834 102.14893" fill-rule="nonzero"/><path fill="#9e9e9e" d="M359.4834 102.14893C359.4834 101.044365 358.58798 100.14893 357.4834 100.14893C356.37885 100.14893 355.4834 101.044365 355.4834 102.14893C355.4834 103.2535 356.37885 104.14893 357.4834 104.14893C358.58798 104.14893 359.4834 103.2535 359.4834 102.14893" fill-rule="nonzero"/><path fill="#1a1a1a" d="M497.4344 167.45717L500.73126 158.86342L501.95 158.86342L505.46564 167.45717L504.1844 167.45717L503.16876 164.8478L499.59064 164.8478L498.6375 167.45717L497.4344 167.45717ZM499.91876 163.92592L502.825 163.92592L501.9344 161.55092Q501.5125 160.4728 501.325 159.76967Q501.15314 160.5978 500.85626 161.4103L499.91876 163.92592ZM505.2469 167.45717L505.2469 161.23842L506.1844 161.23842L506.1844 162.11342Q506.48126 161.64467 506.96564 161.37904Q507.45 161.0978 508.075 161.0978Q508.7625 161.0978 509.2 161.37904Q509.65314 161.6603 509.825 162.17592Q510.575 161.0978 511.7469 161.0978Q512.6844 161.0978 513.16876 161.61342Q513.66876 162.11342 513.66876 163.19154L513.66876 167.45717L512.6219 167.45717L512.6219 163.5353Q512.6219 162.9103 512.5125 162.62904Q512.41876 162.3478 512.15314 162.17592Q511.8875 162.00404 511.5125 162.00404Q510.85626 162.00404 510.41876 162.44154Q509.9969 162.87904 509.9969 163.8478L509.9969 167.45717L508.9344 167.45717L508.9344 163.4103Q508.9344 162.70717 508.66876 162.36342Q508.41876 162.00404 507.84064 162.00404Q507.3875 162.00404 507.0125 162.23842Q506.6375 162.4728 506.46564 162.92592Q506.29376 163.37904 506.29376 164.2228L506.29376 167.45717L505.2469 167.45717ZM516.2469 167.45717L516.2469 161.23842L517.1844 161.23842L517.1844 162.11342Q517.48126 161.64467 517.96564 161.37904Q518.45 161.0978 519.075 161.0978Q519.7625 161.0978 520.2 161.37904Q520.65314 161.6603 520.825 162.17592Q521.575 161.0978 522.7469 161.0978Q523.6844 161.0978 524.16876 161.61342Q524.66876 162.11342 524.66876 163.19154L524.66876 167.45717L523.6219 167.45717L523.6219 163.5353Q523.6219 162.9103 523.5125 162.62904Q523.41876 162.3478 523.15314 162.17592Q522.8875 162.00404 522.5125 162.00404Q521.85626 162.00404 521.41876 162.44154Q520.9969 162.87904 520.9969 163.8478L520.9969 167.45717L519.9344 167.45717L519.9344 163.4103Q519.9344 162.70717 519.66876 162.36342Q519.41876 162.00404 518.84064 162.00404Q518.3875 162.00404 518.0125 162.23842Q517.6375 162.4728 517.46564 162.92592Q517.29376 163.37904 517.29376 164.2228L517.29376 167.45717L516.2469 167.45717ZM527.2469 160.08217L527.2469 158.86342L528.3094 158.86342L528.3094 160.08217L527.2469 160.08217ZM527.2469 167.45717L527.2469 161.23842L528.3094 161.23842L528.3094 167.45717L527.2469 167.45717ZM530.2469 167.45717L530.2469 161.23842L531.1844 161.23842L531.1844 162.11342Q531.8719 161.0978 533.16876 161.0978Q533.73126 161.0978 534.2 161.30092Q534.6844 161.50404 534.91876 161.83217Q535.15314 162.1603 535.2469 162.5978Q535.29376 162.89467 535.29376 163.62904L535.29376 167.45717L534.2469 167.45717L534.2469 163.67592Q534.2469 163.01967 534.1219 162.70717Q533.9969 162.39467 533.6844 162.20717Q533.3719 162.00404 532.95 162.00404Q532.27814 162.00404 531.77814 162.44154Q531.29376 162.86342 531.29376 164.05092L531.29376 167.45717L530.2469 167.45717ZM537.2469 160.08217L537.2469 158.86342L538.3094 158.86342L538.3094 160.08217L537.2469 160.08217ZM537.2469 167.45717L537.2469 161.23842L538.3094 161.23842L538.3094 167.45717L537.2469 167.45717ZM539.825 165.5978L540.85626 165.44154Q540.95 166.06654 541.34064 166.39467Q541.7469 166.7228 542.48126 166.7228Q543.2 166.7228 543.54376 166.44154Q543.90314 166.14467 543.90314 165.73842Q543.90314 165.37904 543.59064 165.17592Q543.3719 165.0353 542.5125 164.81654Q541.35626 164.51967 540.90314 164.31654Q540.46564 164.0978 540.23126 163.7228Q539.9969 163.3478 539.9969 162.87904Q539.9969 162.4728 540.1844 162.11342Q540.3719 161.75404 540.7 161.51967Q540.95 161.3478 541.3719 161.2228Q541.79376 161.0978 542.29376 161.0978Q543.0125 161.0978 543.5594 161.31654Q544.1219 161.51967 544.3875 161.87904Q544.65314 162.23842 544.7469 162.83217L543.71564 162.9728Q543.65314 162.50404 543.3094 162.23842Q542.98126 161.95717 542.35626 161.95717Q541.6375 161.95717 541.325 162.20717Q541.0125 162.44154 541.0125 162.76967Q541.0125 162.9728 541.1375 163.12904Q541.27814 163.30092 541.54376 163.4103Q541.7 163.4728 542.48126 163.67592Q543.60626 163.98842 544.04376 164.17592Q544.48126 164.36342 544.73126 164.7228Q544.98126 165.08217 544.98126 165.62904Q544.98126 166.1603 544.66876 166.62904Q544.3719 167.08217 543.79376 167.3478Q543.21564 167.5978 542.48126 167.5978Q541.2625 167.5978 540.6219 167.0978Q539.9969 166.58217 539.825 165.5978ZM549.54376 166.51967L549.7 167.44154Q549.2469 167.5353 548.90314 167.5353Q548.325 167.5353 548.0125 167.36342Q547.7 167.17592 547.5594 166.87904Q547.4344 166.58217 547.4344 165.62904L547.4344 162.05092L546.66876 162.05092L546.66876 161.23842L547.4344 161.23842L547.4344 159.69154L548.48126 159.06654L548.48126 161.23842L549.54376 161.23842L549.54376 162.05092L548.48126 162.05092L548.48126 165.69154Q548.48126 166.14467 548.52814 166.26967Q548.59064 166.39467 548.71564 166.4728Q548.84064 166.55092 549.075 166.55092Q549.2625 166.55092 549.54376 166.51967ZM550.23126 167.45717L550.23126 161.23842L551.1844 161.23842L551.1844 162.17592Q551.54376 161.51967 551.84064 161.31654Q552.15314 161.0978 552.52814 161.0978Q553.0594 161.0978 553.60626 161.42592L553.2469 162.4103Q552.85626 162.17592 552.48126 162.17592Q552.1219 162.17592 551.84064 162.39467Q551.575 162.5978 551.46564 162.9728Q551.27814 163.5353 551.27814 164.19154L551.27814 167.45717L550.23126 167.45717ZM558.3094 166.69154Q557.71564 167.19154 557.16876 167.39467Q556.6375 167.5978 556.0125 167.5978Q554.98126 167.5978 554.4344 167.0978Q553.8875 166.5978 553.8875 165.81654Q553.8875 165.36342 554.09064 164.98842Q554.29376 164.5978 554.6375 164.37904Q554.98126 164.14467 555.40314 164.0353Q555.7 163.94154 556.34064 163.86342Q557.60626 163.7228 558.21564 163.50404Q558.21564 163.2853 558.21564 163.23842Q558.21564 162.58217 557.91876 162.31654Q557.5125 161.9728 556.71564 161.9728Q555.98126 161.9728 555.6219 162.23842Q555.2625 162.48842 555.09064 163.14467L554.0594 163.00404Q554.2 162.3478 554.52814 161.94154Q554.85626 161.5353 555.46564 161.31654Q556.075 161.0978 556.8719 161.0978Q557.66876 161.0978 558.16876 161.2853Q558.66876 161.4728 558.90314 161.75404Q559.1375 162.0353 559.23126 162.4728Q559.27814 162.73842 559.27814 163.44154L559.27814 164.8478Q559.27814 166.31654 559.34064 166.70717Q559.41876 167.0978 559.6219 167.45717L558.5125 167.45717Q558.35626 167.12904 558.3094 166.69154ZM558.21564 164.33217Q557.6375 164.56654 556.4969 164.73842Q555.84064 164.83217 555.575 164.95717Q555.3094 165.06654 555.15314 165.2853Q555.0125 165.50404 555.0125 165.7853Q555.0125 166.20717 555.325 166.48842Q555.65314 166.76967 556.2625 166.76967Q556.8719 166.76967 557.34064 166.50404Q557.825 166.23842 558.04376 165.76967Q558.21564 165.4103 558.21564 164.7228L558.21564 164.33217ZM563.54376 166.51967L563.7 167.44154Q563.2469 167.5353 562.90314 167.5353Q562.325 167.5353 562.0125 167.36342Q561.7 167.17592 561.5594 166.87904Q561.4344 166.58217 561.4344 165.62904L561.4344 162.05092L560.66876 162.05092L560.66876 161.23842L561.4344 161.23842L561.4344 159.69154L562.48126 159.06654L562.48126 161.23842L563.54376 161.23842L563.54376 162.05092L562.48126 162.05092L562.48126 165.69154Q562.48126 166.14467 562.52814 166.26967Q562.59064 166.39467 562.71564 166.4728Q562.84064 166.55092 563.075 166.55092Q563.2625 166.55092 563.54376 166.51967ZM563.85626 164.3478Q563.85626 162.61342 564.8094 161.7853Q565.60626 161.0978 566.7625 161.0978Q568.04376 161.0978 568.85626 161.94154Q569.6844 162.76967 569.6844 164.25404Q569.6844 165.45717 569.325 166.14467Q568.96564 166.83217 568.2625 167.2228Q567.575 167.5978 566.7625 167.5978Q565.46564 167.5978 564.65314 166.76967Q563.85626 165.92592 563.85626 164.3478ZM564.9344 164.3478Q564.9344 165.5353 565.45 166.12904Q565.98126 166.7228 566.7625 166.7228Q567.5594 166.7228 568.075 166.12904Q568.59064 165.5353 568.59064 164.31654Q568.59064 163.1603 568.0594 162.56654Q567.54376 161.9728 566.7625 161.9728Q565.98126 161.9728 565.45 162.56654Q564.9344 163.14467 564.9344 164.3478ZM571.23126 167.45717L571.23126 161.23842L572.1844 161.23842L572.1844 162.17592Q572.54376 161.51967 572.84064 161.31654Q573.15314 161.0978 573.52814 161.0978Q574.0594 161.0978 574.60626 161.42592L574.2469 162.4103Q573.85626 162.17592 573.48126 162.17592Q573.1219 162.17592 572.84064 162.39467Q572.575 162.5978 572.46564 162.9728Q572.27814 163.5353 572.27814 164.19154L572.27814 167.45717L571.23126 167.45717ZM579.4969 165.45717L580.59064 165.58217Q580.34064 166.5353 579.6375 167.06654Q578.9344 167.5978 577.85626 167.5978Q576.4969 167.5978 575.6844 166.75404Q574.8875 165.9103 574.8875 164.39467Q574.8875 162.83217 575.7 161.9728Q576.5125 161.0978 577.79376 161.0978Q579.04376 161.0978 579.825 161.94154Q580.6219 162.7853 580.6219 164.33217Q580.6219 164.42592 580.6219 164.61342L575.98126 164.61342Q576.04376 165.64467 576.5594 166.19154Q577.075 166.7228 577.85626 166.7228Q578.4344 166.7228 578.84064 166.42592Q579.2625 166.11342 579.4969 165.45717ZM576.04376 163.75404L579.5125 163.75404Q579.45 162.95717 579.1219 162.56654Q578.60626 161.95717 577.8094 161.95717Q577.075 161.95717 576.575 162.44154Q576.09064 162.92592 576.04376 163.75404Z" fill-rule="nonzero"/><path fill="#9e9e9e" d="M550.91876 184.45717L549.8719 184.45717L549.8719 177.73842Q549.48126 178.0978 548.85626 178.4728Q548.2469 178.83217 547.7625 179.00404L547.7625 177.98842Q548.6375 177.56654 549.29376 176.98842Q549.96564 176.39467 550.2469 175.83217L550.91876 175.83217L550.91876 184.45717ZM559.41876 177.9728L558.3719 178.05092Q558.23126 177.42592 557.98126 177.14467Q557.54376 176.69154 556.91876 176.69154Q556.41876 176.69154 556.02814 176.9728Q555.54376 177.3478 555.2469 178.05092Q554.96564 178.73842 554.95 180.01967Q555.325 179.44154 555.8719 179.1603Q556.4344 178.87904 557.04376 178.87904Q558.09064 178.87904 558.825 179.6603Q559.575 180.44154 559.575 181.6603Q559.575 182.4728 559.21564 183.17592Q558.8719 183.86342 558.2625 184.23842Q557.65314 184.5978 556.8875 184.5978Q555.5594 184.5978 554.73126 183.62904Q553.90314 182.6603 553.90314 180.44154Q553.90314 177.94154 554.825 176.81654Q555.6219 175.83217 556.98126 175.83217Q557.9969 175.83217 558.6375 176.4103Q559.29376 176.9728 559.41876 177.9728ZM555.1219 181.67592Q555.1219 182.2228 555.34064 182.7228Q555.575 183.20717 555.98126 183.4728Q556.40314 183.73842 556.8719 183.73842Q557.52814 183.73842 558.0125 183.20717Q558.4969 182.6603 558.4969 181.73842Q558.4969 180.8478 558.0125 180.33217Q557.54376 179.81654 556.825 179.81654Q556.10626 179.81654 555.60626 180.33217Q555.1219 180.8478 555.1219 181.67592ZM561.5125 184.45717L561.5125 183.25404L562.71564 183.25404L562.71564 184.45717Q562.71564 185.11342 562.48126 185.51967Q562.2469 185.94154 561.7469 186.1603L561.45 185.70717Q561.77814 185.56654 561.9344 185.26967Q562.09064 184.98842 562.1219 184.45717L561.5125 184.45717ZM564.0125 176.98842L564.0125 175.9728L569.575 175.9728L569.575 176.80092Q568.7625 177.67592 567.95 179.12904Q567.15314 180.56654 566.71564 182.0978Q566.3875 183.17592 566.3094 184.45717L565.21564 184.45717Q565.23126 183.44154 565.60626 182.00404Q565.9969 180.56654 566.7 179.23842Q567.41876 177.9103 568.23126 176.98842L564.0125 176.98842ZM571.15314 177.92592Q571.15314 177.00404 571.60626 176.36342Q572.075 175.7228 572.95 175.7228Q573.7625 175.7228 574.29376 176.30092Q574.825 176.87904 574.825 177.98842Q574.825 179.08217 574.27814 179.67592Q573.7469 180.25404 572.96564 180.25404Q572.1844 180.25404 571.66876 179.67592Q571.15314 179.0978 571.15314 177.92592ZM572.98126 176.44154Q572.59064 176.44154 572.325 176.7853Q572.075 177.12904 572.075 178.0353Q572.075 178.86342 572.325 179.20717Q572.59064 179.5353 572.98126 179.5353Q573.3875 179.5353 573.6375 179.19154Q573.90314 178.8478 573.90314 177.95717Q573.90314 177.11342 573.6375 176.7853Q573.3719 176.44154 572.98126 176.44154ZM572.98126 184.76967L577.6844 175.7228L578.54376 175.7228L573.85626 184.76967L572.98126 184.76967ZM576.7 182.44154Q576.7 181.51967 577.15314 180.87904Q577.6219 180.23842 578.5125 180.23842Q579.325 180.23842 579.85626 180.81654Q580.3875 181.37904 580.3875 182.50404Q580.3875 183.5978 579.84064 184.19154Q579.3094 184.76967 578.5125 184.76967Q577.7469 184.76967 577.21564 184.19154Q576.7 183.61342 576.7 182.44154ZM578.54376 180.95717Q578.1375 180.95717 577.8719 181.30092Q577.6219 181.64467 577.6219 182.55092Q577.6219 183.36342 577.8875 183.70717Q578.15314 184.05092 578.54376 184.05092Q578.9344 184.05092 579.2 183.70717Q579.46564 183.36342 579.46564 182.45717Q579.46564 181.62904 579.2 181.30092Q578.9344 180.95717 578.54376 180.95717Z" fill-rule="nonzero"/><path stroke="#757575" stroke-width="1.0" stroke-linecap="butt" d="M581.45 171.95717L454.76666 171.95717L438.23996 171.95717" fill-rule="nonzero"/><path fill="#9e9e9e" d="M440.23996 171.95717C440.23996 170.8526 439.34454 169.95717 438.23996 169.95717C437.1354 169.95717 436.23996 170.8526 436.23996 171.95717C436.23996 173.06174 437.1354 173.95717 438.23996 173.95717C439.34454 173.95717 440.23996 173.06174 440.23996 171.95717" fill-rule="nonzero"/><path fill="#1a1a1a" d="M495.3719 284.79382L495.3719 276.20007L498.6219 276.20007Q499.46564 276.20007 499.91876 276.2782Q500.5594 276.38757 500.98126 276.68445Q501.41876 276.98132 501.66876 277.51257Q501.9344 278.04382 501.9344 278.68445Q501.9344 279.7782 501.23126 280.54382Q500.54376 281.29382 498.71564 281.29382L496.5125 281.29382L496.5125 284.79382L495.3719 284.79382ZM496.5125 280.29382L498.73126 280.29382Q499.84064 280.29382 500.29376 279.88757Q500.7625 279.4657 500.7625 278.7157Q500.7625 278.18445 500.48126 277.80945Q500.21564 277.41882 499.77814 277.29382Q499.48126 277.2157 498.71564 277.2157L496.5125 277.2157L496.5125 280.29382ZM503.23126 284.79382L503.23126 278.57507L504.1844 278.57507L504.1844 279.51257Q504.54376 278.85632 504.84064 278.6532Q505.15314 278.43445 505.52814 278.43445Q506.0594 278.43445 506.60626 278.76257L506.2469 279.74695Q505.85626 279.51257 505.48126 279.51257Q505.1219 279.51257 504.84064 279.73132Q504.575 279.93445 504.46564 280.30945Q504.27814 280.87195 504.27814 281.5282L504.27814 284.79382L503.23126 284.79382ZM506.85626 281.68445Q506.85626 279.95007 507.8094 279.12195Q508.60626 278.43445 509.7625 278.43445Q511.04376 278.43445 511.85626 279.2782Q512.6844 280.10632 512.6844 281.5907Q512.6844 282.79382 512.325 283.48132Q511.96564 284.16882 511.2625 284.55945Q510.575 284.93445 509.7625 284.93445Q508.46564 284.93445 507.65314 284.10632Q506.85626 283.26257 506.85626 281.68445ZM507.9344 281.68445Q507.9344 282.87195 508.45 283.4657Q508.98126 284.05945 509.7625 284.05945Q510.5594 284.05945 511.075 283.4657Q511.59064 282.87195 511.59064 281.6532Q511.59064 280.49695 511.0594 279.9032Q510.54376 279.30945 509.7625 279.30945Q508.98126 279.30945 508.45 279.9032Q507.9344 280.48132 507.9344 281.68445ZM514.04376 285.30945L515.075 285.4657Q515.1375 285.93445 515.4344 286.1532Q515.825 286.45007 516.4969 286.45007Q517.23126 286.45007 517.6219 286.1532Q518.02814 285.85632 518.16876 285.3407Q518.2625 285.01257 518.2469 283.98132Q517.5594 284.79382 516.52814 284.79382Q515.2469 284.79382 514.54376 283.87195Q513.84064 282.93445 513.84064 281.6532Q513.84064 280.76257 514.15314 280.01257Q514.48126 279.24695 515.09064 278.8407Q515.7 278.43445 516.52814 278.43445Q517.6375 278.43445 518.35626 279.32507L518.35626 278.57507L519.325 278.57507L519.325 283.95007Q519.325 285.4032 519.02814 286.01257Q518.73126 286.62195 518.09064 286.9657Q517.45 287.32507 516.5125 287.32507Q515.40314 287.32507 514.71564 286.82507Q514.02814 286.32507 514.04376 285.30945ZM514.91876 281.57507Q514.91876 282.79382 515.40314 283.35632Q515.8875 283.91882 516.6219 283.91882Q517.35626 283.91882 517.84064 283.35632Q518.34064 282.79382 518.34064 281.60632Q518.34064 280.4657 517.825 279.88757Q517.325 279.30945 516.60626 279.30945Q515.90314 279.30945 515.40314 279.88757Q514.91876 280.45007 514.91876 281.57507ZM521.23126 284.79382L521.23126 278.57507L522.1844 278.57507L522.1844 279.51257Q522.54376 278.85632 522.84064 278.6532Q523.15314 278.43445 523.52814 278.43445Q524.0594 278.43445 524.60626 278.76257L524.2469 279.74695Q523.85626 279.51257 523.48126 279.51257Q523.1219 279.51257 522.84064 279.73132Q522.575 279.93445 522.46564 280.30945Q522.27814 280.87195 522.27814 281.5282L522.27814 284.79382L521.23126 284.79382ZM529.3094 284.0282Q528.71564 284.5282 528.16876 284.73132Q527.6375 284.93445 527.0125 284.93445Q525.98126 284.93445 525.4344 284.43445Q524.8875 283.93445 524.8875 283.1532Q524.8875 282.70007 525.09064 282.32507Q525.29376 281.93445 525.6375 281.7157Q525.98126 281.48132 526.40314 281.37195Q526.7 281.2782 527.34064 281.20007Q528.60626 281.05945 529.21564 280.8407Q529.21564 280.62195 529.21564 280.57507Q529.21564 279.91882 528.91876 279.6532Q528.5125 279.30945 527.71564 279.30945Q526.98126 279.30945 526.6219 279.57507Q526.2625 279.82507 526.09064 280.48132L525.0594 280.3407Q525.2 279.68445 525.52814 279.2782Q525.85626 278.87195 526.46564 278.6532Q527.075 278.43445 527.8719 278.43445Q528.66876 278.43445 529.16876 278.62195Q529.66876 278.80945 529.90314 279.0907Q530.1375 279.37195 530.23126 279.80945Q530.27814 280.07507 530.27814 280.7782L530.27814 282.18445Q530.27814 283.6532 530.34064 284.04382Q530.41876 284.43445 530.6219 284.79382L529.5125 284.79382Q529.35626 284.4657 529.3094 284.0282ZM529.21564 281.66882Q528.6375 281.9032 527.4969 282.07507Q526.84064 282.16882 526.575 282.29382Q526.3094 282.4032 526.15314 282.62195Q526.0125 282.8407 526.0125 283.12195Q526.0125 283.54382 526.325 283.82507Q526.65314 284.10632 527.2625 284.10632Q527.8719 284.10632 528.34064 283.8407Q528.825 283.57507 529.04376 283.10632Q529.21564 282.74695 529.21564 282.05945L529.21564 281.66882ZM532.2469 284.79382L532.2469 278.57507L533.1844 278.57507L533.1844 279.45007Q533.48126 278.98132 533.96564 278.7157Q534.45 278.43445 535.075 278.43445Q535.7625 278.43445 536.2 278.7157Q536.65314 278.99695 536.825 279.51257Q537.575 278.43445 538.7469 278.43445Q539.6844 278.43445 540.16876 278.95007Q540.66876 279.45007 540.66876 280.5282L540.66876 284.79382L539.6219 284.79382L539.6219 280.87195Q539.6219 280.24695 539.5125 279.9657Q539.41876 279.68445 539.15314 279.51257Q538.8875 279.3407 538.5125 279.3407Q537.85626 279.3407 537.41876 279.7782Q536.9969 280.2157 536.9969 281.18445L536.9969 284.79382L535.9344 284.79382L535.9344 280.74695Q535.9344 280.04382 535.66876 279.70007Q535.41876 279.3407 534.84064 279.3407Q534.3875 279.3407 534.0125 279.57507Q533.6375 279.80945 533.46564 280.26257Q533.29376 280.7157 533.29376 281.55945L533.29376 284.79382L532.2469 284.79382ZM543.2469 284.79382L543.2469 278.57507L544.1844 278.57507L544.1844 279.45007Q544.48126 278.98132 544.96564 278.7157Q545.45 278.43445 546.075 278.43445Q546.7625 278.43445 547.2 278.7157Q547.65314 278.99695 547.825 279.51257Q548.575 278.43445 549.7469 278.43445Q550.6844 278.43445 551.16876 278.95007Q551.66876 279.45007 551.66876 280.5282L551.66876 284.79382L550.6219 284.79382L550.6219 280.87195Q550.6219 280.24695 550.5125 279.9657Q550.41876 279.68445 550.15314 279.51257Q549.8875 279.3407 549.5125 279.3407Q548.85626 279.3407 548.41876 279.7782Q547.9969 280.2157 547.9969 281.18445L547.9969 284.79382L546.9344 284.79382L546.9344 280.74695Q546.9344 280.04382 546.66876 279.70007Q546.41876 279.3407 545.84064 279.3407Q545.3875 279.3407 545.0125 279.57507Q544.6375 279.80945 544.46564 280.26257Q544.29376 280.7157 544.29376 281.55945L544.29376 284.79382L543.2469 284.79382ZM558.3094 284.0282Q557.71564 284.5282 557.16876 284.73132Q556.6375 284.93445 556.0125 284.93445Q554.98126 284.93445 554.4344 284.43445Q553.8875 283.93445 553.8875 283.1532Q553.8875 282.70007 554.09064 282.32507Q554.29376 281.93445 554.6375 281.7157Q554.98126 281.48132 555.40314 281.37195Q555.7 281.2782 556.34064 281.20007Q557.60626 281.05945 558.21564 280.8407Q558.21564 280.62195 558.21564 280.57507Q558.21564 279.91882 557.91876 279.6532Q557.5125 279.30945 556.71564 279.30945Q555.98126 279.30945 555.6219 279.57507Q555.2625 279.82507 555.09064 280.48132L554.0594 280.3407Q554.2 279.68445 554.52814 279.2782Q554.85626 278.87195 555.46564 278.6532Q556.075 278.43445 556.8719 278.43445Q557.66876 278.43445 558.16876 278.62195Q558.66876 278.80945 558.90314 279.0907Q559.1375 279.37195 559.23126 279.80945Q559.27814 280.07507 559.27814 280.7782L559.27814 282.18445Q559.27814 283.6532 559.34064 284.04382Q559.41876 284.43445 559.6219 284.79382L558.5125 284.79382Q558.35626 284.4657 558.3094 284.0282ZM558.21564 281.66882Q557.6375 281.9032 556.4969 282.07507Q555.84064 282.16882 555.575 282.29382Q555.3094 282.4032 555.15314 282.62195Q555.0125 282.8407 555.0125 283.12195Q555.0125 283.54382 555.325 283.82507Q555.65314 284.10632 556.2625 284.10632Q556.8719 284.10632 557.34064 283.8407Q557.825 283.57507 558.04376 283.10632Q558.21564 282.74695 558.21564 282.05945L558.21564 281.66882ZM563.54376 283.85632L563.7 284.7782Q563.2469 284.87195 562.90314 284.87195Q562.325 284.87195 562.0125 284.70007Q561.7 284.51257 561.5594 284.2157Q561.4344 283.91882 561.4344 282.9657L561.4344 279.38757L560.66876 279.38757L560.66876 278.57507L561.4344 278.57507L561.4344 277.0282L562.48126 276.4032L562.48126 278.57507L563.54376 278.57507L563.54376 279.38757L562.48126 279.38757L562.48126 283.0282Q562.48126 283.48132 562.52814 283.60632Q562.59064 283.73132 562.71564 283.80945Q562.84064 283.88757 563.075 283.88757Q563.2625 283.88757 563.54376 283.85632ZM563.85626 281.68445Q563.85626 279.95007 564.8094 279.12195Q565.60626 278.43445 566.7625 278.43445Q568.04376 278.43445 568.85626 279.2782Q569.6844 280.10632 569.6844 281.5907Q569.6844 282.79382 569.325 283.48132Q568.96564 284.16882 568.2625 284.55945Q567.575 284.93445 566.7625 284.93445Q565.46564 284.93445 564.65314 284.10632Q563.85626 283.26257 563.85626 281.68445ZM564.9344 281.68445Q564.9344 282.87195 565.45 283.4657Q565.98126 284.05945 566.7625 284.05945Q567.5594 284.05945 568.075 283.4657Q568.59064 282.87195 568.59064 281.6532Q568.59064 280.49695 568.0594 279.9032Q567.54376 279.30945 566.7625 279.30945Q565.98126 279.30945 565.45 279.9032Q564.9344 280.48132 564.9344 281.68445ZM571.23126 284.79382L571.23126 278.57507L572.1844 278.57507L572.1844 279.51257Q572.54376 278.85632 572.84064 278.6532Q573.15314 278.43445 573.52814 278.43445Q574.0594 278.43445 574.60626 278.76257L574.2469 279.74695Q573.85626 279.51257 573.48126 279.51257Q573.1219 279.51257 572.84064 279.73132Q572.575 279.93445 572.46564 280.30945Q572.27814 280.87195 572.27814 281.5282L572.27814 284.79382L571.23126 284.79382ZM579.4969 282.79382L580.59064 282.91882Q580.34064 283.87195 579.6375 284.4032Q578.9344 284.93445 577.85626 284.93445Q576.4969 284.93445 575.6844 284.0907Q574.8875 283.24695 574.8875 281.73132Q574.8875 280.16882 575.7 279.30945Q576.5125 278.43445 577.79376 278.43445Q579.04376 278.43445 579.825 279.2782Q580.6219 280.12195 580.6219 281.66882Q580.6219 281.76257 580.6219 281.95007L575.98126 281.95007Q576.04376 282.98132 576.5594 283.5282Q577.075 284.05945 577.85626 284.05945Q578.4344 284.05945 578.84064 283.76257Q579.2625 283.45007 579.4969 282.79382ZM576.04376 281.0907L579.5125 281.0907Q579.45 280.29382 579.1219 279.9032Q578.60626 279.29382 577.8094 279.29382Q577.075 279.29382 576.575 279.7782Q576.09064 280.26257 576.04376 281.0907Z" fill-rule="nonzero"/><path fill="#9e9e9e" d="M546.95 299.5282L548.0125 299.38757Q548.1844 300.2782 548.6219 300.68445Q549.0594 301.07507 549.6844 301.07507Q550.4344 301.07507 550.95 300.55945Q551.46564 300.04382 551.46564 299.2782Q551.46564 298.55945 550.98126 298.0907Q550.5125 297.60632 549.77814 297.60632Q549.48126 297.60632 549.02814 297.73132L549.15314 296.79382Q549.2625 296.80945 549.325 296.80945Q549.9969 296.80945 550.52814 296.4657Q551.075 296.10632 551.075 295.37195Q551.075 294.79382 550.6844 294.41882Q550.29376 294.0282 549.66876 294.0282Q549.0594 294.0282 548.6375 294.41882Q548.23126 294.80945 548.1219 295.57507L547.0594 295.38757Q547.2469 294.3407 547.9344 293.76257Q548.6219 293.16882 549.6375 293.16882Q550.34064 293.16882 550.9344 293.48132Q551.52814 293.7782 551.84064 294.29382Q552.15314 294.80945 552.15314 295.4032Q552.15314 295.95007 551.85626 296.41882Q551.5594 296.87195 550.98126 297.13757Q551.73126 297.30945 552.15314 297.87195Q552.575 298.41882 552.575 299.26257Q552.575 300.38757 551.7469 301.16882Q550.9344 301.95007 549.6844 301.95007Q548.5594 301.95007 547.8094 301.2782Q547.0594 300.5907 546.95 299.5282ZM553.95 299.5282L555.0125 299.38757Q555.1844 300.2782 555.6219 300.68445Q556.0594 301.07507 556.6844 301.07507Q557.4344 301.07507 557.95 300.55945Q558.46564 300.04382 558.46564 299.2782Q558.46564 298.55945 557.98126 298.0907Q557.5125 297.60632 556.77814 297.60632Q556.48126 297.60632 556.02814 297.73132L556.15314 296.79382Q556.2625 296.80945 556.325 296.80945Q556.9969 296.80945 557.52814 296.4657Q558.075 296.10632 558.075 295.37195Q558.075 294.79382 557.6844 294.41882Q557.29376 294.0282 556.66876 294.0282Q556.0594 294.0282 555.6375 294.41882Q555.23126 294.80945 555.1219 295.57507L554.0594 295.38757Q554.2469 294.3407 554.9344 293.76257Q555.6219 293.16882 556.6375 293.16882Q557.34064 293.16882 557.9344 293.48132Q558.52814 293.7782 558.84064 294.29382Q559.15314 294.80945 559.15314 295.4032Q559.15314 295.95007 558.85626 296.41882Q558.5594 296.87195 557.98126 297.13757Q558.73126 297.30945 559.15314 297.87195Q559.575 298.41882 559.575 299.26257Q559.575 300.38757 558.7469 301.16882Q557.9344 301.95007 556.6844 301.95007Q555.5594 301.95007 554.8094 301.2782Q554.0594 300.5907 553.95 299.5282ZM561.5125 301.79382L561.5125 300.5907L562.71564 300.5907L562.71564 301.79382Q562.71564 302.45007 562.48126 302.85632Q562.2469 303.2782 561.7469 303.49695L561.45 303.04382Q561.77814 302.9032 561.9344 302.60632Q562.09064 302.32507 562.1219 301.79382L561.5125 301.79382ZM563.95 299.5282L565.0125 299.38757Q565.1844 300.2782 565.6219 300.68445Q566.0594 301.07507 566.6844 301.07507Q567.4344 301.07507 567.95 300.55945Q568.46564 300.04382 568.46564 299.2782Q568.46564 298.55945 567.98126 298.0907Q567.5125 297.60632 566.77814 297.60632Q566.48126 297.60632 566.02814 297.73132L566.15314 296.79382Q566.2625 296.80945 566.325 296.80945Q566.9969 296.80945 567.52814 296.4657Q568.075 296.10632 568.075 295.37195Q568.075 294.79382 567.6844 294.41882Q567.29376 294.0282 566.66876 294.0282Q566.0594 294.0282 565.6375 294.41882Q565.23126 294.80945 565.1219 295.57507L564.0594 295.38757Q564.2469 294.3407 564.9344 293.76257Q565.6219 293.16882 566.6375 293.16882Q567.34064 293.16882 567.9344 293.48132Q568.52814 293.7782 568.84064 294.29382Q569.15314 294.80945 569.15314 295.4032Q569.15314 295.95007 568.85626 296.41882Q568.5594 296.87195 567.98126 297.13757Q568.73126 297.30945 569.15314 297.87195Q569.575 298.41882 569.575 299.26257Q569.575 300.38757 568.7469 301.16882Q567.9344 301.95007 566.6844 301.95007Q565.5594 301.95007 564.8094 301.2782Q564.0594 300.5907 563.95 299.5282ZM571.15314 295.26257Q571.15314 294.3407 571.60626 293.70007Q572.075 293.05945 572.95 293.05945Q573.7625 293.05945 574.29376 293.63757Q574.825 294.2157 574.825 295.32507Q574.825 296.41882 574.27814 297.01257Q573.7469 297.5907 572.96564 297.5907Q572.1844 297.5907 571.66876 297.01257Q571.15314 296.43445 571.15314 295.26257ZM572.98126 293.7782Q572.59064 293.7782 572.325 294.12195Q572.075 294.4657 572.075 295.37195Q572.075 296.20007 572.325 296.54382Q572.59064 296.87195 572.98126 296.87195Q573.3875 296.87195 573.6375 296.5282Q573.90314 296.18445 573.90314 295.29382Q573.90314 294.45007 573.6375 294.12195Q573.3719 293.7782 572.98126 293.7782ZM572.98126 302.10632L577.6844 293.05945L578.54376 293.05945L573.85626 302.10632L572.98126 302.10632ZM576.7 299.7782Q576.7 298.85632 577.15314 298.2157Q577.6219 297.57507 578.5125 297.57507Q579.325 297.57507 579.85626 298.1532Q580.3875 298.7157 580.3875 299.8407Q580.3875 300.93445 579.84064 301.5282Q579.3094 302.10632 578.5125 302.10632Q577.7469 302.10632 577.21564 301.5282Q576.7 300.95007 576.7 299.7782ZM578.54376 298.29382Q578.1375 298.29382 577.8719 298.63757Q577.6219 298.98132 577.6219 299.88757Q577.6219 300.70007 577.8875 301.04382Q578.15314 301.38757 578.54376 301.38757Q578.9344 301.38757 579.2 301.04382Q579.46564 300.70007 579.46564 299.79382Q579.46564 298.9657 579.2 298.63757Q578.9344 298.29382 578.54376 298.29382Z" fill-rule="nonzero"/><path stroke="#757575" stroke-width="1.0" stroke-linecap="butt" d="M581.45 289.29382L454.76666 289.29382L329.38382 289.29382" fill-rule="nonzero"/><path fill="#9e9e9e" d="M331.38382 289.29382C331.38382 288.18924 330.48837 287.29382 329.38382 287.29382C328.27924 287.29382 327.38382 288.18924 327.38382 289.29382C327.38382 290.39838 328.27924 291.29382 329.38382 291.29382C330.48837 291.29382 331.38382 290.39838 331.38382 289.29382" fill-rule="nonzero"/><path fill="#757575" d="M20.096874 37.55L20.096874 23.2375L25.4875 23.2375Q26.925 23.2375 27.675 23.3625Q28.721874 23.55 29.440624 24.05Q30.159374 24.534374 30.58125 25.425Q31.01875 26.315624 31.01875 27.378124Q31.01875 29.20625 29.846874 30.471874Q28.690624 31.721874 25.659374 31.721874L21.9875 31.721874L21.9875 37.55L20.096874 37.55ZM21.9875 30.034374L25.690624 30.034374Q27.51875 30.034374 28.284374 29.3625Q29.065624 28.675 29.065624 27.425Q29.065624 26.534374 28.6125 25.89375Q28.159374 25.253124 27.425 25.05Q26.940624 24.925 25.64375 24.925L21.9875 24.925L21.9875 30.034374ZM39.971874 34.20625L41.784374 34.440624Q41.3625 36.01875 40.190624 36.909374Q39.034374 37.784374 37.221874 37.784374Q34.95625 37.784374 33.6125 36.39375Q32.284374 34.9875 32.284374 32.45625Q32.284374 29.83125 33.628124 28.39375Q34.971874 26.940624 37.128124 26.940624Q39.20625 26.940624 40.51875 28.3625Q41.846874 29.76875 41.846874 32.346874Q41.846874 32.503124 41.83125 32.815624L34.096874 32.815624Q34.190624 34.51875 35.065624 35.425Q35.940624 36.33125 37.2375 36.33125Q38.20625 36.33125 38.878124 35.83125Q39.565624 35.315624 39.971874 34.20625ZM34.190624 31.3625L39.9875 31.3625Q39.878124 30.065624 39.33125 29.409374Q38.4875 28.39375 37.14375 28.39375Q35.940624 28.39375 35.1125 29.20625Q34.284374 30.003124 34.190624 31.3625ZM43.846874 37.55L43.846874 27.175L45.425 27.175L45.425 28.753124Q46.034374 27.64375 46.55 27.3Q47.065624 26.940624 47.675 26.940624Q48.565624 26.940624 49.4875 27.503124L48.878124 29.14375Q48.2375 28.753124 47.596874 28.753124Q47.01875 28.753124 46.55 29.1125Q46.096874 29.45625 45.89375 30.065624Q45.6125 31.003124 45.6125 32.1125L45.6125 37.55L43.846874 37.55ZM57.64375 33.753124L59.3625 33.971874Q59.08125 35.76875 57.909374 36.784374Q56.753124 37.784374 55.05 37.784374Q52.925 37.784374 51.628124 36.39375Q50.33125 35.003124 50.33125 32.409374Q50.33125 30.721874 50.878124 29.471874Q51.440624 28.20625 52.58125 27.58125Q53.721874 26.940624 55.065624 26.940624Q56.753124 26.940624 57.815624 27.8Q58.89375 28.659374 59.20625 30.221874L57.4875 30.4875Q57.253124 29.440624 56.628124 28.925Q56.003124 28.39375 55.128124 28.39375Q53.8 28.39375 52.971874 29.346874Q52.14375 30.3 52.14375 32.346874Q52.14375 34.440624 52.940624 35.39375Q53.7375 36.33125 55.034374 36.33125Q56.065624 36.33125 56.753124 35.70625Q57.45625 35.065624 57.64375 33.753124ZM67.97188 34.20625L69.78438 34.440624Q69.3625 36.01875 68.19063 36.909374Q67.03438 37.784374 65.22188 37.784374Q62.95625 37.784374 61.6125 36.39375Q60.284374 34.9875 60.284374 32.45625Q60.284374 29.83125 61.628124 28.39375Q62.971874 26.940624 65.12813 26.940624Q67.20625 26.940624 68.51875 28.3625Q69.84688 29.76875 69.84688 32.346874Q69.84688 32.503124 69.83125 32.815624L62.096874 32.815624Q62.190624 34.51875 63.065624 35.425Q63.940624 36.33125 65.2375 36.33125Q66.20625 36.33125 66.87813 35.83125Q67.56563 35.315624 67.97188 34.20625ZM62.190624 31.3625L67.9875 31.3625Q67.87813 30.065624 67.33125 29.409374Q66.4875 28.39375 65.14375 28.39375Q63.940624 28.39375 63.1125 29.20625Q62.284374 30.003124 62.190624 31.3625ZM71.8625 37.55L71.8625 27.175L73.45625 27.175L73.45625 28.659374Q74.59688 26.940624 76.75313 26.940624Q77.69063 26.940624 78.47188 27.284374Q79.26875 27.6125 79.65938 28.159374Q80.05 28.70625 80.20625 29.45625Q80.3 29.95625 80.3 31.175L80.3 37.55L78.53438 37.55L78.53438 31.2375Q78.53438 30.159374 78.33125 29.628124Q78.12813 29.096874 77.59688 28.784374Q77.08125 28.471874 76.37813 28.471874Q75.25313 28.471874 74.44063 29.190624Q73.62813 29.89375 73.62813 31.878124L73.62813 37.55L71.8625 37.55ZM85.70625 35.971874L85.95625 37.534374Q85.22188 37.690624 84.62813 37.690624Q83.675 37.690624 83.14375 37.39375Q82.62813 37.08125 82.40938 36.596874Q82.19063 36.096874 82.19063 34.51875L82.19063 28.55L80.90938 28.55L80.90938 27.175L82.19063 27.175L82.19063 24.6125L83.94063 23.55L83.94063 27.175L85.70625 27.175L85.70625 28.55L83.94063 28.55L83.94063 34.6125Q83.94063 35.3625 84.03438 35.58125Q84.12813 35.784374 84.33125 35.925Q84.55 36.05 84.94063 36.05Q85.22188 36.05 85.70625 35.971874ZM94.65938 37.55L94.65938 36.01875Q93.45625 37.784374 91.37813 37.784374Q90.45625 37.784374 89.65938 37.440624Q88.8625 37.08125 88.47188 36.55Q88.09688 36.01875 87.94063 35.2375Q87.83125 34.721874 87.83125 33.596874L87.83125 27.175L89.58125 27.175L89.58125 32.925Q89.58125 34.3 89.69063 34.784374Q89.8625 35.471874 90.39375 35.878124Q90.94063 36.26875 91.72188 36.26875Q92.51875 36.26875 93.20625 35.8625Q93.90938 35.45625 94.19063 34.76875Q94.4875 34.065624 94.4875 32.7375L94.4875 27.175L96.2375 27.175L96.2375 37.55L94.65938 37.55ZM104.64375 36.26875Q103.65938 37.096874 102.75313 37.440624Q101.84688 37.784374 100.81563 37.784374Q99.1125 37.784374 98.19063 36.95625Q97.26875 36.1125 97.26875 34.815624Q97.26875 34.05 97.6125 33.425Q97.97188 32.8 98.53438 32.425Q99.09688 32.034374 99.8 31.83125Q100.31563 31.70625 101.3625 31.565624Q103.4875 31.315624 104.4875 30.971874Q104.50313 30.6125 104.50313 30.503124Q104.50313 29.440624 104.00313 28.9875Q103.33125 28.39375 102.00313 28.39375Q100.75313 28.39375 100.15938 28.83125Q99.58125 29.26875 99.3 30.378124L97.58125 30.14375Q97.81563 29.034374 98.34688 28.3625Q98.87813 27.675 99.89375 27.315624Q100.90938 26.940624 102.25313 26.940624Q103.58125 26.940624 104.40938 27.253124Q105.2375 27.565624 105.62813 28.05Q106.01875 28.51875 106.175 29.2375Q106.26875 29.690624 106.26875 30.8625L106.26875 33.20625Q106.26875 35.659374 106.37813 36.315624Q106.4875 36.95625 106.83125 37.55L104.9875 37.55Q104.72188 37.003124 104.64375 36.26875ZM104.4875 32.346874Q103.53438 32.7375 101.6125 33.003124Q100.53438 33.159374 100.08125 33.3625Q99.64375 33.55 99.39375 33.925Q99.14375 34.3 99.14375 34.76875Q99.14375 35.471874 99.675 35.940624Q100.20625 36.409374 101.2375 36.409374Q102.25313 36.409374 103.03438 35.971874Q103.83125 35.51875 104.20625 34.753124Q104.4875 34.14375 104.4875 32.9875L104.4875 32.346874ZM108.83125 37.55L108.83125 23.2375L110.58125 23.2375L110.58125 37.55L108.83125 37.55ZM119.97188 34.20625L121.78438 34.440624Q121.3625 36.01875 120.19063 36.909374Q119.03438 37.784374 117.22188 37.784374Q114.95625 37.784374 113.6125 36.39375Q112.28438 34.9875 112.28438 32.45625Q112.28438 29.83125 113.62813 28.39375Q114.97188 26.940624 117.12813 26.940624Q119.20625 26.940624 120.51875 28.3625Q121.84688 29.76875 121.84688 32.346874Q121.84688 32.503124 121.83125 32.815624L114.09688 32.815624Q114.19063 34.51875 115.06563 35.425Q115.94063 36.33125 117.2375 36.33125Q118.20625 36.33125 118.87813 35.83125Q119.56563 35.315624 119.97188 34.20625ZM114.19063 31.3625L119.9875 31.3625Q119.87813 30.065624 119.33125 29.409374Q118.4875 28.39375 117.14375 28.39375Q115.94063 28.39375 115.1125 29.20625Q114.28438 30.003124 114.19063 31.3625ZM129.22188 32.3625Q129.22188 29.4875 130.81563 28.096874Q132.15938 26.940624 134.08125 26.940624Q136.22188 26.940624 137.56563 28.346874Q138.925 29.753124 138.925 32.221874Q138.925 34.221874 138.33125 35.378124Q137.7375 36.51875 136.58125 37.159374Q135.44063 37.784374 134.08125 37.784374Q131.89375 37.784374 130.55 36.39375Q129.22188 34.9875 129.22188 32.3625ZM131.01875 32.3625Q131.01875 34.3625 131.87813 35.346874Q132.75313 36.33125 134.08125 36.33125Q135.39375 36.33125 136.25313 35.346874Q137.12813 34.346874 137.12813 32.3Q137.12813 30.378124 136.25313 29.39375Q135.37813 28.39375 134.08125 28.39375Q132.75313 28.39375 131.87813 29.39375Q131.01875 30.378124 131.01875 32.3625ZM140.84688 37.55L140.84688 27.175L142.425 27.175L142.425 28.753124Q143.03438 27.64375 143.55 27.3Q144.06563 26.940624 144.675 26.940624Q145.56563 26.940624 146.4875 27.503124L145.87813 29.14375Q145.2375 28.753124 144.59688 28.753124Q144.01875 28.753124 143.55 29.1125Q143.09688 29.45625 142.89375 30.065624Q142.6125 31.003124 142.6125 32.1125L142.6125 37.55L140.84688 37.55ZM154.97188 34.20625L156.78438 34.440624Q156.3625 36.01875 155.19063 36.909374Q154.03438 37.784374 152.22188 37.784374Q149.95625 37.784374 148.6125 36.39375Q147.28438 34.9875 147.28438 32.45625Q147.28438 29.83125 148.62813 28.39375Q149.97188 26.940624 152.12813 26.940624Q154.20625 26.940624 155.51875 28.3625Q156.84688 29.76875 156.84688 32.346874Q156.84688 32.503124 156.83125 32.815624L149.09688 32.815624Q149.19063 34.51875 150.06563 35.425Q150.94063 36.33125 152.2375 36.33125Q153.20625 36.33125 153.87813 35.83125Q154.56563 35.315624 154.97188 34.20625ZM149.19063 31.3625L154.9875 31.3625Q154.87813 30.065624 154.33125 29.409374Q153.4875 28.39375 152.14375 28.39375Q150.94063 28.39375 150.1125 29.20625Q149.28438 30.003124 149.19063 31.3625ZM175.31563 32.534374L177.20625 33.003124Q176.6125 35.346874 175.06563 36.58125Q173.51875 37.8 171.26875 37.8Q168.95625 37.8 167.50313 36.8625Q166.06563 35.909374 165.3 34.128124Q164.55 32.33125 164.55 30.284374Q164.55 28.05 165.39375 26.39375Q166.25313 24.721874 167.83125 23.8625Q169.40938 22.9875 171.3 22.9875Q173.45625 22.9875 174.90938 24.08125Q176.37813 25.175 176.95625 27.159374L175.09688 27.596874Q174.59688 26.034374 173.64375 25.33125Q172.70625 24.6125 171.26875 24.6125Q169.6125 24.6125 168.50313 25.409374Q167.39375 26.190624 166.94063 27.534374Q166.50313 28.8625 166.50313 30.26875Q166.50313 32.096874 167.03438 33.471874Q167.56563 34.83125 168.69063 35.503124Q169.81563 36.175 171.1125 36.175Q172.70625 36.175 173.81563 35.253124Q174.925 34.33125 175.31563 32.534374ZM177.51875 37.55L183.01875 23.2375L185.06563 23.2375L190.925 37.55L188.76875 37.55L187.09688 33.20625L181.1125 33.20625L179.53438 37.55L177.51875 37.55ZM181.65938 31.675L186.50313 31.675L185.01875 27.70625Q184.33125 25.89375 184.00313 24.7375Q183.72188 26.1125 183.22188 27.471874L181.65938 31.675Z" fill-rule="nonzero"/></svg>